<svg width="635" height="323" viewBox="0 0 635 323" fill="none" xmlns="http://www.w3.org/2000/svg">
<g clip-path="url(#clip0_4507_2199)">
<path d="M100.96 254.38C100.96 254.38 110.78 271.8 181.5 279.73C252.22 287.66 287.9 314.1 332.85 322.03C377.79 329.96 433.31 277.75 481.55 285.68C529.8 293.61 587.95 263.4 592.58 254.38H100.96Z" fill="#1467B0"/>
<path d="M611.58 250.93H601.13L140.5 251.01C140.5 251.01 135.85 247.33 128.59 241.03C125.48 238.32 121.88 235.13 117.97 231.53C116.55 230.23 115.09 228.87 113.59 227.46C99.8701 214.55 83.2701 197.5 69.7901 179.34C55.5901 160.22 44.8301 139.87 44.5301 121.84C44.5301 121.44 44.5201 121.03 44.5301 120.63C44.6901 103.18 48.1201 84.37 56.6101 66.91C61.5701 56.71 68.2501 46.97 77.0201 38.24C99.8701 15.49 136.84 -0.449986 194.23 1.39102e-05C261.14 0.540014 330.54 25.49 393.21 60C406.32 67.22 419.13 74.86 431.57 82.78C440.77 88.64 449.76 94.65 458.51 100.77C482.86 117.78 505.33 135.56 525.2 152.93C570.3 192.35 601.96 229.64 611.58 250.93Z" fill="url(#paint0_linear_4507_2199)"/>
<path style="mix-blend-mode:overlay" opacity="0.45" d="M611.58 250.93H601.13L140.5 251.01C140.5 251.01 135.85 247.33 128.59 241.03C125.48 238.32 121.88 235.13 117.97 231.53C116.55 230.23 115.09 228.87 113.59 227.46C99.87 214.55 83.27 197.5 69.79 179.34C55.59 160.22 44.83 139.87 44.53 121.84C50.25 118.8 63.66 112.72 74.76 115.5C89.3 119.13 92.41 136.41 92.41 136.41C92.41 136.41 102.83 128.02 113.74 132C124.66 135.99 126.31 147.55 126.31 147.55C126.31 147.55 139.17 140.92 150.75 143.74C162.32 146.56 171.62 157.79 159.21 165.06C146.94 172.24 133.06 166.7 132.73 166.57C132.9 166.79 137.77 173.32 128.94 181.38C119.95 189.57 154.41 196.66 154.41 196.66C154.41 196.66 155.71 174.22 178.85 176.75C201.99 179.28 220.64 191.77 220.64 191.77C220.64 191.77 221.81 157.47 240.31 151.19C258.81 144.91 268.33 165.06 268.33 165.06C268.33 165.06 309.31 138.52 323.25 163.26C337.19 188 337.74 192.69 337.74 192.69C337.74 192.69 349.6 127.72 386.82 130.7C424.04 133.67 430.94 159.48 430.3 162.11C429.66 164.73 440.99 145.43 452.17 155.91C463.36 166.39 469.85 181.02 469.85 181.02L528.74 174.07C528.74 174.07 522.74 162.45 525.18 152.93C570.28 192.35 601.94 229.64 611.56 250.93H611.58Z" fill="url(#paint1_linear_4507_2199)"/>
<path style="mix-blend-mode:hard-light" d="M431.57 82.79H257.5C279.31 82.79 283.61 74.86 296.49 70.57C297.11 70.37 297.72 70.19 298.33 70.04C310.39 66.99 320.34 73.86 328.05 73.54C336.14 73.21 345.07 64.62 354.32 61.65C357.46 60.64 360.72 60.96 364.05 61.75C370.55 63.29 377.37 66.59 384.29 65.28C390.32 64.14 390.77 61.7 393.19 60.01C406.3 67.23 419.11 74.87 431.55 82.79H431.57Z" fill="url(#paint2_linear_4507_2199)"/>
<path style="mix-blend-mode:hard-light" d="M206.19 66.92H56.6101C61.4901 56.88 68.0501 47.28 76.6101 38.66L77.0201 38.25C80.5701 37.52 84.3701 37.01 88.3801 36.85C112.1 35.86 117.12 53.7 117.12 53.7C117.12 53.7 123.33 45.44 134.57 49.4C145.81 53.37 141.84 58.32 150.76 60.97C151.92 61.31 153.14 61.4 154.41 61.29C162.92 60.56 173.66 51.24 183.14 54.7C194.05 58.66 186.93 66.92 206.18 66.92H206.19Z" fill="url(#paint3_linear_4507_2199)"/>
<path d="M631.5 257.76H75.17C73.31 257.76 71.8 256.25 71.8 254.39C71.8 252.53 73.31 251.02 75.17 251.02H631.5C633.36 251.02 634.87 252.53 634.87 254.39C634.87 256.25 633.36 257.76 631.5 257.76Z" fill="#1A406B"/>
<g style="mix-blend-mode:overlay" opacity="0.25">
<path d="M364.06 61.74C354.14 64.28 342.96 75.05 335.71 76.62C326.57 78.6 316 73.97 305.75 71.4C302.64 70.62 300.21 70.21 298.34 70.03C310.4 66.98 320.35 73.85 328.06 73.53C336.15 73.2 345.08 64.61 354.33 61.64C357.47 60.63 360.73 60.95 364.06 61.74Z" fill="white"/>
</g>
<g style="mix-blend-mode:overlay" opacity="0.25">
<path d="M154.42 61.29C145.5 65.95 141.36 55.34 133.58 51.87C124.66 47.88 118.38 60.32 115.74 58.17C113.1 56.02 111.94 46.77 101.86 41.98C96.1401 39.26 85.0901 38.67 76.6101 38.67L77.0201 38.26C80.5701 37.53 84.3701 37.02 88.3801 36.86C112.1 35.87 117.12 53.71 117.12 53.71C117.12 53.71 123.33 45.45 134.57 49.41C145.81 53.38 141.84 58.33 150.76 60.98C151.92 61.32 153.14 61.41 154.41 61.3L154.42 61.29Z" fill="white"/>
</g>
<path d="M394.62 39.58C394.62 39.58 457.07 95.34 481.86 87.74C506.64 80.14 350.92 6.41003 394.62 39.58Z" fill="url(#paint4_linear_4507_2199)"/>
<path d="M34.7201 96.26C34.7201 96.26 13.4401 133.64 50.5801 173.06C59.1701 182.18 60.1601 199.13 42.9801 200.07C25.8001 201.01 -0.959877 159.04 0.0301229 125.34C1.02012 91.63 40.4401 76.38 34.7301 96.26H34.7201Z" fill="url(#paint5_linear_4507_2199)"/>
<path d="M460.67 294.93C460.67 294.93 424.71 302.86 415.45 315.09C410.92 321.07 428.89 320.17 444.19 313.6C460.14 306.74 473.3 294.09 460.67 294.93Z" fill="#1A406B"/>
<path d="M199.84 292.62C199.84 292.62 213.84 292.29 226.17 297.08C238.5 301.87 241.14 316.58 228.92 318.39C216.69 320.21 188.85 303.91 190.42 297.24C191.58 292.33 199.84 292.61 199.84 292.61V292.62Z" fill="#1A406B"/>
<g style="mix-blend-mode:overlay">
<path d="M135.98 212.9L128.07 240.33C124.96 237.62 121.36 234.43 117.45 230.83L115.73 227.63C115.73 227.63 118.74 192.46 108.8 178.37C118.32 185.02 122.86 211.62 122.86 211.62L121.38 213.59H122.86C122.86 213.59 125.22 218.1 126.13 224.73C132.22 193.08 126.3 177.79 126.13 177.37C126.37 177.65 131.1 183.5 133.94 193.04C136.85 202.82 135.76 208.97 135.76 208.97L133.4 212.88H135.96L135.98 212.9Z" fill="black"/>
</g>
<path d="M375.78 239.88C375.78 239.88 378.37 237.57 380.27 235.1C380.61 234.66 380.92 234.22 381.2 233.78L382.37 235.21L381.97 232.96C381.97 232.96 390.03 230.14 392.94 222.37C391.17 230.92 387.76 237.25 383.75 240.2C381.99 241.49 380.12 242.13 378.22 242.03C371.98 241.7 375.79 239.88 375.79 239.88H375.78Z" fill="#F3475C"/>
<g style="mix-blend-mode:overlay" opacity="0.25">
<path d="M392.94 222.37C392.27 224.59 391.42 226.75 390.45 228.85C389.47 230.95 388.35 232.99 387.01 234.89C385.67 236.78 384.1 238.55 382.17 239.89C380.27 241.25 377.9 242.03 375.52 241.9C375.39 241.9 375.29 241.78 375.3 241.66C375.3 241.53 375.42 241.43 375.54 241.44C377.8 241.6 380.08 240.9 381.96 239.6C383.86 238.32 385.44 236.6 386.81 234.75C388.17 232.89 389.32 230.88 390.34 228.8C391.34 226.72 392.23 224.57 392.94 222.37Z" fill="white"/>
</g>
<g style="mix-blend-mode:overlay" opacity="0.25">
<path d="M375.78 239.88C375.78 239.88 378.37 237.57 380.27 235.1C381.08 237.48 382.74 239.28 383.74 240.2C381.98 241.49 380.11 242.13 378.21 242.03C371.97 241.7 375.78 239.88 375.78 239.88Z" fill="black"/>
</g>
<g style="mix-blend-mode:overlay">
<path d="M313.16 224.43C313.16 224.43 294.53 206.98 297.55 183.62C299.46 194.43 307.34 207.34 307.34 207.34L306.36 210.26L309.86 209.58C309.86 209.58 314.27 182.93 304.35 170.1C317.73 183.88 317.58 204.4 317.58 204.4L315.06 208.18L317.58 209.28C317.58 209.28 314.65 219.24 323.36 215.41C332.07 211.58 337.58 178.51 329.71 170.09C339.16 178.21 337.58 206.09 337.58 207.02C337.58 207.95 333.49 211.69 333.49 211.69L336.64 213.94C336.64 213.94 334.66 232.82 313.18 224.41L313.16 224.43Z" fill="black"/>
</g>
<g style="mix-blend-mode:overlay">
<path d="M398.47 249.27C398.47 249.27 392 243.21 393.05 235.09C393.71 238.85 396.45 243.33 396.45 243.33L396.11 244.34L397.32 244.1C397.32 244.1 398.85 234.84 395.41 230.38C400.06 235.17 400.01 242.3 400.01 242.3L399.13 243.61L400.01 243.99C400.01 243.99 398.99 247.45 402.02 246.12C405.05 244.79 406.96 233.3 404.23 230.37C407.51 233.19 406.97 242.88 406.97 243.2C406.97 243.52 405.55 244.82 405.55 244.82L406.64 245.6C406.64 245.6 405.95 252.16 398.49 249.24L398.47 249.27Z" fill="black"/>
</g>
<path d="M373.73 240.36L368.47 240.73C372.26 237.32 371.7 234.06 371.13 232.56C370.93 232.02 370.72 231.71 370.72 231.71L373.2 231.31L371.81 229.42C371.81 229.42 376.31 224.22 378 210.37C383.32 219.7 381.24 228.09 378.44 233.61C376.3 237.83 373.73 240.37 373.73 240.37V240.36Z" fill="#FFCA51"/>
<g style="mix-blend-mode:overlay" opacity="0.25">
<path d="M378 210.37C378.57 212.93 378.88 215.55 379.02 218.18C379.15 220.8 379.09 223.44 378.76 226.06C378.4 228.67 377.77 231.24 376.8 233.71C375.77 236.15 374.32 238.4 372.54 240.38C372.45 240.48 372.31 240.48 372.21 240.4C372.11 240.31 372.11 240.17 372.19 240.07C373.96 238.16 375.41 235.97 376.46 233.58C377.45 231.17 378.12 228.63 378.51 226.04C378.87 223.45 378.97 220.82 378.88 218.2C378.77 215.58 378.51 212.96 377.98 210.39L378 210.37Z" fill="white"/>
</g>
<g style="mix-blend-mode:overlay" opacity="0.25">
<path d="M373.73 240.36L368.47 240.73C372.26 237.32 371.7 234.06 371.13 232.56C373.89 234.27 376.72 234.02 378.44 233.6C376.3 237.82 373.73 240.36 373.73 240.36Z" fill="black"/>
</g>
<path d="M408 250.31H322.74L336.4 239.22C336.4 239.22 354.59 229.86 362.18 231.81C369.77 233.76 368.56 240.14 368.56 240.14C368.56 240.14 369.02 239.63 369.79 239.03C371.48 237.72 374.68 235.93 377.92 237.87C382.54 240.62 381.81 244.26 381.78 244.43C381.93 244.28 384.7 241.59 386.95 242.45C389.26 243.33 390.16 245.87 390.16 245.87C390.16 245.87 393.11 241.73 395.65 243.25C398.18 244.77 399.61 247.86 399.61 247.86C399.61 247.86 403.69 243.84 407.98 250.31H408Z" fill="#1467B0"/>
<g style="mix-blend-mode:overlay" opacity="0.25">
<path d="M391.55 250.31H322.75L336.41 239.22C336.41 239.22 354.6 229.86 362.19 231.81C369.78 233.76 368.57 240.14 368.57 240.14C368.57 240.14 369.03 239.63 369.8 239.03C369.96 240.41 369.98 241.84 369.78 243.24C369.78 243.24 373.63 241.79 376.17 243.88C378.7 245.98 377.93 247.85 377.93 247.85C377.93 247.85 381.35 245.87 385.2 247.85C386.52 248.52 388.94 249.42 391.55 250.3V250.31Z" fill="black"/>
</g>
<path d="M237.03 190.3V96.73H201.48V97.05L158.7 165.87L139.98 195.99L142.09 217.72H201.47V250.31H237.02V217.72H252.63V190.3H237.02H237.03ZM201.48 190.3H173.85L199.27 146.63L201.49 143.05V190.3H201.48Z" fill="url(#paint6_linear_4507_2199)"/>
<path d="M360.85 109.5C351.5 98.18 338.31 92.52 321.3 92.52C304.29 92.52 291.12 98.15 281.8 109.4C272.48 120.65 267.82 136.65 267.82 157.39V185.45C267.82 206.05 272.5 222.01 281.85 233.34C291.2 244.66 304.42 250.32 321.51 250.32C338.6 250.32 351.59 244.7 360.91 233.44C370.23 222.19 374.89 206.19 374.89 185.45V157.5C374.89 136.83 370.21 120.83 360.86 109.51L360.85 109.5ZM303.47 150.53C303.68 140.26 305.18 132.6 307.95 127.54C310.73 122.47 315.18 119.94 321.29 119.94C327.4 119.94 332.12 122.67 335.01 128.12C337.89 133.57 339.33 141.81 339.33 152.85V190.82C339.26 201.86 337.79 209.96 334.9 215.13C332.02 220.3 327.55 222.89 321.5 222.89C315.45 222.89 310.67 220.23 307.79 214.93C305.07 209.92 303.63 202.18 303.48 191.7C303.48 191.07 303.47 190.43 303.47 189.78V150.54V150.53Z" fill="url(#paint7_linear_4507_2199)"/>
<path d="M487.22 190.3V96.73H451.68V97.05L390.19 195.98L392.3 217.71H451.68V250.3H487.22V217.71H502.83V190.29H487.22V190.3ZM451.68 190.3H424.04L449.46 146.63L451.68 143.05V190.3Z" fill="url(#paint8_linear_4507_2199)"/>
<g style="mix-blend-mode:overlay" opacity="0.25">
<path d="M230.41 96.73C225.65 102.81 209.34 100.64 205.68 101.03C201.51 101.47 172.62 152.36 168.65 158.82C166.08 163.01 161.56 164.99 158.7 165.87L201.48 97.05V96.73H230.41Z" fill="white"/>
</g>
<g style="mix-blend-mode:overlay" opacity="0.25">
<path d="M487.22 96.73V167.57C478.12 160.01 483.13 104.19 481.69 102.34C480.15 100.36 461.2 101.68 457.68 100.58C455.34 99.85 453.45 97.93 452.46 96.72H487.22V96.73Z" fill="white"/>
</g>
<g style="mix-blend-mode:overlay" opacity="0.25">
<path d="M328.8 231.67C300.16 232.99 303.47 191.71 303.47 191.71V191.69C303.64 202.17 305.07 209.92 307.79 214.92C310.67 220.23 315.24 222.88 321.5 222.88C327.76 222.88 332.01 220.29 334.9 215.12C337.78 209.95 339.26 201.85 339.33 190.81V152.84C339.33 141.8 337.89 133.56 335.01 128.11C332.12 122.66 327.55 119.93 321.29 119.93C321.29 119.93 339.02 117.77 346.24 143.98C353.47 170.19 357.43 230.34 328.79 231.66L328.8 231.67Z" fill="black"/>
</g>
<path d="M291.13 109.38C291.13 109.38 279.23 100.79 277.91 87.35C286.5 89.77 291.13 100.2 291.13 100.2C291.13 100.2 288.93 90.62 291.13 84.08C297.52 93.29 295.76 100.78 291.13 109.37V109.38Z" fill="url(#paint9_linear_4507_2199)"/>
<path d="M592.06 252.27C591.4 251.77 570.58 195.6 594.54 163.54C591.24 186.18 593.05 204.68 593.05 204.68L589.91 207.82L593.38 208.81C593.38 208.81 595.72 240.23 596.85 243.86C594.3 220.38 600.61 206.66 600.61 206.66C600.61 206.66 599.5 223.32 601.65 229.45L599.99 231.66L601.65 231.32C601.65 231.32 600.49 241.4 601.65 244.43C601.65 244.43 615.03 204.43 608.75 186.87C617.01 199.71 614.7 221.14 614.7 221.14L612.55 221.99L613.87 222.95C613.87 222.95 610.4 245.81 602.47 252.25" fill="#274C77"/>
<g style="mix-blend-mode:overlay">
<path d="M451.79 245.65C451.79 245.65 433.24 243.97 425.78 249.18C429.31 244.18 443.36 241.85 443.36 241.85L444.4 242.63V241.85C444.4 241.85 446.79 240.61 450.29 240.15C433.37 236.8 425.3 240.02 425.3 240.02C425.3 240.02 428.43 237.44 433.59 235.94C438.75 234.44 442 235.02 442 235.02L444.05 236.28V234.93L462.04 240.21" fill="black"/>
</g>
<path d="M523.22 246.65C523.22 246.65 521.24 234.09 531.48 225.39C531.37 235.52 528.53 244.23 523.22 246.65Z" stroke="#1F3247" stroke-width="0.93" stroke-miterlimit="10"/>
<path d="M454.18 238.38L452.16 243.25C450.8 238.34 447.63 237.39 446.03 237.23C445.46 237.17 445.08 237.22 445.08 237.22L445.83 234.82L443.52 235.22C443.52 235.22 440.87 228.87 429.22 221.19C439.94 220.58 446.53 226.18 450.22 231.15C453.04 234.95 454.17 238.38 454.17 238.38H454.18Z" fill="#FFCA51"/>
<g style="mix-blend-mode:overlay" opacity="0.25">
<path d="M429.23 221.2C431.78 221.83 434.26 222.73 436.67 223.76C439.08 224.81 441.41 226.05 443.61 227.5C445.79 228.98 447.81 230.7 449.58 232.66C451.31 234.67 452.68 236.97 453.65 239.44C453.7 239.56 453.64 239.69 453.52 239.74C453.4 239.79 453.27 239.73 453.22 239.61C452.3 237.17 450.99 234.89 449.32 232.89C447.6 230.93 445.62 229.2 443.48 227.69C441.32 226.21 439.01 224.95 436.63 223.86C434.24 222.79 431.77 221.86 429.23 221.19V221.2Z" fill="white"/>
</g>
<g style="mix-blend-mode:overlay" opacity="0.25">
<path d="M454.18 238.38L452.16 243.25C450.8 238.34 447.63 237.39 446.03 237.23C448.79 235.52 449.83 232.87 450.22 231.15C453.04 234.95 454.17 238.38 454.17 238.38H454.18Z" fill="black"/>
</g>
<path d="M531.48 215.04C512.31 230.79 507.36 238.62 507.36 238.62L503.94 237.13C503.94 237.13 503.94 237.24 503.94 237.42C503.96 238.27 504.02 240.75 503.94 241.58C503.87 242.29 497.03 245.97 493.14 248.01C491.58 248.83 490.5 249.38 490.5 249.38L487.3 246.18L487.62 245.55L489.28 242.31C489.28 242.31 493.65 236.01 501.13 229.46C508.57 222.93 519.1 216.14 531.46 215.04H531.48Z" fill="#FFADAE"/>
<g style="mix-blend-mode:overlay" opacity="0.25">
<path d="M489.24 248.18C491.84 244.39 494.71 240.81 497.74 237.38C500.79 233.96 504.01 230.69 507.48 227.7C510.94 224.7 514.65 221.97 518.65 219.73C522.64 217.49 526.96 215.79 531.48 215.04C526.97 215.83 522.66 217.56 518.7 219.83C514.73 222.1 511.06 224.85 507.63 227.87C504.19 230.88 501.01 234.17 498 237.61C495.01 241.06 492.17 244.66 489.63 248.44C489.56 248.55 489.41 248.58 489.31 248.51C489.2 248.44 489.18 248.29 489.25 248.19L489.24 248.18Z" fill="white"/>
</g>
<g style="mix-blend-mode:overlay" opacity="0.25">
<path d="M503.94 241.57C503.87 242.28 497.03 245.96 493.14 248C491.02 247.21 489.08 246.29 487.62 245.54L489.28 242.3C489.28 242.3 493.65 236 501.13 229.45C501.58 231.77 502.43 235 503.93 237.41C503.95 238.26 504.01 240.74 503.93 241.57H503.94Z" fill="black"/>
</g>
<path d="M519.42 204.68C505.7 216.09 499.43 225.63 496.84 230.5C495.65 232.73 495.24 233.98 495.24 233.98L492.26 232.88L493.47 235.63L489.11 244.44L487.2 248.3V232.94C487.78 231.81 488.59 230.33 489.62 228.63C491.54 225.44 494.24 221.5 497.68 217.71C499.24 215.99 500.95 214.31 502.82 212.75C507.45 208.86 513 205.73 519.41 204.68H519.42Z" fill="#F3475C"/>
<g style="mix-blend-mode:overlay" opacity="0.25">
<path d="M487 239.06C488.42 235.24 490.28 231.62 492.39 228.15C494.51 224.69 496.95 221.43 499.66 218.42C502.34 215.38 505.42 212.7 508.73 210.37L511.25 208.67L513.91 207.21C514.36 206.97 514.79 206.71 515.24 206.49L516.64 205.89L519.43 204.7L516.65 205.92L515.26 206.53C514.81 206.76 514.38 207.02 513.93 207.27L511.29 208.76L508.79 210.48C505.52 212.84 502.47 215.54 499.83 218.59C497.15 221.61 494.76 224.88 492.68 228.34C490.62 231.8 488.8 235.44 487.44 239.22C487.4 239.35 487.26 239.41 487.14 239.37C487.02 239.33 486.96 239.19 487 239.07V239.06Z" fill="white"/>
</g>
<g style="mix-blend-mode:overlay" opacity="0.25">
<path d="M495.24 233.98L492.26 232.88L493.47 235.63L489.11 244.44L487.2 244.72V232.95C487.78 231.82 488.59 230.34 489.62 228.64C490.98 229.75 493.37 231.05 496.83 230.51C495.64 232.74 495.23 233.99 495.23 233.99L495.24 233.98Z" fill="black"/>
</g>
<path d="M536.88 250.31H487.22V243.34C487.22 243.34 487.95 241.65 489.96 240.64C490.58 240.32 491.32 240.07 492.19 239.96C495.91 239.46 497.15 242.52 497.15 242.52C497.15 242.52 498.06 239.87 501.78 239.54C505.39 239.22 507.59 244.85 507.72 245.19C507.69 244.9 507.44 241.77 510.2 241.57C513.09 241.36 513.09 245.2 513.09 245.2C513.09 245.2 515.4 242.69 518.37 242.85C521.35 243.01 522 245.91 522 245.91C522 245.91 523.65 243.43 527.29 244.3C530.93 245.17 531.34 250.31 536.87 250.31H536.88Z" fill="#2279C5"/>
<g style="mix-blend-mode:overlay" opacity="0.25">
<path d="M521.37 250.31H487.22V243.34C487.22 243.34 487.95 241.65 489.96 240.64C491.45 240.75 494.07 241.23 495.17 243.25C496.74 246.15 496.85 248.87 496.85 248.87C496.85 248.87 500.18 244.09 502.84 244.91C505.5 245.73 506.9 248.87 506.9 248.87C506.9 248.87 509.7 245.9 512.06 246.89C513.25 247.39 517.47 248.91 521.38 250.3L521.37 250.31Z" fill="black"/>
</g>
<path d="M423.35 252.27C423.16 252.13 417.31 236.33 424.05 227.32C423.12 233.68 423.63 238.89 423.63 238.89L422.75 239.77L423.73 240.05C423.73 240.05 424.39 248.88 424.71 249.91C423.99 243.31 425.77 239.45 425.77 239.45C425.77 239.45 425.46 244.14 426.06 245.86L425.59 246.48L426.06 246.39C426.06 246.39 425.73 249.23 426.06 250.08C426.06 250.08 429.82 238.83 428.06 233.89C430.38 237.5 429.73 243.53 429.73 243.53L429.13 243.77L429.5 244.04C429.5 244.04 428.52 250.47 426.29 252.28" fill="#1467B0"/>
<g style="mix-blend-mode:overlay">
<path d="M196.64 247.13C196.64 247.13 167.38 227.39 150.24 229.22C160.67 224.14 186.13 233.11 186.13 233.11L187.14 235.36L187.86 234.07C187.86 234.07 192.95 234.2 199.19 236.63C174.16 215.62 157.81 213.58 157.81 213.58C157.81 213.58 165.35 212.16 175.31 214.38C185.27 216.6 190.11 220.54 190.11 220.54L192.37 224.51L193.62 222.27L218.64 247.47" fill="black"/>
</g>
<path d="M173.84 249.46C173.84 249.46 161.48 246.82 153.72 237.56C166.94 238.88 172.65 243.67 173.84 249.46Z" stroke="#1F3247" stroke-width="0.93" stroke-miterlimit="10"/>
<path d="M215.18 193.8C214.12 218.59 216.65 227.5 216.65 227.5L213.26 229.05C213.26 229.05 213.34 229.12 213.48 229.24C214.13 229.79 216.02 231.4 216.57 232.02C217.05 232.55 215.23 240.09 214.16 244.35C213.73 246.05 213.42 247.23 213.42 247.23L208.9 247.48L208.65 246.82L207.35 243.42C207.35 243.42 205.57 235.96 205.68 226.01C205.78 216.11 207.75 203.73 215.18 193.79V193.8Z" fill="#FFADAE"/>
<g style="mix-blend-mode:overlay" opacity="0.25">
<path d="M211.68 247.37C210.59 242.91 209.84 238.38 209.31 233.83C208.8 229.28 208.5 224.7 208.6 220.12C208.68 215.54 209.12 210.96 210.12 206.49C211.11 202.02 212.73 197.67 215.19 193.8C212.76 197.69 211.19 202.05 210.23 206.51C209.27 210.98 208.87 215.56 208.83 220.12C208.78 224.69 209.11 229.26 209.66 233.79C210.23 238.32 211.02 242.83 212.14 247.25C212.17 247.38 212.1 247.51 211.97 247.54C211.85 247.57 211.72 247.5 211.69 247.37H211.68Z" fill="white"/>
</g>
<g style="mix-blend-mode:overlay" opacity="0.25">
<path d="M216.57 232.02C217.05 232.55 215.23 240.09 214.16 244.35C212.15 245.4 210.18 246.23 208.65 246.82L207.35 243.42C207.35 243.42 205.57 235.96 205.68 226.01C207.71 227.22 210.68 228.75 213.48 229.23C214.13 229.78 216.02 231.39 216.57 232.01V232.02Z" fill="black"/>
</g>
<path d="M232.66 210.87C226.54 221.56 224.78 229.24 224.28 233.02C224.05 234.75 224.08 235.65 224.08 235.65H221.89L223.34 237.14L222.65 243.89L222.35 246.85L218.65 236.92C218.76 236.05 218.92 234.89 219.17 233.55C219.65 231.02 220.44 227.82 221.75 224.55C222.34 223.06 223.05 221.56 223.88 220.1C225.94 216.47 228.77 213.1 232.67 210.88L232.66 210.87Z" fill="#F3475C"/>
<g style="mix-blend-mode:overlay" opacity="0.25">
<path d="M219.9 240.92C219.9 238.09 220.24 235.31 220.77 232.55C221.31 229.8 222.11 227.1 223.15 224.5C224.16 221.89 225.51 219.41 227.09 217.11L228.31 215.41L229.68 213.82C229.91 213.56 230.13 213.29 230.37 213.03L231.13 212.31L232.65 210.87L231.15 212.33L230.4 213.06C230.17 213.32 229.95 213.59 229.72 213.86L228.37 215.46L227.17 217.18C225.63 219.5 224.32 221.98 223.35 224.59C222.35 227.19 221.6 229.88 221.1 232.62C220.61 235.35 220.32 238.15 220.35 240.91C220.35 241.05 220.25 241.16 220.12 241.16C219.99 241.16 219.89 241.06 219.89 240.93L219.9 240.92Z" fill="white"/>
</g>
<g style="mix-blend-mode:overlay" opacity="0.25">
<path d="M224.09 235.65H221.9L223.35 237.14L222.66 243.89L221.49 244.53L218.65 236.91C218.76 236.04 218.92 234.88 219.17 233.54C220.32 233.93 222.18 234.19 224.28 233.01C224.05 234.74 224.08 235.64 224.08 235.64L224.09 235.65Z" fill="black"/>
</g>
<path d="M253.68 250.23H241.26L187.28 250.29L171.24 250.31C171.24 250.31 172.56 245.99 178.84 244.01C185.12 242.03 186.93 246.13 186.93 246.13C186.93 246.13 186.59 237.92 194.04 235.09C201.48 232.27 204.78 241.69 204.78 241.69C204.78 241.69 206.26 237.05 214.19 236.65C222.12 236.25 221.3 242.44 221.3 242.44C221.3 242.44 225.76 237.42 233.86 238.57C241.95 239.71 242.78 246.13 242.78 246.13C242.78 246.13 249.88 244.06 253.68 250.23Z" fill="#1467B0"/>
<g style="mix-blend-mode:overlay" opacity="0.25">
<path d="M241.001 249.946L187.001 250C189.802 247.308 194.354 243.802 199.216 243.748C207.148 243.661 208.429 246.776 208.429 246.776C208.429 246.776 213.321 241.154 217.172 242.109C221.034 243.064 221.194 247.558 221.194 247.558C221.194 247.558 233.518 244.454 240.991 249.957L241.001 249.946Z" fill="black"/>
</g>
<path d="M262.6 253.68C262.6 253.68 253.62 237.8 256.32 222.37C258.96 234.42 265.41 242.44 265.41 242.44L262.77 244.53H265.41L271.03 255.24L263.42 253.68V254.41L262.6 253.68Z" fill="#2F1829"/>
</g>
<defs>
<linearGradient id="paint0_linear_4507_2199" x1="327.22" y1="249.71" x2="329.87" y2="46.15" gradientUnits="userSpaceOnUse">
<stop stop-color="#D5E9FB"/>
<stop offset="1" stop-color="#F2F9FF"/>
</linearGradient>
<linearGradient id="paint1_linear_4507_2199" x1="326.61" y1="147.14" x2="330.08" y2="241.31" gradientUnits="userSpaceOnUse">
<stop/>
<stop offset="1" stop-opacity="0"/>
</linearGradient>
<linearGradient id="paint2_linear_4507_2199" x1="343.98" y1="63.39" x2="344.64" y2="86.52" gradientUnits="userSpaceOnUse">
<stop stop-color="white"/>
<stop offset="1" stop-color="white" stop-opacity="0"/>
</linearGradient>
<linearGradient id="paint3_linear_4507_2199" x1="129.78" y1="25.36" x2="131.77" y2="76.25" gradientUnits="userSpaceOnUse">
<stop stop-color="white"/>
<stop offset="1" stop-color="white" stop-opacity="0"/>
</linearGradient>
<linearGradient id="paint4_linear_4507_2199" x1="455.43" y1="228.45" x2="433.63" y2="40.59" gradientUnits="userSpaceOnUse">
<stop stop-color="#B8D3ED"/>
<stop offset="1" stop-color="#D2E7FF"/>
</linearGradient>
<linearGradient id="paint5_linear_4507_2199" x1="59.7601" y1="429.71" x2="23.0001" y2="113.1" gradientUnits="userSpaceOnUse">
<stop stop-color="#B8D3ED"/>
<stop offset="1" stop-color="#D2E7FF"/>
</linearGradient>
<linearGradient id="paint6_linear_4507_2199" x1="196.99" y1="241.97" x2="195.67" y2="147.68" gradientUnits="userSpaceOnUse">
<stop stop-color="#274C77"/>
<stop offset="1" stop-color="#2279C5"/>
</linearGradient>
<linearGradient id="paint7_linear_4507_2199" x1="322.32" y1="240.21" x2="321" y2="145.92" gradientUnits="userSpaceOnUse">
<stop stop-color="#1A507E"/>
<stop offset="1" stop-color="#2279C5"/>
</linearGradient>
<linearGradient id="paint8_linear_4507_2199" x1="447.14" y1="238.46" x2="445.82" y2="144.18" gradientUnits="userSpaceOnUse">
<stop stop-color="#1A507E"/>
<stop offset="1" stop-color="#2279C5"/>
</linearGradient>
<linearGradient id="paint9_linear_4507_2199" x1="280.75" y1="72.63" x2="291.99" y2="108.32" gradientUnits="userSpaceOnUse">
<stop stop-color="#3A84C6"/>
<stop offset="1" stop-color="#1467B0"/>
</linearGradient>
<clipPath id="clip0_4507_2199">
<rect width="634.88" height="322.85" fill="white"/>
</clipPath>
</defs>
</svg>
