<svg width="511" height="467" viewBox="0 0 511 467" fill="none" xmlns="http://www.w3.org/2000/svg">
<g clip-path="url(#clip0_1959_111)">
<path d="M426.17 0C426.5 0 426.84 0 427.17 0C428.57 0.81 429.93 1.72 431.39 2.4C455.15 13.53 478.92 24.62 502.68 35.74C504.3 36.5 505.89 37.33 507.7 38.23C487.73 81.09 467.93 123.57 447.81 166.73H510.67V466.93C508.21 466.93 506.08 466.93 503.94 466.93C338.12 466.93 172.3 466.93 6.48 466.93C4.32 466.93 2.16 466.98 0 467C0 366.88 0 266.76 0 166.64C2.16 166.61 4.32 166.57 6.48 166.57C118.66 166.57 230.84 166.54 343.02 166.67C347.26 166.67 349.4 165.55 351.22 161.59C365.34 130.83 379.76 100.21 394.03 69.52C404.79 46.37 415.46 23.17 426.17 0ZM265.8 318.99C277.94 321.48 290.07 320.03 302.17 318.68C301.59 312.1 300.74 306.16 300.62 300.21C300.19 280.45 304.31 261.62 312.75 243.72C320.02 228.28 327.19 212.79 334.61 196.87H30.22V436.63H480.82V196.5C466.49 196.5 452.4 196.61 438.32 196.42C435 196.37 433.39 197.38 431.98 200.45C419.2 228.2 406.24 255.87 393.29 283.55C380.59 310.71 361.01 331.45 333 342.3C309.55 351.38 284.63 352.01 259.8 348.31M379.4 242.51C409.02 179 438.43 115.93 467.98 52.58C458.6 48.22 449.82 44.15 440.83 39.97C411.18 103.55 381.81 166.52 352.29 229.82C361.35 234.06 370.04 238.13 379.4 242.51ZM331.73 309.69C347.79 299.86 359.05 286.69 366.65 269.63C357.6 265.41 348.81 261.3 340.06 257.22C332.51 269.13 328.6 293.4 331.72 309.69H331.73Z" fill="#274C77"/>
<path d="M420.57 286.5H449.82V345.9H420.57V286.5Z" fill="#274C77"/>
<path d="M272.689 215.562C272.849 215.682 272.989 215.852 273.159 215.932C277.099 217.772 278.079 220.962 275.809 224.622C262.019 246.842 248.229 269.053 234.439 291.263C214.119 323.983 193.789 356.703 173.479 389.443C170.299 394.573 165.999 398.113 159.929 399.103C152.989 400.243 147.199 398.012 142.759 392.612C129.619 376.602 116.549 360.543 103.449 344.503C99.9095 340.163 96.2595 335.913 92.8595 331.473C87.8495 324.943 86.9995 317.743 90.7095 310.393C94.4195 303.043 100.729 299.472 108.959 299.612C113.829 299.702 118.029 301.682 121.629 304.962C132.699 315.042 143.779 325.113 154.849 335.203C158.319 338.363 160.449 338.273 163.509 334.812C197.919 295.943 232.329 257.063 266.769 218.223C267.709 217.163 269.019 216.442 270.159 215.562C270.999 215.562 271.839 215.562 272.679 215.562H272.689Z" fill="#274C77"/>
</g>
<defs>
<clipPath id="clip0_1959_111">
<rect width="510.67" height="467" fill="white"/>
</clipPath>
</defs>
</svg>
