<svg width="14" height="10" viewBox="0 0 14 10" fill="none" xmlns="http://www.w3.org/2000/svg">
<path d="M4.97535 7.562C5.06551 7.42535 5.10589 7.3352 5.17117 7.26992C7.35657 5.08076 9.54385 2.89395 11.7316 0.707138C12.134 0.304711 12.5975 0.247423 12.9887 0.546543C13.3662 0.835801 13.4535 1.36783 13.1826 1.75899C13.1211 1.84821 13.0431 1.9271 12.9661 2.00411C10.553 4.41866 8.13935 6.83228 5.72573 9.24543C5.20404 9.76713 4.72789 9.76901 4.20947 9.25106C3.14307 8.1856 2.07807 7.11825 1.01073 6.05372C0.804583 5.84852 0.65291 5.62265 0.660424 5.31696C0.669346 4.94693 0.834636 4.67317 1.17038 4.5168C1.50425 4.36137 1.82262 4.40598 2.11188 4.63326C2.18513 4.69102 2.24994 4.76004 2.31615 4.82578C3.13368 5.64285 3.95168 6.45991 4.76733 7.27932C4.82744 7.33989 4.87017 7.41737 4.97582 7.56153L4.97535 7.562Z" fill="#43A047"/>
</svg>
