<svg width="24" height="24" viewBox="0 0 24 24" fill="none" xmlns="http://www.w3.org/2000/svg">
<path d="M11.2477 0C11.7478 0 12.2475 0 12.7476 0C12.8142 0.0150264 12.8805 0.0356877 12.9485 0.0441401C13.3655 0.0972021 13.7881 0.122559 14.1995 0.203326C17.139 0.779026 19.5728 2.21874 21.4164 4.58071C23.6403 7.42915 24.4283 10.6688 23.7812 14.2187C23.2454 17.1573 21.7709 19.5757 19.4169 21.415C16.5694 23.6398 13.3294 24.4283 9.77938 23.7821C6.84077 23.2473 4.4389 21.7597 2.57844 19.4221C1.25471 17.7593 0.444218 15.866 0.134299 13.7614C0.0849931 13.4238 0.0446097 13.0852 0 12.7476C0 12.2475 0 11.7478 0 11.2477C0.0150264 11.1811 0.0347486 11.1149 0.0441401 11.0472C0.113168 10.5462 0.147916 10.0381 0.253571 9.54506C0.787948 7.04833 1.98443 4.91927 3.8632 3.18513C5.6659 1.52142 7.78556 0.507141 10.2114 0.137586C10.5556 0.0849932 10.9021 0.0455488 11.2477 0ZM22.21 12.0066C22.2212 6.38623 17.6391 1.79613 12.0066 1.78486C6.38623 1.77359 1.79613 6.3557 1.78486 11.9883C1.77359 17.6086 6.3557 22.1987 11.9883 22.21C17.6086 22.2212 22.1987 17.6391 22.21 12.0066Z" fill="#43A047"/>
<path d="M9.97535 14.562C10.0655 14.4254 10.1059 14.3352 10.1712 14.2699C12.3566 12.0808 14.5439 9.89395 16.7316 7.70714C17.134 7.30471 17.5975 7.24742 17.9887 7.54654C18.3662 7.8358 18.4535 8.36783 18.1826 8.75899C18.1211 8.84821 18.0431 8.9271 17.9661 9.00411C15.553 11.4187 13.1394 13.8323 10.7257 16.2454C10.204 16.7671 9.72789 16.769 9.20947 16.2511C8.14307 15.1856 7.07807 14.1183 6.01073 13.0537C5.80458 12.8485 5.65291 12.6227 5.66042 12.317C5.66935 11.9469 5.83464 11.6732 6.17038 11.5168C6.50425 11.3614 6.82262 11.406 7.11188 11.6333C7.18513 11.691 7.24994 11.76 7.31615 11.8258C8.13368 12.6428 8.95168 13.4599 9.76733 14.2793C9.82744 14.3399 9.87017 14.4174 9.97582 14.5615L9.97535 14.562Z" fill="#43A047"/>
</svg>
