<svg width="21" height="23" viewBox="0 0 21 23" fill="none" xmlns="http://www.w3.org/2000/svg">
<path d="M0.00111868 11.8358C0.00111868 9.00004 -0.00216886 6.1643 0.00252762 3.32903C0.00440622 2.02904 0.862455 0.993463 2.12346 0.757229C2.30616 0.722945 2.49636 0.717309 2.68328 0.716839C6.02671 0.714491 9.37015 0.714491 12.7136 0.715431C13.3077 0.715431 13.6703 1.01037 13.7064 1.5143C13.7402 1.98207 13.3899 2.38785 12.9202 2.42026C12.8192 2.4273 12.7173 2.42495 12.6159 2.42495C9.31144 2.42495 6.00746 2.42495 2.70301 2.42542C2.20659 2.42542 1.86938 2.63817 1.76042 3.03597C1.72191 3.17639 1.71956 3.32903 1.71956 3.4765C1.71722 5.98395 1.71769 8.49141 1.71769 10.9993C1.71769 14.0614 1.71769 17.1236 1.71816 20.1857C1.71816 20.3106 1.71816 20.4365 1.73365 20.56C1.77921 20.923 2.08025 21.2212 2.44329 21.2668C2.5438 21.2795 2.64571 21.2814 2.74716 21.2814C7.77005 21.2818 12.7929 21.2818 17.8158 21.2814C17.9173 21.2814 18.0192 21.2795 18.1197 21.2677C18.502 21.2227 18.8096 20.9075 18.8448 20.5238C18.8547 20.4153 18.8528 20.3054 18.8528 20.196C18.8528 17.4697 18.8491 14.7434 18.8608 12.0171C18.8617 11.7949 18.9247 11.546 19.0374 11.3567C19.2159 11.0576 19.5282 10.95 19.8724 11.0181C20.2139 11.0853 20.4449 11.2947 20.5346 11.6376C20.5619 11.7418 20.5727 11.8532 20.5727 11.9616C20.5746 14.7659 20.5783 17.5702 20.5727 20.3749C20.5699 21.6284 19.7832 22.6363 18.5941 22.9214C18.3766 22.9735 18.1465 22.9951 17.922 22.9951C12.8286 22.9993 7.73577 22.9998 2.64242 22.997C1.11513 22.996 0.00346692 21.8764 0.00205798 20.3421C-0.000290269 17.5063 0.00158833 14.6706 0.00158833 11.8353L0.00111868 11.8358Z" fill="#FFA800"/>
</svg>
