<svg width="24" height="24" viewBox="0 0 24 24" fill="none" xmlns="http://www.w3.org/2000/svg">
<path d="M23.9998 3.65622C23.9495 3.85911 23.9092 4.06481 23.8476 4.26394C23.6753 4.82001 23.3578 5.28496 22.9473 5.69496C19.2512 9.38687 15.5593 13.0825 11.8589 16.7707C11.6992 16.9299 11.4888 17.0661 11.2761 17.1389C9.65343 17.6931 8.02422 18.2275 6.39829 18.7705C6.08644 18.8747 5.78493 18.8926 5.50361 18.6925C5.16969 18.4549 5.07012 18.0777 5.22088 17.624C5.64122 16.3593 6.10805 15.1077 6.47109 13.8269C6.75804 12.8158 7.29391 12.0296 8.03971 11.2955C11.4306 7.96008 14.7825 4.58659 18.1376 1.21592C18.751 0.599742 19.4264 0.137137 20.3065 0.0263003C20.3201 0.0244217 20.3318 0.00892333 20.344 0C20.5939 0 20.8442 0 21.0941 0C21.1293 0.0140895 21.1631 0.034754 21.1997 0.0413291C22.5152 0.272866 23.3916 1.02524 23.8392 2.2778C23.9115 2.48069 23.9477 2.69625 24.0007 2.90619V3.65622H23.9998ZM7.36342 16.6298C7.43856 16.611 7.48271 16.603 7.52498 16.5889C8.53801 16.2503 9.55151 15.9136 10.5617 15.5675C10.666 15.5318 10.7632 15.4519 10.843 15.3721C14.4575 11.7614 18.0695 8.14841 21.6811 4.53493C21.7859 4.4302 21.8868 4.3203 21.977 4.20336C22.4518 3.58718 22.3509 2.63285 21.761 2.12563C21.0701 1.53153 20.1942 1.59211 19.4977 2.28813C15.8674 5.91617 12.2379 9.54467 8.61128 13.176C8.52157 13.2657 8.44549 13.385 8.40463 13.5048C8.1266 14.3158 7.85984 15.1312 7.58979 15.9451C7.517 16.1639 7.44467 16.3832 7.36295 16.6303L7.36342 16.6298Z" fill="#FFA800"/>
<path d="M0.00111868 12.8358C0.00111868 10 -0.00216887 7.1643 0.00252762 4.32903C0.00440622 3.02904 0.862455 1.99346 2.12346 1.75723C2.30616 1.72294 2.49636 1.71731 2.68328 1.71684C6.02671 1.71449 9.37015 1.71449 12.7136 1.71543C13.3077 1.71543 13.6703 2.01037 13.7064 2.5143C13.7402 2.98207 13.3899 3.38785 12.9202 3.42026C12.8192 3.4273 12.7173 3.42495 12.6159 3.42495C9.31144 3.42495 6.00746 3.42495 2.70301 3.42542C2.20659 3.42542 1.86938 3.63817 1.76042 4.03597C1.72191 4.17639 1.71956 4.32903 1.71956 4.4765C1.71722 6.98395 1.71769 9.49141 1.71769 11.9993C1.71769 15.0614 1.71769 18.1236 1.71816 21.1857C1.71816 21.3106 1.71816 21.4365 1.73365 21.56C1.77921 21.923 2.08025 22.2212 2.44329 22.2668C2.5438 22.2795 2.64571 22.2814 2.74716 22.2814C7.77005 22.2818 12.7929 22.2818 17.8158 22.2814C17.9173 22.2814 18.0192 22.2795 18.1197 22.2677C18.502 22.2227 18.8096 21.9075 18.8448 21.5238C18.8547 21.4153 18.8528 21.3054 18.8528 21.196C18.8528 18.4697 18.8491 15.7434 18.8608 13.0171C18.8618 12.7949 18.9247 12.546 19.0374 12.3567C19.2159 12.0576 19.5282 11.95 19.8724 12.0181C20.2139 12.0853 20.4449 12.2947 20.5346 12.6376C20.5619 12.7418 20.5727 12.8532 20.5727 12.9616C20.5746 15.7659 20.5783 18.5702 20.5727 21.3749C20.5699 22.6284 19.7832 23.6363 18.5941 23.9214C18.3766 23.9735 18.1465 23.9951 17.922 23.9951C12.8286 23.9993 7.73577 23.9998 2.64242 23.997C1.11513 23.996 0.00346692 22.8764 0.00205798 21.3421C-0.000290269 18.5063 0.00158833 15.6706 0.00158833 12.8353L0.00111868 12.8358Z" fill="#FFA800"/>
</svg>
