<svg width="20" height="27" viewBox="0 0 20 27" fill="none" xmlns="http://www.w3.org/2000/svg">
<path d="M18.5999 4.02958C17.5135 3.01887 16.4534 1.98159 15.3939 0.944915C14.735 0.300692 13.9513 -0.00240076 13.0147 1.43165e-05C9.724 0.0084671 6.4333 0.00182563 3.14259 0.00363694C1.28816 0.00484448 0.00109711 1.24559 0.00047019 3.03275C-0.00015673 10.0009 -0.00015673 16.969 0.00047019 23.9371C0.00047019 25.5184 0.876278 26.5786 2.48746 26.9529C2.48746 26.9529 2.48746 26.9529 2.48809 26.9529C2.57398 26.9753 2.65924 27 2.74826 27H16.5179C17.153 27 17.7843 26.8811 18.3636 26.6317C18.4915 26.5768 18.6156 26.5158 18.7335 26.4451C19.3842 26.0551 19.7547 25.4393 19.9321 24.7202C19.9321 24.7196 19.9321 24.719 19.9321 24.7184C19.9716 24.5572 19.9992 24.3941 19.9992 24.2287V6.21039C19.8368 5.30112 19.2638 4.64784 18.5993 4.02958H18.5999ZM14.0015 2.42959C15.1663 3.55199 16.323 4.66655 17.4784 5.78051C16.6239 5.78051 15.7437 5.80225 14.8654 5.77145C14.3964 5.75515 14.0153 5.33795 14.0065 4.8815C13.9902 4.06037 14.0015 3.23864 14.0015 2.42959ZM17.9993 8.06397C17.9993 13.3458 18 18.6281 17.9993 23.9099C17.9993 24.7135 17.6307 25.0716 16.8038 25.0716C12.263 25.0722 7.72224 25.0722 3.18146 25.0716C2.379 25.0716 2.00034 24.7045 1.99972 23.9268V3.07985C1.99972 2.30038 2.37775 1.93208 3.1777 1.93208C6.00009 1.93148 8.82249 1.93148 11.6455 1.93148H11.9997V4.61342C12.0003 6.50262 13.2611 7.7162 15.224 7.7168H17.9993V8.06397Z" fill="#274C77"/>
<path d="M11.4668 11.5766C10.0192 11.5766 8.57165 11.5778 7.12409 11.5766C6.4583 11.576 6.00378 11.1865 6.00002 10.6196C5.99626 10.0484 6.44827 9.64995 7.10904 9.64934C10.0355 9.64814 12.962 9.64814 15.8884 9.64934C16.5467 9.64934 17.0025 10.0515 16.9975 10.6208C16.9931 11.1877 16.5385 11.5766 15.8721 11.5772C14.4039 11.5784 12.935 11.5772 11.4668 11.5772V11.5766Z" fill="#274C77"/>
<path d="M11.5234 13.5007C12.9709 13.5007 14.4185 13.5001 15.8667 13.5007C16.5362 13.5007 16.9882 13.8847 16.9945 14.4528C17.0014 15.0343 16.5456 15.4279 15.8585 15.4279C12.9321 15.4285 10.005 15.4297 7.07851 15.4273C6.29486 15.4267 5.79458 14.7674 6.06729 14.1069C6.22402 13.7265 6.58262 13.5019 7.05531 13.5013C8.54488 13.4989 10.0338 13.5007 11.5234 13.5001V13.5007Z" fill="#274C77"/>
<path d="M11.4993 17.3601C12.9575 17.3601 14.4157 17.3595 15.8739 17.3601C16.5441 17.3601 16.9955 17.7435 17.0024 18.3122C17.0093 18.8936 16.5535 19.2873 15.8664 19.2879C12.9399 19.2885 10.0128 19.2897 7.08638 19.2873C6.3021 19.2867 5.80244 18.6274 6.07515 17.9669C6.23188 17.5865 6.59048 17.3619 7.06318 17.3607C8.54208 17.3583 10.021 17.3601 11.4999 17.3595L11.4993 17.3601Z" fill="#274C77"/>
<path d="M4.0459 9.64987C4.58505 9.67161 5.01888 10.1281 4.99694 10.6491C4.975 11.1744 4.51233 11.5898 3.96754 11.5741C3.41209 11.5578 2.97136 11.0953 3.00145 10.5591C3.03092 10.0357 3.49923 9.62753 4.0459 9.64927V9.64987Z" fill="#274C77"/>
<path d="M4.99718 14.46C4.99718 15.0058 4.52135 15.4508 3.9496 15.4236C3.44117 15.3995 3.02427 14.9961 3.00107 14.5065C2.97474 13.9558 3.43741 13.4988 4.00352 13.5C4.54455 13.5012 4.99718 13.9377 4.99656 14.46H4.99718Z" fill="#274C77"/>
<path d="M3.95159 19.2836C3.44379 19.2606 3.02626 18.8591 3.00118 18.3701C2.9736 17.8201 3.43313 17.3594 4.00174 17.3594C4.54278 17.3594 4.99604 17.7959 4.99667 18.3176C4.99729 18.8634 4.52272 19.3089 3.95096 19.283L3.95159 19.2836Z" fill="#274C77"/>
</svg>
