<?xml version="1.0" standalone="no"?>
<!DOCTYPE svg PUBLIC "-//W3C//DTD SVG 20010904//EN"
 "http://www.w3.org/TR/2001/REC-SVG-20010904/DTD/svg10.dtd">
<svg version="1.0" xmlns="http://www.w3.org/2000/svg"
 width="100.000000pt" height="100.000000pt" viewBox="0 0 100.000000 100.000000"
 preserveAspectRatio="xMidYMid meet">

<g transform="translate(0.000000,100.000000) scale(0.100000,-0.100000)"
fill="#000000" stroke="none">
<path d="M287 837 l-167 -162 0 -298 c0 -324 4 -347 56 -367 33 -13 615 -13
648 0 55 20 56 32 56 483 0 277 -4 425 -11 446 -19 54 -47 61 -241 61 l-173
-1 -168 -162z m533 103 c19 -19 20 -33 20 -440 0 -407 -1 -421 -20 -440 -19
-19 -33 -20 -320 -20 -287 0 -301 1 -320 20 -20 20 -20 31 -18 303 l3 282 138
5 c180 7 177 3 177 174 0 68 3 126 7 129 3 4 75 7 160 7 140 0 155 -2 173 -20z
m-391 -236 c-9 -11 -39 -14 -123 -14 l-111 1 120 114 120 114 3 -100 c2 -66
-1 -106 -9 -115z"/>
<path d="M270 500 l0 -40 40 0 40 0 0 40 0 40 -40 0 -40 0 0 -40z"/>
<path d="M400 500 c0 -19 7 -20 165 -20 158 0 165 1 165 20 0 19 -7 20 -165
20 -158 0 -165 -1 -165 -20z"/>
<path d="M274 366 c-3 -8 -4 -27 -2 -43 3 -25 7 -28 38 -28 34 0 35 1 38 43
l3 42 -36 0 c-21 0 -38 -6 -41 -14z"/>
<path d="M400 340 c0 -19 7 -20 165 -20 158 0 165 1 165 20 0 19 -7 20 -165
20 -158 0 -165 -1 -165 -20z"/>
<path d="M282 212 c-8 -6 -12 -23 -10 -43 3 -31 6 -34 41 -37 l38 -3 -3 43
c-3 38 -6 43 -28 46 -14 1 -31 -2 -38 -6z"/>
<path d="M400 170 c0 -19 7 -20 165 -20 158 0 165 1 165 20 0 19 -7 20 -165
20 -158 0 -165 -1 -165 -20z"/>
</g>
</svg>
