<svg width="260" height="284" viewBox="0 0 260 284" fill="none" xmlns="http://www.w3.org/2000/svg">
<g clip-path="url(#clip0_1959_91)">
<path d="M82.6629 220.28C70.613 220.255 58.5631 220.246 46.5132 220.28C42.4857 220.295 39.7745 223.546 39.756 228.209C39.7374 232.986 42.4486 236.162 46.6337 236.182C52.5937 236.207 58.5538 236.187 64.5139 236.187C70.5388 236.187 76.5638 236.287 82.5887 236.117C84.0625 236.077 85.6986 235.519 86.9406 234.537C89.244 232.721 90.0133 228.992 89.1699 225.745C88.2893 222.365 85.8886 220.285 82.6629 220.275V220.28Z" fill="#274C77"/>
<path d="M250.976 48.1539C238.051 34.4762 225.217 20.6888 212.468 6.82169C208.19 2.16938 203.301 -0.0296172 197.183 0.000301124C169.765 0.124961 142.347 0.0252331 114.928 0.0651242C100.95 0.0900562 90.2307 9.24009 87.3758 23.4413C87.1023 24.8026 86.8984 26.1789 86.6667 27.5451V55.818C67.2014 55.8379 47.7316 55.798 28.2617 55.828C14.2838 55.8479 3.56399 65.0029 0.709091 79.2042C0.435651 80.5655 0.231729 81.9367 0 83.308V256.465C0.481996 258.874 0.792513 261.342 1.47843 263.681C4.94973 275.454 14.8353 283.591 26.3708 283.861C36.5483 284.1 46.7351 283.955 56.9219 283.955C86.2403 283.965 115.559 283.975 144.877 283.95C158.289 283.935 168.87 275.598 172.175 262.489C172.675 260.514 172.953 258.475 173.333 256.465V228.203C192.738 228.208 212.139 228.208 231.544 228.188C244.956 228.178 255.537 219.84 258.841 206.731C259.342 204.757 259.62 202.717 260 200.708V63.871C259.124 57.2142 255.222 52.6516 250.976 48.1539ZM210.415 28.2781C218.039 36.4608 225.76 44.7482 233.472 53.0256C226.826 53.0256 219.902 53.0455 212.978 53.0156C211.3 53.0057 210.429 51.9386 210.424 50.1734C210.401 42.7486 210.415 35.3239 210.415 28.2781ZM158.382 253.199C158.382 262.683 153.432 268.029 144.65 268.034C105.965 268.039 67.2802 268.044 28.5954 268.034C19.9472 268.029 14.9512 262.659 14.9465 253.359C14.9419 197.731 14.9419 142.108 14.9465 86.4793C14.9465 77.1498 19.9241 71.7445 28.5305 71.7445C47.9077 71.7346 67.2895 71.7345 86.6667 71.7395V146.002C73.5554 146.002 60.4396 145.977 47.3237 146.022C42.9255 146.032 39.7693 149.423 39.7601 153.93C39.7462 158.428 42.907 161.899 47.2681 161.908C60.4025 161.928 73.5369 161.933 86.6667 161.923V183.195H68.5918C61.4128 183.2 54.2339 183.126 47.0595 183.235C42.0913 183.315 38.7775 188.032 39.9269 193.098C40.7797 196.838 43.8802 199.112 48.2321 199.117C61.0421 199.122 73.8521 199.122 86.6667 199.122V200.708C87.1487 203.116 87.4592 205.579 88.1451 207.918C91.6164 219.691 101.502 227.834 113.037 228.103C123.215 228.337 133.402 228.193 143.589 228.198C148.52 228.198 153.451 228.203 158.382 228.203C158.387 236.535 158.382 244.867 158.382 253.199ZM245.049 197.437C245.049 206.921 240.099 212.271 231.317 212.271C211.986 212.276 192.66 212.281 173.333 212.281C168.351 212.281 163.369 212.276 158.387 212.276C144.01 212.276 129.634 212.276 115.262 212.271C107.096 212.266 102.188 207.479 101.664 199.117C101.627 198.623 101.613 198.115 101.613 197.596V161.913C101.613 156.608 101.609 151.302 101.609 145.997C101.609 121.244 101.609 96.492 101.613 71.7395V30.7165C101.613 21.3919 106.591 15.9867 115.197 15.9817C141.142 15.9667 167.086 15.9767 193.03 15.9767H195.579C195.579 27.7246 195.533 39.0737 195.598 50.4227C195.644 59.3833 201.21 66.7033 209.344 68.5682C210.911 68.9272 212.565 68.9472 214.178 68.9521C223.521 68.987 232.865 68.9671 242.208 68.9671H244.928C244.975 70.0841 245.049 70.9617 245.049 71.8443C245.049 113.71 245.049 155.571 245.049 197.437Z" fill="#274C77"/>
<path d="M156.36 100.773C156.444 100.847 156.529 100.922 156.615 100.997C157.263 101.566 157.925 102.147 158.54 102.76L158.54 102.76C160.408 104.624 160.52 107.331 158.752 109.092L158.751 109.092C156.92 110.912 154.188 110.789 152.227 108.877C149.071 105.804 145.924 102.72 142.795 99.6205L142.795 99.6205C141.819 98.6533 141.295 97.5286 141.295 96.3664C141.295 95.2041 141.819 94.0795 142.795 93.1123L142.795 93.1122C145.955 89.9818 149.134 86.8696 152.324 83.7679L152.324 83.7679C154.189 81.9562 156.825 81.8484 158.644 83.5306C160.475 85.2236 160.473 87.9998 158.638 89.8685C158.004 90.5149 157.305 91.1171 156.624 91.7032C156.505 91.8063 156.385 91.9088 156.267 92.0109H156.27H156.273H156.275H156.278H156.28H156.283H156.286H156.288H156.291H156.294H156.296H156.299H156.301H156.304H156.307H156.309H156.312H156.315H156.317H156.32H156.322H156.325H156.328H156.33H156.333H156.335H156.338H156.341H156.343H156.346H156.349H156.351H156.354H156.356H156.359H156.362H156.364H156.367H156.37H156.372H156.375H156.377H156.38H156.383H156.385H156.388H156.391H156.393H156.396H156.398H156.401H156.404H156.406H156.409H156.412H156.414H156.417H156.419H156.422H156.425H156.427H156.43H156.433H156.435H156.438H156.44H156.443H156.446H156.448H156.451H156.453H156.456H156.459H156.461H156.464H156.467H156.469H156.472H156.474H156.477H156.48H156.482H156.485H156.488H156.49H156.493H156.495H156.498H156.501H156.503H156.506H156.509H156.511H156.514H156.516H156.519H156.522H156.524H156.527H156.53H156.532H156.535H156.537H156.54H156.543H156.545H156.548H156.551H156.553H156.556H156.558H156.561H156.564H156.566H156.569H156.571H156.574H156.577H156.579H156.582H156.585H156.587H156.59H156.592H156.595H156.598H156.6H156.603H156.606H156.608H156.611H156.613H156.616H156.619H156.621H156.624H156.627H156.629H156.632H156.634H156.637H156.64H156.642H156.645H156.648H156.65H156.653H156.655H156.658H156.661H156.663H156.666H156.668H156.671H156.674H156.676H156.679H156.682H156.684H156.687H156.689H156.692H156.695H156.697H156.7H156.703H156.705H156.708H156.71H156.713H156.716H156.718H156.721H156.724H156.726H156.729H156.731H156.734H156.737H156.739H156.742H156.745H156.747H156.75H156.752H156.755H156.758H156.76H156.763H156.766H156.768H156.771H156.773H156.776H156.779H156.781H156.784H156.786H156.789H156.792H156.794H156.797H156.8H156.802H156.805H156.807H156.81H156.813H156.815H156.818H156.821H156.823H156.826H156.828H156.831H156.834H156.836H156.839H156.842H156.844H156.847H156.849H156.852H156.855H156.857H156.86H156.863H156.865H156.868H156.87H156.873H156.876H156.878H156.881H156.884H156.886H156.889H156.891H156.894H156.897H156.899H156.902H156.904H156.907H156.91H156.912H156.915H156.918H156.92H156.923H156.925H156.928H156.931H156.933H156.936H156.939H156.941H156.944H156.946H156.949H156.952H156.954C158.585 92.0109 160.216 92.0093 161.848 92.0076C165.579 92.0038 169.311 92 173.043 92.0161C173.043 92.0161 173.043 92.0161 173.043 92.0161L173.041 92.5161C183.181 92.5572 191.127 99.1882 192.828 109.007C194.683 119.716 186.089 130.548 175.003 130.991C168.602 131.246 162.185 131.195 155.771 131.145C153.726 131.129 151.681 131.112 149.637 131.106C147.413 131.101 145.824 129.443 145.783 127.376L156.36 100.773ZM156.36 100.773C157.979 100.77 159.596 100.76 161.212 100.75C165.631 100.721 170.04 100.693 174.447 100.827L174.447 100.827C177.694 100.925 180.387 102.544 182.349 105.17C184.998 108.716 185.436 112.565 183.542 116.515C181.617 120.523 178.291 122.758 173.751 122.839C168.772 122.929 163.793 122.914 158.808 122.9C156.644 122.894 154.478 122.888 152.311 122.89C152.311 122.89 152.312 122.89 152.312 122.89L156.36 100.773ZM149.389 122.934C146.936 123.165 145.235 125.02 145.283 127.386L145.283 127.386C145.33 129.721 147.136 131.6 149.636 131.606L149.389 122.934Z" fill="#274C77" stroke="#274C77"/>
<path d="M165.604 185.723H165.4C162.806 185.723 160.211 185.723 157.616 185.723C149.835 185.724 142.053 185.725 134.271 185.718C131.78 185.717 129.916 184.325 129.557 182.08L129.557 182.08C129.157 179.587 130.907 177.32 133.439 177.028C133.667 177.001 133.897 177.001 134.094 177.002C134.113 177.002 134.132 177.002 134.151 177.002C140.104 177.002 146.056 177.001 152.009 177.001C166.896 177 181.784 176.999 196.67 177.004L165.604 185.723ZM165.604 185.723L165.607 185.72M165.604 185.723L165.607 185.72M165.607 185.72H165.64H165.699H165.758H165.818H165.877H165.936H165.995H166.055H166.114H166.173H166.233H166.292H166.351H166.41H166.47H166.529H166.588H166.647H166.707H166.766H166.825H166.884H166.944H167.003H167.062H167.122H167.181H167.24H167.299H167.359H167.418H167.477H167.536H167.596H167.655H167.714H167.773H167.833H167.892H167.951H168.01H168.07H168.129H168.188H168.248H168.307H168.366H168.425H168.485H168.544H168.603H168.662H168.722H168.781H168.84H168.899H168.959H169.018H169.077H169.137H169.196H169.255H169.314H169.374H169.433H169.492H169.551H169.611H169.67H169.729H169.788H169.848H169.907H169.966H170.025H170.085H170.144H170.203H170.263H170.322H170.381H170.44H170.5H170.559H170.618H170.677H170.737H170.796H170.855H170.914H170.974H171.033H171.092H171.152H171.211H171.27H171.329H171.389H171.448H171.507H171.566H171.626H171.685H171.744H171.803H171.863H171.922H171.981H172.04H172.1H172.159H172.218H172.278H172.337H172.396H172.455H172.515H172.574H172.633H172.692H172.752H172.811H172.87H172.929H172.989H173.048H173.107H173.167H173.226H173.285H173.344H173.404H173.463H173.522H173.581H173.641H173.7H173.759H173.818H173.878H173.937H173.996H174.056H174.115H174.174H174.233H174.293H174.352H174.411H174.47H174.53H174.589H174.648H174.707H174.767H174.826H174.885H174.944H175.004H175.063H175.122H175.182H175.241H175.3H175.359H175.419H175.478H175.537H175.596H175.656H175.715H175.774H175.833H175.893H175.952H176.011H176.071H176.13H176.189H176.248H176.308H176.367H176.426H176.485H176.545H176.604H176.663H176.722H176.782H176.841H176.9H176.959H177.019H177.078H177.137H177.197H177.256H177.315H177.374H177.434H177.493H177.552H177.611H177.671H177.73H177.789H177.848H177.908H177.967H178.026H178.086H178.145H178.204H178.263H178.323H178.382H178.441H178.5H178.56H178.619H178.678H178.737H178.797H178.856H178.915H178.974H179.034H179.093H179.152H179.212H179.271H179.33H179.389H179.449H179.508H179.567H179.626H179.686H179.745H179.804H179.863H179.923H179.982H180.041H180.101H180.16H180.219H180.278H180.338H180.397H180.456H180.515H180.575H180.634H180.693H180.752H180.812H180.871H180.93H180.989H181.049H181.108H181.167H181.227H181.286H181.345H181.404H181.464H181.523H181.582H181.641H181.701H181.76H181.819H181.878H181.938H181.997H182.056H182.116H182.175H182.234H182.293H182.353H182.412H182.471H182.53H182.59H182.649H182.708H182.767H182.827H182.886H182.945H183.005H183.064H183.123H183.182H183.242H183.301H183.36H183.419H183.479H183.538H183.597H183.656H183.716H183.775H183.834H183.893H183.953H184.012H184.071H184.131H184.19H184.249H184.308H184.368H184.427H184.486H184.545H184.605H184.664H184.723H184.782H184.842H184.901H184.96H185.02H185.079H185.138H185.197H185.257H185.316H185.375H185.434H185.494H185.553H185.612H185.671H185.731H185.79H185.849H185.908H185.968H186.027H186.086H186.146H186.205H186.264H186.323H186.383H186.442H186.501H186.56H186.62H186.679H186.738H186.797H186.857H186.916H186.975H187.035H187.094H187.153H187.212H187.272H187.331H187.39H187.449H187.509H187.568H187.627H187.686H187.746H187.805H187.864H187.923H187.983H188.042H188.101H188.161H188.22H188.279H188.338H188.398H188.457H188.516H188.575H188.635H188.694H188.753H188.812H188.872H188.931H188.99H189.05H189.109H189.168H189.227H189.287H189.346H189.405H189.464H189.524H189.583H189.642H189.701H189.761H189.82H189.879H189.938H189.998H190.057H190.116H190.176H190.235H190.294H190.353H190.413H190.472H190.531H190.59H190.65H190.709H190.768H190.827H190.887H190.946H191.005H191.065H191.124H191.183H191.242H191.302H191.361H191.42H191.479H191.539H191.598H191.657H191.716H191.776H191.835H191.894H191.953H192.013H192.072H192.131H192.191H192.25H192.309H192.368H192.428H192.487H192.546H192.605H192.665H192.724H192.783H192.842H192.902H192.961H193.02H193.08H193.139H193.198H193.257H193.317H193.376H193.435H193.494H193.554H193.613H193.672H193.731H193.791H193.85H193.909H193.969H194.028H194.087H194.146H194.206H194.265H194.324H194.383H194.443H194.502H194.561H194.62H194.68H194.739H194.798H194.857H194.917H194.976H195.035H195.095H195.154H195.213H195.272H195.332H195.391H195.45H195.509H195.569H195.628H195.687H195.746C195.843 185.72 195.941 185.721 196.04 185.721C196.421 185.723 196.82 185.725 197.215 185.701L197.215 185.701C199.833 185.546 201.71 183.292 201.331 180.725C200.999 178.468 199.13 177.004 196.67 177.004L165.607 185.72ZM130.05 182.001L130.05 182.001L130.05 182.001Z" fill="#274C77" stroke="#274C77"/>
<path d="M134.267 156.679H134.267C132.925 156.678 131.752 156.259 130.899 155.508C130.043 154.753 129.537 153.687 129.502 152.455L134.267 156.679ZM134.267 156.679C142.047 156.687 149.828 156.686 157.609 156.685C160.204 156.685 162.799 156.684 165.393 156.684H165.438H165.483H165.528H165.573H165.618H165.663H165.708H165.753H165.798H165.843H165.888H165.933H165.978H166.023H166.068H166.113H166.158H166.203H166.248H166.292H166.337H166.382H166.427H166.472H166.517H166.562H166.607H166.652H166.697H166.742H166.787H166.832H166.877H166.922H166.967H167.012H167.057H167.102H167.147H167.192H167.237H167.282H167.327H167.372H167.416H167.461H167.506H167.551H167.596H167.641H167.686H167.731H167.776H167.821H167.866H167.911H167.956H168.001H168.046H168.091H168.136H168.181H168.226H168.271H168.316H168.361H168.406H168.451H168.495H168.54H168.585H168.63H168.675H168.72H168.765H168.81H168.855H168.9H168.945H168.99H169.035H169.08H169.125H169.17H169.215H169.26H169.305H169.35H169.395H169.44H169.485H169.53H169.574H169.619H169.664H169.709H169.754H169.799H169.844H169.889H169.934H169.979H170.024H170.069H170.114H170.159H170.204H170.249H170.294H170.339H170.384H170.429H170.474H170.519H170.564H170.609H170.653H170.698H170.743H170.788H170.833H170.878H170.923H170.968H171.013H171.058H171.103H171.148H171.193H171.238H171.283H171.328H171.373H171.418H171.463H171.508H171.553H171.598H171.643H171.688H171.732H171.777H171.822H171.867H171.912H171.957H172.002H172.047H172.092H172.137H172.182H172.227H172.272H172.317H172.362H172.407H172.452H172.497H172.542H172.587H172.632H172.677H172.722H172.767H172.811H172.856H172.901H172.946H172.991H173.036H173.081H173.126H173.171H173.216H173.261H173.306H173.351H173.396H173.441H173.486H173.531H173.576H173.621H173.666H173.711H173.756H173.801H173.846H173.89H173.935H173.98H174.025H174.07H174.115H174.16H174.205H174.25H174.295H174.34H174.385H174.43H174.475H174.52H174.565H174.61H174.655H174.7H174.745H174.79H174.835H174.88H174.925H174.969H175.014H175.059H175.104H175.149H175.194H175.239H175.284H175.329H175.374H175.419H175.464H175.509H175.554H175.599H175.644H175.689H175.734H175.779H175.824H175.869H175.914H175.959H176.004H176.049H176.093H176.138H176.183H176.228H176.273H176.318H176.363H176.408H176.453H176.498H176.543H176.588H176.633H176.678H176.723H176.768H176.813H176.858H176.903H176.948H176.993H177.038H177.083H177.128H177.172H177.217H177.262H177.307H177.352H177.397H177.442H177.487H177.532H177.577H177.622H177.667H177.712H177.757H177.802H177.847H177.892H177.937H177.982H178.027H178.072H178.117H178.162H178.207H178.251H178.296H178.341H178.386H178.431H178.476H178.521H178.566H178.611H178.656H178.701H178.746H178.791H178.836H178.881H178.926H178.971H179.016H179.061H179.106H179.151H179.196H179.241H179.286H179.33H179.375H179.42H179.465H179.51H179.555H179.6H179.645H179.69H179.735H179.78H179.825H179.87H179.915H179.96H180.005H180.05H180.095H180.14H180.185H180.23H180.275H180.32H180.365H180.409H180.454H180.499H180.544H180.589H180.634H180.679H180.724H180.769H180.814H180.859H180.904H180.949H180.994H181.039H181.084H181.129H181.174H181.219H181.264H181.309H181.354H181.399H181.444H181.488H181.533H181.578H181.623H181.668H181.713H181.758H181.803H181.848H181.893H181.938H181.983H182.028H182.073H182.118H182.163H182.208H182.253H182.298H182.343H182.388H182.433H182.478H182.523H182.567H182.612H182.657H182.702H182.747H182.792H182.837H182.882H182.927H182.972H183.017H183.062H183.107H183.152H183.197H183.242H183.287H183.332H183.377H183.422H183.467H183.512H183.557H183.602H183.646H183.691H183.736H183.781H183.826H183.871H183.916H183.961H184.006H184.051H184.096H184.141H184.186H184.231H184.276H184.321H184.366H184.411H184.456H184.501H184.546H184.591H184.636H184.681H184.725H184.77H184.815H184.86H184.905H184.95H184.995H185.04H185.085H185.13H185.175H185.22H185.265H185.31H185.355H185.4H185.445H185.49H185.535H185.58H185.625H185.67H185.715H185.76H185.805H185.849H185.894H185.939H185.984H186.029H186.074H186.119H186.164H186.209H186.254H186.299H186.344H186.389H186.434H186.479H186.524H186.569H186.614H186.659H186.704H186.749H186.794H186.839H186.884H186.928H186.973H187.018H187.063H187.108H187.153H187.198H187.243H187.288H187.333H187.378H187.423H187.468H187.513H187.558H187.603H187.648H187.693H187.738H187.783H187.828H187.873H187.918H187.963H188.007H188.052H188.097H188.142H188.187H188.232H188.277H188.322H188.367H188.412C189.211 156.684 190.012 156.687 190.814 156.689C192.89 156.695 194.972 156.701 197.051 156.666M134.267 156.679L201.408 152.445M201.408 152.445L201.408 152.446C201.349 154.793 199.497 156.626 197.051 156.666M201.408 152.445C201.44 151.137 200.943 150.004 200.044 149.204C199.151 148.409 197.895 147.971 196.446 147.971C182.67 147.969 168.893 147.97 155.117 147.97C148.229 147.971 141.341 147.971 134.453 147.971C134.402 147.971 134.347 147.97 134.29 147.97C134.045 147.968 133.755 147.965 133.477 148M201.408 152.445L133.477 148M197.051 156.666L197.043 156.174L197.051 156.666C197.051 156.666 197.051 156.666 197.051 156.666ZM133.477 148C131.158 148.287 129.436 150.183 129.502 152.455L133.477 148Z" fill="#274C77" stroke="#274C77"/>
</g>
<defs>
<clipPath id="clip0_1959_91">
<rect width="260" height="284" fill="white"/>
</clipPath>
</defs>
</svg>
