<svg width="500" height="373" viewBox="0 0 500 373" fill="none" xmlns="http://www.w3.org/2000/svg">
<g clip-path="url(#clip0_4507_2296)">
<path d="M500 327.45H0V327.7H500V327.45Z" fill="#EBEBEB"/>
<path d="M237.01 282.85H43.91C40.76 282.85 38.2 280.29 38.2 277.14V5.71C38.2 2.56 40.76 0 43.91 0H237.01C240.16 0 242.72 2.56 242.72 5.71V277.14C242.72 280.29 240.16 282.85 237.01 282.85ZM43.91 0.25C40.9 0.25 38.45 2.7 38.45 5.71V277.14C38.45 280.15 40.9 282.6 43.91 282.6H237.01C240.02 282.6 242.47 280.15 242.47 277.14V5.71C242.47 2.7 240.02 0.25 237.01 0.25H43.91Z" fill="#EBEBEB"/>
<path d="M453.31 282.85H260.21C257.06 282.85 254.5 280.29 254.5 277.14V5.71C254.5 2.56 257.06 0 260.21 0H453.31C456.46 0 459.02 2.56 459.02 5.71V277.14C459.02 280.29 456.46 282.85 453.31 282.85ZM260.21 0.25C257.2 0.25 254.75 2.7 254.75 5.71V277.14C254.75 280.15 257.2 282.6 260.21 282.6H453.31C456.32 282.6 458.77 280.15 458.77 277.14V5.71C458.77 2.7 456.32 0.25 453.31 0.25H260.21Z" fill="#EBEBEB"/>
<path d="M77.28 336.97H51.28V337.22H77.28V336.97Z" fill="#EBEBEB"/>
<path d="M190.18 334.26H145.15V334.51H190.18V334.26Z" fill="#EBEBEB"/>
<path d="M139.07 346.26H78.28V346.51H139.07V346.26Z" fill="#EBEBEB"/>
<path d="M448.72 344.58H429.49V344.83H448.72V344.58Z" fill="#EBEBEB"/>
<path d="M420.58 344.58H365.29V344.83H420.58V344.58Z" fill="#EBEBEB"/>
<path d="M331.52 340.35H257.05V340.6H331.52V340.35Z" fill="#EBEBEB"/>
<path d="M190.83 160.49L178.18 327.45H300.16L312.81 160.49H190.83ZM267.54 278.5C266.51 292.12 254.63 303.16 241.01 303.16C227.39 303.16 217.19 292.12 218.22 278.5L222.67 219.8C223.7 206.18 235.58 195.13 249.2 195.13C256.01 195.13 261.97 197.89 266.09 202.36C270.21 206.82 272.5 212.99 271.99 219.8L267.54 278.5Z" fill="#E6E6E6"/>
<path d="M338.87 327.45H161.01L162.03 316.49H339.9L338.87 327.45Z" fill="#E6E6E6"/>
<path d="M407.22 265.45H422.97C423.87 265.45 424.57 264.71 424.52 263.81L424.46 262.69C424.41 261.79 423.64 261.05 422.74 261.05H406.99C406.09 261.05 405.39 261.79 405.44 262.69L405.5 263.81C405.55 264.71 406.32 265.45 407.22 265.45Z" fill="#E0E0E0"/>
<path d="M380.89 265.45H396.64C397.54 265.45 398.24 264.71 398.19 263.81L398.13 262.69C398.08 261.79 397.31 261.05 396.41 261.05H380.66C379.76 261.05 379.06 261.79 379.11 262.69L379.17 263.81C379.22 264.71 379.99 265.45 380.89 265.45Z" fill="#E0E0E0"/>
<path d="M435.23 264.22H67.6C63.36 264.22 59.7501 260.78 59.5401 256.54L48.4701 35.72C48.2601 31.48 51.52 28.04 55.76 28.04H423.39C427.63 28.04 431.24 31.48 431.45 35.72L442.52 256.54C442.73 260.78 439.47 264.22 435.23 264.22Z" fill="#E0E0E0"/>
<path d="M439.73 264.22H72.1101C67.8701 264.22 64.2601 260.78 64.0501 256.54L52.9801 35.72C52.7701 31.48 56.0301 28.04 60.2701 28.04H427.89C432.13 28.04 435.74 31.48 435.95 35.72L447.02 256.54C447.23 260.78 443.97 264.22 439.73 264.22Z" fill="#E6E6E6"/>
<path d="M74.26 248.81L63.96 43.4501C63.83 40.7901 65.87 38.6401 68.53 38.6401H420.69C423.35 38.6401 425.61 40.7901 425.74 43.4501L436.03 248.8C436.16 251.46 434.12 253.61 431.46 253.61H79.31C76.65 253.61 74.39 251.46 74.26 248.8V248.81Z" fill="#F5F5F5"/>
<path d="M85.6602 49.1501C85.7802 51.5001 83.9702 53.4101 81.6202 53.4101C79.2702 53.4101 77.2702 51.5001 77.1502 49.1501C77.0302 46.8001 78.8402 44.8901 81.1902 44.8901C83.5402 44.8901 85.5402 46.8001 85.6602 49.1501Z" fill="white"/>
<path d="M104.93 49.1501C105.05 51.5001 103.24 53.4101 100.89 53.4101C98.5399 53.4101 96.5399 51.5001 96.4199 49.1501C96.2999 46.8001 98.1099 44.8901 100.46 44.8901C102.81 44.8901 104.81 46.8001 104.93 49.1501Z" fill="white"/>
<path d="M124.21 49.1501C124.33 51.5001 122.52 53.4101 120.17 53.4101C117.82 53.4101 115.82 51.5001 115.7 49.1501C115.58 46.8001 117.39 44.8901 119.74 44.8901C122.09 44.8901 124.09 46.8001 124.21 49.1501Z" fill="white"/>
<g opacity="0.6">
<path d="M110.88 253.62H161.63L208.03 38.6401H157.28L110.88 253.62Z" fill="white"/>
<path d="M329.28 253.62H342.13L388.53 38.6401H375.68L329.28 253.62Z" fill="white"/>
<path d="M172.91 253.62H244.91L291.31 38.6401H219.31L172.91 253.62Z" fill="white"/>
</g>
<path d="M250 372.61C357.083 372.61 443.89 367.542 443.89 361.29C443.89 355.038 357.083 349.97 250 349.97C142.918 349.97 56.1101 355.038 56.1101 361.29C56.1101 367.542 142.918 372.61 250 372.61Z" fill="#F5F5F5"/>
<path d="M360.6 208.1C360.48 208.1 360.36 208.1 360.24 208.09C333.61 205.91 315.27 183.14 314.5 182.17C312.97 180.24 313.29 177.43 315.22 175.89C317.15 174.36 319.96 174.68 321.49 176.61C321.7 176.88 337.39 196.22 359.12 198.98C366.17 191.99 372.1 173.5 371.45 167.9C371.45 167.85 371.44 167.8 371.44 167.74C371.29 165.94 370.96 159.78 372.73 156.1C373.8 153.88 376.47 152.94 378.69 154.01C380.91 155.08 381.85 157.75 380.78 159.97C380.34 160.89 380.13 164.21 380.34 166.96C381.33 176.16 373.36 199.38 363.34 207.15C362.55 207.76 361.59 208.09 360.6 208.09V208.1Z" fill="#263238"/>
<path d="M148.82 183.87C140.89 183.87 118.44 181.92 100.26 161.59C98.8501 160.01 98.7401 157.65 100 155.95C107.22 146.24 119.96 123.31 121.95 115.84C121.13 114.42 119.65 112.38 117.81 111.51C116.39 110.84 115.42 109.47 115.26 107.91L114.54 100.59C114.3 98.13 116.09 95.95 118.55 95.71C121 95.47 123.19 97.26 123.43 99.72L123.93 104.81C128.29 107.94 130.47 112.82 130.74 113.45C131.04 114.16 131.15 114.94 131.07 115.71C130.15 123.65 117.28 146.61 109.36 158.22C127.85 176.65 149.95 174.97 150.92 174.88C153.36 174.68 155.54 176.48 155.76 178.93C155.98 181.38 154.18 183.55 151.73 183.78C151.52 183.8 150.5 183.89 148.83 183.89L148.82 183.87Z" fill="#263238"/>
<path d="M292.87 361.14H280.9C279.5 361.14 278.19 360.49 277.34 359.38C276.5 358.27 276.22 356.83 276.59 355.48C279.72 344.24 281.25 335.1 282.41 320.77C278.17 300.82 274.18 282.56 274.14 282.37C273.61 279.96 275.14 277.58 277.55 277.05C279.96 276.52 282.34 278.05 282.87 280.46C282.91 280.65 286.99 299.32 291.29 319.54C291.38 319.96 291.41 320.39 291.37 320.82C290.36 333.68 289.06 342.57 286.69 352.2H292.87C295.34 352.2 297.34 354.2 297.34 356.67C297.34 359.14 295.34 361.14 292.87 361.14Z" fill="#263238"/>
<path d="M200.32 361.14H193.56C192.27 361.14 191.04 360.58 190.19 359.6C189.34 358.63 188.96 357.33 189.14 356.05C190.29 347.85 196.18 332.92 202.44 317.91C204.67 298.11 206.5 281.11 206.52 280.94C206.78 278.49 208.98 276.7 211.44 276.98C213.89 277.24 215.67 279.44 215.4 281.9C215.38 282.07 213.51 299.46 211.25 319.55C211.2 319.97 211.1 320.38 210.93 320.77C206.49 331.4 201.44 343.92 199.13 352.21H200.33C202.8 352.21 204.8 354.21 204.8 356.68C204.8 359.15 202.8 361.15 200.33 361.15L200.32 361.14Z" fill="#263238"/>
<path d="M204.21 56.03L152.14 108.1C149.52 165.81 149.74 226.43 152.14 289.29H324.3C320.89 208.18 320.57 130.11 324.3 56.04H204.2L204.21 56.03Z" fill="white"/>
<path d="M324.31 290.17H152.15C151.67 290.17 151.28 289.79 151.26 289.31C148.76 224.05 148.76 163.06 151.26 108.05C151.27 107.83 151.36 107.62 151.52 107.46L203.59 55.3901C203.76 55.2201 203.98 55.1301 204.22 55.1301H324.32C324.56 55.1301 324.8 55.2301 324.97 55.4101C325.14 55.5901 325.23 55.8301 325.22 56.0701C321.63 127.41 321.63 203.69 325.22 289.24C325.23 289.48 325.14 289.72 324.97 289.9C324.8 290.07 324.57 290.17 324.33 290.17H324.31ZM153.01 288.38H323.38C319.84 203.52 319.84 127.79 323.38 56.9101H204.59L153.03 108.47C150.56 163.1 150.56 223.62 153.01 288.38Z" fill="#263238"/>
<path d="M293.44 264.51H274.66C274.29 264.51 273.99 264.21 273.99 263.84C273.99 263.47 274.29 263.17 274.66 263.17H293.44C293.81 263.17 294.11 263.47 294.11 263.84C294.11 264.21 293.81 264.51 293.44 264.51Z" fill="#F3475C"/>
<path d="M266.88 264.51H183.01C182.64 264.51 182.34 264.21 182.34 263.84C182.34 263.47 182.64 263.17 183.01 263.17H266.88C267.25 263.17 267.55 263.47 267.55 263.84C267.55 264.21 267.25 264.51 266.88 264.51Z" fill="#F3475C"/>
<path d="M214.28 164.23C214.08 159.88 211.61 156.43 208.75 156.53C205.89 156.63 203.74 160.25 203.93 164.6C204.13 168.95 206.6 172.4 209.46 172.3C212.32 172.2 214.47 168.58 214.28 164.23Z" fill="#274C77"/>
<path d="M274.65 162.87C274.45 158.52 271.98 155.07 269.12 155.17C266.26 155.27 264.11 158.89 264.3 163.24C264.5 167.59 266.97 171.04 269.83 170.94C272.69 170.84 274.84 167.22 274.65 162.87Z" fill="#274C77"/>
<path d="M229.35 182.08C245.18 176.43 257.41 183.07 257.98 183.38C258.6 183.73 258.82 184.5 258.47 185.12C258.12 185.73 257.34 185.95 256.72 185.61C256.58 185.53 242.33 177.85 225.31 186.62C224.68 186.94 223.9 186.7 223.57 186.08C223.24 185.45 223.48 184.68 224.11 184.36C225.89 183.44 227.64 182.69 229.34 182.08H229.35Z" fill="#274C77"/>
<path d="M205.64 123.39C206.07 123.4 206.5 123.52 206.9 123.75C208.13 124.47 208.54 126.04 207.82 127.26C200.63 139.41 188.78 140.01 188.28 140.03C186.86 140.09 185.66 138.99 185.59 137.58C185.52 136.17 186.61 134.99 188.02 134.93C188.41 134.91 197.64 134.34 203.38 124.65C203.87 123.83 204.75 123.38 205.64 123.4V123.39Z" fill="#274C77"/>
<path d="M266.05 121.92C266.87 121.76 267.75 122 268.38 122.63C276.41 130.66 285.52 129.02 285.9 128.95C287.29 128.68 288.65 129.58 288.93 130.96C289.21 132.34 288.33 133.68 286.95 133.96C286.45 134.05 274.8 136.28 264.74 126.22C263.74 125.22 263.74 123.6 264.74 122.61C265.11 122.24 265.57 122.01 266.05 121.92Z" fill="#274C77"/>
<path opacity="0.2" d="M321.72 149.91L314.42 150.6C311.8 150.85 309.41 149.11 308.84 146.54L298.71 101.16C298.1 98.4201 299.76 95.6901 302.48 94.9701L322.07 89.8301L321.72 149.91Z" fill="black"/>
<path opacity="0.2" d="M209.02 112.74C203.93 98.84 198.84 76.61 204.22 56.03L152.15 108.1C166.86 113.02 190.32 115.17 209.02 112.75V112.74Z" fill="black"/>
<path d="M204.21 108.09C198.5 91.23 200.83 68.31 204.21 56.02L152.14 108.09C167.9 110.96 185.51 110.51 204.21 108.09Z" fill="white"/>
<path d="M175.96 110.97C167.27 110.97 159.32 110.3 151.99 108.97C151.66 108.91 151.4 108.68 151.3 108.36C151.2 108.04 151.29 107.7 151.52 107.46L203.59 55.39C203.88 55.1 204.32 55.05 204.67 55.25C205.02 55.45 205.19 55.87 205.08 56.26C201.93 67.7 199.33 90.87 205.06 107.8C205.15 108.05 205.11 108.33 204.97 108.56C204.83 108.79 204.59 108.94 204.33 108.97C194.05 110.3 184.64 110.96 175.96 110.96V110.97ZM154 107.51C167.83 109.8 183.9 109.75 203.03 107.35C198.32 92.42 199.39 72.65 202.56 58.95L154 107.51Z" fill="#263238"/>
</g>
<defs>
<clipPath id="clip0_4507_2296">
<rect width="500" height="372.61" fill="white"/>
</clipPath>
</defs>
</svg>
