<svg width="21" height="23" viewBox="0 0 21 23" fill="none" xmlns="http://www.w3.org/2000/svg">
<path d="M8.11364 3.83333H12.8864C12.8864 3.19792 12.6349 2.58853 12.1874 2.13922C11.7399 1.68992 11.1329 1.4375 10.5 1.4375C9.8671 1.4375 9.26012 1.68992 8.81259 2.13922C8.36506 2.58853 8.11364 3.19792 8.11364 3.83333ZM6.68182 3.83333C6.68182 2.81667 7.08409 1.84165 7.80014 1.12276C8.51619 0.403868 9.48736 0 10.5 0C11.5126 0 12.4838 0.403868 13.1999 1.12276C13.9159 1.84165 14.3182 2.81667 14.3182 3.83333H20.2841C20.474 3.83333 20.6561 3.90906 20.7903 4.04385C20.9246 4.17864 21 4.36146 21 4.55208C21 4.74271 20.9246 4.92552 20.7903 5.06032C20.6561 5.19511 20.474 5.27083 20.2841 5.27083H19.0336L17.872 19.2654C17.7874 20.2834 17.3249 21.2324 16.5762 21.9242C15.8274 22.6159 14.847 22.9999 13.8295 23H7.17055C6.15299 22.9999 5.17262 22.6159 4.42384 21.9242C3.67507 21.2324 3.21256 20.2834 3.12805 19.2654L1.96636 5.27083H0.715909C0.526038 5.27083 0.343944 5.19511 0.209685 5.06032C0.0754258 4.92552 0 4.74271 0 4.55208C0 4.36146 0.0754258 4.17864 0.209685 4.04385C0.343944 3.90906 0.526038 3.83333 0.715909 3.83333H6.68182ZM4.55509 19.1456C4.60968 19.8044 4.90887 20.4185 5.39332 20.8661C5.87778 21.3138 6.51211 21.5624 7.17055 21.5625H13.8295C14.4879 21.5624 15.1222 21.3138 15.6067 20.8661C16.0911 20.4185 16.3903 19.8044 16.4449 19.1456L17.598 5.27083H3.40295L4.55509 19.1456ZM8.35227 8.625C8.54214 8.625 8.72424 8.70073 8.8585 8.83552C8.99275 8.97031 9.06818 9.15313 9.06818 9.34375V17.4896C9.06818 17.6802 8.99275 17.863 8.8585 17.9978C8.72424 18.1326 8.54214 18.2083 8.35227 18.2083C8.1624 18.2083 7.98031 18.1326 7.84605 17.9978C7.71179 17.863 7.63636 17.6802 7.63636 17.4896V9.34375C7.63636 9.15313 7.71179 8.97031 7.84605 8.83552C7.98031 8.70073 8.1624 8.625 8.35227 8.625ZM13.3636 9.34375C13.3636 9.15313 13.2882 8.97031 13.154 8.83552C13.0197 8.70073 12.8376 8.625 12.6477 8.625C12.4579 8.625 12.2758 8.70073 12.1415 8.83552C12.0072 8.97031 11.9318 9.15313 11.9318 9.34375V17.4896C11.9318 17.6802 12.0072 17.863 12.1415 17.9978C12.2758 18.1326 12.4579 18.2083 12.6477 18.2083C12.8376 18.2083 13.0197 18.1326 13.154 17.9978C13.2882 17.863 13.3636 17.6802 13.3636 17.4896V9.34375Z" fill="white"/>
</svg>
