<?xml version="1.0" standalone="no"?>
<!DOCTYPE svg PUBLIC "-//W3C//DTD SVG 20010904//EN"
 "http://www.w3.org/TR/2001/REC-SVG-20010904/DTD/svg10.dtd">
<svg version="1.0" xmlns="http://www.w3.org/2000/svg"
 width="162.000000pt" height="191.000000pt" viewBox="0 0 162.000000 191.000000"
 preserveAspectRatio="xMidYMid meet">

<g transform="translate(0.000000,191.000000) scale(0.100000,-0.100000)"
fill="#000000" stroke="none">
<path d="M340 1078 c-12 -35 -40 -93 -61 -130 -44 -75 -74 -88 -103 -46 -11
15 -16 17 -16 8 0 -23 13 -38 39 -48 l23 -8 -32 -32 c-46 -47 -78 -52 -108
-17 -24 28 -24 28 -20 4 4 -29 49 -53 81 -43 21 6 102 80 203 183 24 25 45 43
47 40 2 -2 11 -38 20 -79 19 -78 53 -167 63 -158 3 3 -2 22 -10 41 -9 22 -11
37 -5 39 6 2 14 37 20 78 9 77 29 120 29 63 0 -87 28 -126 60 -83 l17 23 6
-22 c7 -29 41 -27 64 5 15 20 25 25 41 20 19 -6 20 -12 15 -55 -5 -47 15 -111
36 -111 5 0 0 17 -10 37 -23 46 -16 99 17 125 12 10 24 28 26 39 4 29 102 87
160 95 l46 6 -24 -49 c-40 -80 -14 -104 67 -62 23 11 42 19 44 17 9 -10 -44
-115 -78 -154 -22 -25 -37 -48 -33 -51 10 -10 71 65 96 117 18 39 28 49 41 45
20 -7 53 8 86 37 17 16 25 18 41 9 27 -14 352 -15 352 -1 0 6 -62 10 -165 10
-107 0 -172 4 -184 11 -14 10 -25 7 -57 -15 -67 -45 -73 -40 -71 64 1 50 -3
94 -9 100 -7 7 -9 -9 -6 -51 l5 -62 -23 21 c-29 27 -94 37 -146 23 -51 -14
-124 -62 -164 -108 -29 -33 -34 -35 -58 -23 -24 10 -29 9 -49 -14 -12 -14 -26
-26 -31 -26 -12 0 -22 24 -22 51 0 31 -20 22 -36 -18 -18 -43 -34 -31 -34 27
-1 77 -28 107 -48 53 -9 -24 -11 -18 -11 40 -1 76 -14 86 -46 34 l-20 -32 -3
48 c-2 38 -7 47 -21 47 -13 0 -24 -17 -41 -62z m44 -10 c7 -46 6 -49 -40 -98
-26 -28 -49 -49 -51 -47 -2 2 7 24 21 48 13 24 32 68 42 96 10 29 19 52 20 50
1 -1 5 -23 8 -49z m57 -171 c-5 -5 -13 11 -20 43 -14 67 -14 73 7 109 l17 31
3 -87 c2 -47 -1 -90 -7 -96z m607 112 c7 -11 10 -25 6 -30 -11 -18 -76 -41
-86 -31 -11 11 4 52 26 75 19 19 36 15 54 -14z"/>
<path d="M676 1128 c19 -35 50 -58 73 -57 23 2 24 2 4 6 -12 2 -33 18 -47 34
-25 29 -43 39 -30 17z"/>
<path d="M1470 1045 c7 -8 16 -15 21 -15 5 0 9 7 9 15 0 9 -9 15 -21 15 -18 0
-19 -2 -9 -15z"/>
</g>
</svg>
