<?xml version="1.0" standalone="no"?>
<!DOCTYPE svg PUBLIC "-//W3C//DTD SVG 20010904//EN"
 "http://www.w3.org/TR/2001/REC-SVG-20010904/DTD/svg10.dtd">
<svg version="1.0" xmlns="http://www.w3.org/2000/svg"
 width="163.000000pt" height="183.000000pt" viewBox="0 0 163.000000 183.000000"
 preserveAspectRatio="xMidYMid meet">

<g transform="translate(0.000000,183.000000) scale(0.100000,-0.100000)"
fill="#000000" stroke="none">
<path d="M1055 997 c-9 -72 -15 -81 -47 -67 -21 10 -32 8 -65 -9 -41 -20 -103
-75 -103 -90 0 -7 -119 -41 -142 -41 -3 0 -8 8 -11 18 -3 14 -6 12 -15 -10
-13 -31 -32 -45 -32 -24 0 20 -19 21 -26 1 -5 -11 -10 -12 -26 -4 -12 6 -38 9
-59 6 -23 -3 -39 -1 -39 5 0 6 -7 7 -15 4 -11 -4 -15 0 -13 11 2 13 -7 19 -34
23 -20 4 -44 12 -52 19 -9 7 -39 16 -68 20 l-53 6 38 24 c40 25 66 65 59 94
-5 22 -52 47 -90 47 -82 0 -193 -64 -227 -131 -8 -15 -15 -50 -15 -78 0 -81
56 -129 170 -145 48 -6 32 1 -48 23 -23 7 -58 26 -77 42 -30 27 -35 37 -35 76
0 55 17 89 69 136 86 78 241 86 241 13 0 -29 -32 -58 -111 -102 -38 -21 -53
-33 -36 -30 71 16 117 17 152 6 42 -14 38 -20 -24 -44 -63 -24 -101 -54 -101
-78 0 -18 4 -19 36 -14 43 9 130 61 145 87 15 28 51 25 47 -3 -2 -17 2 -22 14
-20 9 1 19 -2 22 -7 4 -6 18 -5 37 2 25 10 35 9 59 -5 20 -11 32 -13 36 -6 4
7 10 5 15 -3 8 -11 13 -10 28 8 10 12 20 20 23 18 2 -2 26 2 53 10 76 24 90
21 101 -22 14 -56 52 -78 132 -78 37 0 70 -4 74 -10 5 -6 8 -6 8 2 0 6 13 14
29 18 17 3 47 19 68 34 46 33 108 45 224 42 47 -1 114 3 149 9 58 10 65 10 77
-6 11 -16 13 -16 13 -2 0 25 -27 29 -110 18 -104 -13 -120 -13 -120 5 0 9 -9
15 -25 15 -14 0 -25 -4 -25 -8 0 -7 -99 -32 -126 -32 -6 0 -10 23 -10 51 1 44
-3 54 -27 75 -20 17 -40 24 -69 24 l-40 0 7 65 c8 78 -1 88 -10 12z m-55 -71
c0 -2 -7 -7 -16 -10 -8 -3 -12 -2 -9 4 6 10 25 14 25 6z m36 -121 l-1 -104
-42 -7 c-70 -10 -138 23 -143 71 -5 50 11 57 63 30 21 -10 27 -11 25 -2 -3 6
-23 17 -46 22 -41 10 -42 11 -27 33 20 27 49 44 95 53 81 16 77 21 76 -96z
m118 83 c14 -13 27 -34 28 -48 3 -23 -1 -25 -52 -31 -30 -4 -64 -10 -74 -15
-17 -7 -19 -4 -13 26 4 18 7 45 7 61 0 27 3 29 39 29 27 0 48 -7 65 -22z
m-774 -103 c-29 -35 -150 -89 -150 -67 0 17 39 44 96 67 62 25 75 25 54 0z
m800 6 c0 -21 -47 -63 -85 -76 -40 -13 -40 -13 -47 13 -5 15 -6 32 -3 39 8 23
135 45 135 24z m187 3 c-3 -3 -12 -4 -19 -1 -8 3 -5 6 6 6 11 1 17 -2 13 -5z"/>
</g>
</svg>
