<?xml version="1.0" standalone="no"?>
<!DOCTYPE svg PUBLIC "-//W3C//DTD SVG 20010904//EN"
 "http://www.w3.org/TR/2001/REC-SVG-20010904/DTD/svg10.dtd">
<svg version="1.0" xmlns="http://www.w3.org/2000/svg"
 width="162.000000pt" height="194.000000pt" viewBox="0 0 162.000000 194.000000"
 preserveAspectRatio="xMidYMid meet">

<g transform="translate(0.000000,194.000000) scale(0.100000,-0.100000)"
fill="#000000" stroke="none">
<path d="M452 1208 c-19 -25 -142 -354 -142 -382 0 -27 22 22 69 157 29 81 61
168 71 192 20 46 20 55 2 33z"/>
<path d="M493 1141 c-1 -42 -10 -103 -20 -136 -18 -56 -23 -62 -67 -83 -56
-26 -57 -40 -3 -17 42 17 42 17 22 -32 -18 -42 -18 -46 -5 -38 5 3 17 21 26
40 16 34 34 39 34 9 0 -12 8 -13 35 -8 28 5 35 3 35 -10 0 -13 12 -16 71 -16
65 0 70 -2 64 -19 -8 -27 10 -34 43 -17 22 11 44 12 102 6 73 -8 179 -14 211
-11 25 2 80 49 148 129 35 39 67 72 71 72 17 0 68 -51 84 -84 23 -48 12 -84
-29 -101 -42 -18 -157 -32 -415 -50 -223 -16 -498 -47 -467 -53 9 -2 86 3 170
12 83 8 224 20 312 26 214 14 351 29 383 41 67 25 88 78 57 138 -18 37 -71 81
-95 81 -12 0 -45 -31 -85 -79 -94 -114 -91 -113 -250 -109 l-135 3 0 33 c0 36
-4 38 -53 17 -47 -19 -163 -20 -183 -1 -7 8 -22 12 -32 9 -12 -3 -24 4 -35 20
-14 22 -14 30 3 98 20 74 27 194 13 202 -5 3 -9 -29 -10 -72z m287 -276 c0 -6
-62 -45 -72 -45 -20 0 -4 23 25 35 35 15 47 18 47 10z"/>
<path d="M370 1172 c-14 -21 -49 -82 -78 -137 -29 -55 -51 -91 -48 -80 20 77
46 209 45 227 0 22 -1 22 -9 3 -14 -29 -91 -378 -85 -383 3 -3 38 65 79 150
40 85 85 166 99 179 27 26 43 64 30 72 -5 3 -19 -11 -33 -31z"/>
</g>
</svg>
