<svg width="20" height="20" viewBox="0 0 20 20" fill="none" xmlns="http://www.w3.org/2000/svg">
<path d="M7.91984 19.9998C7.40922 19.8186 7.23848 19.4507 7.24128 18.9372C7.25331 16.5692 7.24048 14.2013 7.2513 11.8333C7.25371 11.3096 7.10261 10.8572 6.79439 10.4341C4.63247 7.46885 2.47455 4.50011 0.321042 1.52901C0.18998 1.34819 0.105812 1.13488 0 0.936829C0 0.910605 0 0.884773 0 0.85855C0.0569138 0.695337 0.0897796 0.518817 0.176754 0.372434C0.319439 0.132899 0.558717 0.0197855 0.842485 0.00217265C0.895792 -0.000958523 0.949098 0.000215668 1.0024 0.000215668C7.00882 0.000215668 13.0156 0.000215668 19.022 0.000215668C19.5367 0.000215668 19.8473 0.207656 19.9707 0.639759C20.0573 0.9427 19.9423 1.19867 19.7659 1.44095C18.778 2.79831 17.7916 4.15685 16.8044 5.515C15.6208 7.1436 14.4429 8.77651 13.2489 10.3977C12.911 10.8564 12.7579 11.3476 12.7607 11.9081C12.7695 13.8091 12.7643 15.7101 12.7639 17.6111C12.7639 18.1755 12.6188 18.3857 12.0898 18.5818C10.8469 19.0429 9.60361 19.502 8.36072 19.963C8.34469 19.9689 8.33347 19.9873 8.31984 19.9998H7.91984ZM1.24048 1.02372C1.28858 1.09378 1.32265 1.14662 1.35952 1.1975C3.4489 4.07153 5.53948 6.94517 7.62685 9.82115C7.76473 10.0114 7.88978 10.2125 7.9992 10.42C8.22966 10.8572 8.2978 11.3312 8.2978 11.8177C8.29699 14.0893 8.2978 16.3606 8.2978 18.6323C8.2978 18.7117 8.2978 18.7912 8.2978 18.8918C8.40401 18.8562 8.46693 18.8366 8.52866 18.8139C9.52866 18.4421 10.5271 18.0663 11.5295 17.7012C11.679 17.6467 11.7267 17.5794 11.7263 17.4225C11.7198 15.5676 11.7291 13.7124 11.7186 11.8576C11.7146 11.1085 11.9315 10.445 12.3764 9.83524C14.4637 6.97569 16.5427 4.10989 18.6245 1.24642C18.6725 1.18028 18.719 1.11257 18.7812 1.02411H1.24048V1.02372Z" fill="#274C77"/>
</svg>
