<?xml version="1.0" encoding="utf-8"?>
<!-- Generator: Adobe Illustrator 26.4.1, SVG Export Plug-In . SVG Version: 6.00 Build 0)  -->
<svg version="1.1" id="Layer_1" xmlns="http://www.w3.org/2000/svg" xmlns:xlink="http://www.w3.org/1999/xlink" x="0px" y="0px"
	 viewBox="0 0 960 560" style="enable-background:new 0 0 960 560;" xml:space="preserve">
<style type="text/css">
	.st0{fill:#93A5BA;}
</style>
<g id="VG2CmZ.tif">
	<g>
		<path class="st0" d="M434.5,448c-1.5-0.9-3-1.6-4.3-2.7c-2.9-2.4-3.9-5.8-3.9-9.4c-0.1-6.4,0-12.8,0-19.2c0-2.2,0-4.4,0-6.5
			c0-8.1,0-16.1,0-24.2c0-10.9-0.1-21.9-0.1-32.8c0-2.7,0.5-5.3,2-7.5c2.3-3.5,5.6-4.9,9.6-5c3.9,0,7.8,0.1,11.7,0.1
			c4.6,0,9.3,0,13.9,0c1.5,0,2.7-0.6,3.5-1.9c3.1-4.7,6.2-9.3,9.3-14.1c2.5-3.9,6-5.7,10.5-5.6c6.8,0,13.7,0,20.5,0.1
			c3.1,0,6.1-0.1,9.2,0c3.4,0,6.4,1.1,8.7,3.7c0.4,0.5,0.8,1,1.2,1.5c3.2,4.8,6.4,9.7,9.6,14.5c0.9,1.4,2.1,1.9,3.7,1.9
			c6.1,0,12.2-0.1,18.3-0.1c2.8,0,5.7,0,8.5,0.1c5.7,0.3,9.6,4.3,10,10c0,0.4,0.1,0.7,0.2,1c0,8.1,0,16.2,0,24.3
			c0,0.3-0.1,0.6-0.1,0.9c0,11.3,0,22.6,0,33.9c0,0.3,0.1,0.6,0.1,0.9c0,8.3,0,16.6,0,25c-0.1,0.3-0.1,0.5-0.2,0.8
			c-0.4,3-1.4,5.7-3.8,7.6c-1.4,1.1-3,1.8-4.5,2.7C523.6,448,479.1,448,434.5,448z M554.9,362.2c-0.4,0-0.8,0-1.1,0
			c-8.5,0-17,0-25.6,0c-1.8,0-3-0.7-4-2.1c-3.8-5.9-7.7-11.7-11.6-17.6c-0.8-1.2-1.8-1.7-3.3-1.7c-5.3,0-10.6,0-15.9,0
			c-1.4,0-2.4,0.5-3.2,1.7c-3.8,5.7-7.6,11.4-11.3,17.1c-1.2,1.9-2.7,2.7-5,2.7c-8.4-0.1-16.8-0.1-25.1-0.1c-0.3,0-0.6,0-0.9,0
			c0,21.4,0,42.7,0,64.1c35.7,0,71.2,0,106.8,0C554.9,405,554.9,383.7,554.9,362.2z"/>
		<path class="st0" d="M383.4,426.4c6.6,0,13.2,0,19.8,0c0.6,0,1.2,0,1.9,0c0,0.4,0,0.7,0,1.1c0,6.5,0,13,0,19.6c0,0.3,0,0.7,0,1
			c-7.2,0-14.4,0-21.7,0C383.4,440.8,383.4,433.6,383.4,426.4z"/>
		<path class="st0" d="M383.4,255c7.1,0,14.2,0,21.3,0c0,7.2,0,14.4,0,21.6c-7.1,0-14.2,0-21.3,0C383.4,269.5,383.4,262.2,383.4,255
			z"/>
		<path class="st0" d="M383.4,383.8c0.2,0,0.4,0,0.7,0c6.6,0,13.3,0,19.9,0c0.2,0,0.4,0,0.7,0c0,7.2,0,14.3,0,21.6c-0.3,0-0.6,0-1,0
			c-6.4,0-12.8,0-19.3,0c-0.4,0-0.7,0.1-1.1,0.1C383.4,398.2,383.4,391,383.4,383.8z"/>
		<path class="st0" d="M383.4,297.7c0.4,0,0.7,0.1,1.1,0.1c6.4,0,12.7,0,19.1,0c0.3,0,0.7,0,1,0c0,7.2,0,14.3,0,21.5
			c-0.2,0-0.4,0.1-0.6,0.1c-6.7,0-13.4,0-20.1,0c-0.2,0-0.3,0-0.5,0C383.4,312.1,383.4,304.9,383.4,297.7z"/>
		<path class="st0" d="M383.4,341c7.1,0,14.2,0,21.3,0c0,7.1,0,14,0,21.2c-7.1,0-14.2,0-21.3,0C383.4,355.1,383.4,348,383.4,341z"/>
		<path class="st0" d="M426.5,276.3c0-7,0-14,0-21c7.1,0,14.1,0,21.1,0c0,7,0,14,0,21C440.6,276.3,433.6,276.3,426.5,276.3z"/>
		<path class="st0" d="M576.3,276.3c-7.1,0-14,0-21.1,0c0-7,0-14,0-21c7,0,14,0,21.1,0C576.3,262.2,576.3,269.2,576.3,276.3z"/>
		<path class="st0" d="M512.3,276.3c0-7,0-14,0-21c7,0,14.1,0,21.1,0c0,7,0,14,0,21C526.4,276.3,519.4,276.3,512.3,276.3z"/>
		<path class="st0" d="M576.4,298.1c0,7,0,14,0,21c-7,0-14,0-21.1,0c0-7,0-14,0-21C562.3,298.1,569.3,298.1,576.4,298.1z"/>
		<path class="st0" d="M490.4,276.3c-7,0-13.9,0-20.9,0c0-7,0-14,0-21.1c6.9,0,13.9,0,20.9,0C490.4,262.2,490.4,269.2,490.4,276.3z"
			/>
		<path class="st0" d="M501.3,415.8c-11.8,0-21.4-9.6-21.4-21.5c0-11.8,9.6-21.3,21.5-21.3c11.9,0,21.4,9.5,21.4,21.4
			C522.8,406.3,513.3,415.8,501.3,415.8z"/>
	</g>
</g>
</svg>
