<svg width="25" height="25" viewBox="0 0 25 25" fill="none" xmlns="http://www.w3.org/2000/svg">
<path d="M6.63839 24.9902C5.80647 24.6875 5.53243 24.0767 5.5383 23.2181C5.56179 19.7266 5.5631 16.2352 5.5383 12.7437C5.53178 11.793 6.10401 11.0583 7.18191 11.1034C8.24286 11.1471 9.30706 11.1079 10.3693 11.1171C10.5651 11.119 10.6871 11.0583 10.7934 10.8946C11.1999 10.2669 11.6221 9.64961 12.0318 9.02453C12.3437 8.54887 12.777 8.32572 13.3446 8.32898C14.6353 8.33551 15.9252 8.3342 17.2158 8.32898C17.7711 8.32703 18.1965 8.54822 18.5025 9.01148C18.9149 9.63526 19.3384 10.2512 19.7423 10.8809C19.8565 11.0596 19.9837 11.119 20.1918 11.1171C21.2867 11.1073 22.3822 11.1099 23.4771 11.1131C24.4336 11.1164 24.9896 11.6749 24.9896 12.6308C24.9909 16.1764 24.9765 19.7227 25 23.2683C25.0059 24.1257 24.7057 24.7077 23.8836 24.9902H6.63839ZM22.1956 13.8777H21.8074C20.7882 13.8777 19.7684 13.8699 18.7492 13.8836C18.5058 13.8869 18.3577 13.8203 18.2226 13.6089C17.732 12.8422 17.2132 12.0938 16.718 11.3304C16.6097 11.1634 16.4909 11.1053 16.2958 11.1086C15.6127 11.1197 14.9295 11.1197 14.2464 11.1086C14.05 11.1053 13.9325 11.1673 13.8255 11.333C13.3355 12.0873 12.8214 12.8259 12.3392 13.5854C12.191 13.819 12.0286 13.8901 11.7617 13.8856C10.7425 13.8699 9.72335 13.879 8.70351 13.879H8.35639V22.1819H22.1956V13.8777Z" fill="#274C77"/>
<path d="M0 0H2.76263V2.79851H0V0Z" fill="#274C77"/>
<path d="M0 5.53178H2.75153V8.33029H0V5.53178Z" fill="#274C77"/>
<path d="M0 16.6599H2.76263V19.4584H0V16.6599Z" fill="#274C77"/>
<path d="M0 22.1917H2.79851V24.9902H0V22.1917Z" fill="#274C77"/>
<path d="M0 11.1288H2.76458V13.8621H0V11.1288Z" fill="#274C77"/>
<path d="M8.31854 0.0202271V2.75936H5.57223V0.0202271H8.31854Z" fill="#274C77"/>
<path d="M16.6723 2.75806V0.0202271H19.4199V2.75806H16.6723Z" fill="#274C77"/>
<path d="M22.2243 2.7561V0.024142H24.9674V2.7561H22.2243Z" fill="#274C77"/>
<path d="M24.9785 5.57223V8.31006H22.2309V5.57223H24.9785Z" fill="#274C77"/>
<path d="M13.8529 2.76328H11.1321V0.0176171H13.8529V2.76328Z" fill="#274C77"/>
<path d="M15.2858 15.2793C16.8224 15.2858 18.0438 16.5157 18.0412 18.0543C18.038 19.6007 16.7878 20.8378 15.2421 20.8241C13.7218 20.8104 12.4873 19.5524 12.4964 18.0269C12.5055 16.5007 13.7518 15.2727 15.2858 15.2793Z" fill="#274C77"/>
</svg>
