<svg width="22" height="24" viewBox="0 0 22 24" fill="none" xmlns="http://www.w3.org/2000/svg">
<g clip-path="url(#clip0_9469_4677)">
<path d="M6.99388 18.6152C5.97427 18.6131 4.95466 18.6122 3.93505 18.6152C3.59427 18.6165 3.36486 18.8912 3.36329 19.2852C3.36172 19.6889 3.59113 19.9573 3.94525 19.959C4.44956 19.9611 4.95388 19.9594 5.45819 19.9594C5.96799 19.9594 6.4778 19.9678 6.9876 19.9535C7.11231 19.9501 7.25074 19.9029 7.35584 19.8199C7.55074 19.6665 7.61584 19.3514 7.54447 19.077C7.46995 18.7913 7.26682 18.6156 6.99388 18.6148V18.6152Z" fill="#274C77"/>
<path d="M17.9575 10.1044C16.8603 10.1023 15.763 10.1036 14.6661 10.1036C14.1567 10.1036 13.6473 10.1036 13.1379 10.1036C12.5305 10.1036 11.923 10.0973 11.3159 10.107C10.8959 10.1133 10.6152 10.5123 10.7128 10.9405C10.7846 11.2561 11.0473 11.4486 11.4155 11.4486C13.5838 11.4495 15.752 11.4491 17.9203 11.4486C17.9854 11.4486 18.0512 11.4453 18.1148 11.4331C18.4771 11.3627 18.6991 11.0096 18.6254 10.6261C18.5646 10.3096 18.3077 10.1053 17.9575 10.1044Z" fill="#274C77"/>
<path d="M17.9992 6.96181C16.8953 6.95886 15.7918 6.96054 14.6879 6.96054C13.571 6.96054 12.4541 6.95801 11.3373 6.96181C10.9651 6.96307 10.6984 7.24919 10.6973 7.63012C10.6961 8.01021 10.9639 8.30392 11.333 8.30434C13.5533 8.30729 15.7741 8.30771 17.9945 8.30097C18.1177 8.30097 18.2541 8.25167 18.3604 8.18256C18.5945 8.03044 18.6894 7.72367 18.6157 7.44809C18.5396 7.16281 18.2945 6.96265 17.9988 6.96181H17.9992Z" fill="#274C77"/>
<path d="M21.2365 4.06934C20.1427 2.91348 19.0569 1.74835 17.978 0.576481C17.6161 0.183328 17.2024 -0.00250286 16.6847 2.54471e-05C14.3647 0.0105601 12.0447 0.00213237 9.72471 0.00550346C8.54196 0.00761038 7.6349 0.780852 7.39333 1.98096C7.3702 2.096 7.35294 2.2123 7.33333 2.32776V4.71701C5.68627 4.7187 4.03882 4.71533 2.39137 4.71786C1.20863 4.71954 0.301569 5.4932 0.06 6.69331C0.0368627 6.80835 0.0196078 6.92423 0 7.04011V21.6731C0.0407843 21.8767 0.0670588 22.0853 0.125098 22.2829C0.418824 23.2778 1.25529 23.9655 2.23137 23.9882C3.09255 24.0085 3.95451 23.9962 4.81647 23.9962C7.29726 23.9971 9.77804 23.9979 12.2588 23.9958C13.3937 23.9945 14.289 23.29 14.5686 22.1822C14.611 22.0153 14.6345 21.843 14.6667 21.6731V19.2847C16.3086 19.2851 17.9502 19.2851 19.5922 19.2835C20.7271 19.2826 21.6224 18.5781 21.902 17.4702C21.9443 17.3034 21.9678 17.131 22 16.9612V5.39755C21.9259 4.835 21.5957 4.44943 21.2365 4.06934ZM17.8043 2.3897C18.4494 3.08119 19.1027 3.78154 19.7553 4.48104C19.1929 4.48104 18.6071 4.48272 18.0212 4.48019C17.8792 4.47935 17.8055 4.38917 17.8051 4.24C17.8031 3.61256 17.8043 2.98512 17.8043 2.3897ZM13.4016 21.3971C13.4016 22.1986 12.9827 22.6503 12.2396 22.6508C8.96627 22.6512 5.69294 22.6516 2.41961 22.6508C1.68784 22.6503 1.2651 22.1965 1.26471 21.4106C1.26431 16.7096 1.26431 12.0091 1.26471 7.30811C1.26471 6.5197 1.68588 6.06292 2.41412 6.06292C4.05373 6.06208 5.69373 6.06207 7.33333 6.0625V12.3382C6.22392 12.3382 5.11412 12.3361 4.00431 12.3399C3.63216 12.3407 3.3651 12.6273 3.36431 13.0082C3.36314 13.3883 3.63059 13.6816 3.99961 13.6824C5.11098 13.6841 6.22235 13.6845 7.33333 13.6837V15.4813H5.80392C5.19647 15.4817 4.58902 15.4754 3.98196 15.4847C3.56157 15.4914 3.28118 15.89 3.37843 16.3182C3.45059 16.6342 3.71294 16.8264 4.08118 16.8268C5.1651 16.8272 6.24902 16.8272 7.33333 16.8272V16.9612C7.37412 17.1647 7.40039 17.3729 7.45843 17.5705C7.75216 18.5654 8.58863 19.2535 9.56471 19.2763C10.4259 19.2961 11.2878 19.2839 12.1498 19.2843C12.5671 19.2843 12.9843 19.2847 13.4016 19.2847C13.402 19.9889 13.4016 20.693 13.4016 21.3971ZM20.7349 16.6848C20.7349 17.4863 20.3161 17.9384 19.5729 17.9384C17.9373 17.9388 16.302 17.9392 14.6667 17.9392C14.2451 17.9392 13.8235 17.9388 13.402 17.9388C12.1855 17.9388 10.969 17.9388 9.75294 17.9384C9.06196 17.938 8.64667 17.5334 8.60235 16.8268C8.59922 16.7851 8.59804 16.7421 8.59804 16.6983V13.6828C8.59804 13.2345 8.59765 12.7861 8.59765 12.3378C8.59765 10.246 8.59765 8.15425 8.59804 6.0625V2.59576C8.59804 1.80777 9.01922 1.35099 9.74745 1.35057C11.9427 1.3493 14.138 1.35014 16.3333 1.35014H16.549C16.549 2.34293 16.5451 3.302 16.5506 4.26107C16.5545 5.0183 17.0255 5.6369 17.7137 5.7945C17.8463 5.82483 17.9863 5.82652 18.1227 5.82694C18.9133 5.82989 19.7039 5.82821 20.4945 5.82821H20.7247C20.7286 5.9226 20.7349 5.99676 20.7349 6.07135C20.7349 9.6093 20.7349 13.1468 20.7349 16.6848Z" fill="#274C77"/>
<path d="M15.0235 13.237C13.8086 13.2348 12.5934 13.234 11.3785 13.2374C11.3404 13.2374 11.3036 13.2399 11.2683 13.2445C11.0047 13.2799 10.8118 13.4396 10.7345 13.6727C10.7106 13.7443 10.6977 13.8231 10.6973 13.9074C10.6953 14.3111 10.9686 14.5795 11.3906 14.5812C11.9918 14.5833 12.5926 14.5816 13.1937 14.5816C13.7949 14.5816 14.4086 14.59 15.0161 14.5757C15.1643 14.5719 15.3294 14.5251 15.4545 14.4421C15.6867 14.2887 15.7647 13.9735 15.6792 13.6992C15.5906 13.4135 15.3486 13.2378 15.0235 13.237Z" fill="#274C77"/>
</g>
<defs>
<clipPath id="clip0_9469_4677">
<rect width="22" height="24" fill="white"/>
</clipPath>
</defs>
</svg>
