<svg width="273" height="32" viewBox="0 0 273 32" fill="none" xmlns="http://www.w3.org/2000/svg">
<path d="M49.1003 9.292C51.1977 9.292 52.7817 9.58533 53.8523 10.172C54.923 10.7587 55.4583 11.7927 55.4583 13.274C55.4583 14.1687 55.2457 14.924 54.8203 15.54C54.4097 16.156 53.8157 16.53 53.0383 16.662V16.772C53.5663 16.8747 54.043 17.058 54.4683 17.322C54.8937 17.586 55.231 17.9673 55.4803 18.466C55.7297 18.9647 55.8543 19.6247 55.8543 20.446C55.8543 21.8687 55.341 22.9833 54.3143 23.79C53.2877 24.5967 51.8797 25 50.0903 25H44.2163V9.292H49.1003ZM49.4743 15.518C50.4423 15.518 51.1097 15.364 51.4763 15.056C51.8577 14.748 52.0483 14.3007 52.0483 13.714C52.0483 13.1127 51.8283 12.68 51.3883 12.416C50.9483 12.152 50.2517 12.02 49.2983 12.02H47.5383V15.518H49.4743ZM47.5383 18.158V22.25H49.7163C50.7137 22.25 51.4103 22.0593 51.8063 21.678C52.2023 21.282 52.4003 20.7613 52.4003 20.116C52.4003 19.5293 52.195 19.06 51.7843 18.708C51.3883 18.3413 50.6623 18.158 49.6063 18.158H47.5383ZM69.7556 12.988V25H67.2476L66.8076 23.46H66.6316C66.2502 24.076 65.7222 24.5233 65.0476 24.802C64.3876 25.0807 63.6836 25.22 62.9356 25.22C61.6449 25.22 60.6109 24.8753 59.8336 24.186C59.0562 23.482 58.6676 22.36 58.6676 20.82V12.988H61.9456V20.006C61.9456 20.8567 62.0996 21.502 62.4076 21.942C62.7156 22.382 63.2069 22.602 63.8816 22.602C64.8789 22.602 65.5609 22.2647 65.9276 21.59C66.2942 20.9007 66.4776 19.918 66.4776 18.642V12.988H69.7556ZM80.0126 12.768C81.3032 12.768 82.3372 13.12 83.1146 13.824C83.8919 14.5133 84.2806 15.628 84.2806 17.168V25H81.0026V17.982C81.0026 17.1167 80.8486 16.4713 80.5406 16.046C80.2326 15.606 79.7412 15.386 79.0666 15.386C78.0692 15.386 77.3872 15.7307 77.0206 16.42C76.6539 17.0947 76.4706 18.07 76.4706 19.346V25H73.1926V12.988H75.7006L76.1406 14.528H76.3166C76.6979 13.912 77.2186 13.4647 77.8786 13.186C78.5532 12.9073 79.2646 12.768 80.0126 12.768ZM91.4575 25.22C90.1229 25.22 89.0302 24.6993 88.1795 23.658C87.3435 22.602 86.9255 21.0547 86.9255 19.016C86.9255 16.9627 87.3509 15.408 88.2015 14.352C89.0522 13.296 90.1669 12.768 91.5455 12.768C92.4109 12.768 93.1222 12.9367 93.6795 13.274C94.2369 13.6113 94.6769 14.0293 94.9995 14.528H95.1095C95.0655 14.2933 95.0142 13.956 94.9555 13.516C94.8969 13.0613 94.8675 12.5993 94.8675 12.13V8.28H98.1455V25H95.6375L94.9995 23.438H94.8675C94.5449 23.9367 94.1122 24.362 93.5695 24.714C93.0269 25.0513 92.3229 25.22 91.4575 25.22ZM92.6015 22.602C93.5109 22.602 94.1489 22.338 94.5155 21.81C94.8822 21.2673 95.0729 20.4607 95.0875 19.39V19.038C95.0875 17.8647 94.9042 16.97 94.5375 16.354C94.1855 15.738 93.5255 15.43 92.5575 15.43C91.8389 15.43 91.2742 15.7453 90.8635 16.376C90.4529 16.992 90.2475 17.8867 90.2475 19.06C90.2475 20.2333 90.4529 21.1207 90.8635 21.722C91.2742 22.3087 91.8535 22.602 92.6015 22.602ZM104.851 25H101.573V8.28H104.851V25ZM109.927 8.28C110.411 8.28 110.829 8.39733 111.181 8.632C111.533 8.852 111.709 9.27 111.709 9.886C111.709 10.4873 111.533 10.9053 111.181 11.14C110.829 11.3747 110.411 11.492 109.927 11.492C109.428 11.492 109.003 11.3747 108.651 11.14C108.313 10.9053 108.145 10.4873 108.145 9.886C108.145 9.27 108.313 8.852 108.651 8.632C109.003 8.39733 109.428 8.28 109.927 8.28ZM111.555 12.988V25H108.277V12.988H111.555ZM121.8 12.768C123.09 12.768 124.124 13.12 124.902 13.824C125.679 14.5133 126.068 15.628 126.068 17.168V25H122.79V17.982C122.79 17.1167 122.636 16.4713 122.328 16.046C122.02 15.606 121.528 15.386 120.854 15.386C119.856 15.386 119.174 15.7307 118.808 16.42C118.441 17.0947 118.258 18.07 118.258 19.346V25H114.98V12.988H117.488L117.928 14.528H118.104C118.485 13.912 119.006 13.4647 119.666 13.186C120.34 12.9073 121.052 12.768 121.8 12.768ZM133.333 12.768C134.814 12.768 135.973 13.3547 136.809 14.528H136.897L137.161 12.988H139.933V25.022C139.933 26.738 139.427 28.0433 138.415 28.938C137.403 29.8327 135.907 30.28 133.927 30.28C133.076 30.28 132.284 30.2287 131.551 30.126C130.832 30.0233 130.128 29.84 129.439 29.576V26.958C130.92 27.574 132.482 27.882 134.125 27.882C135.811 27.882 136.655 26.9727 136.655 25.154V24.912C136.655 24.6627 136.662 24.406 136.677 24.142C136.706 23.878 136.728 23.6433 136.743 23.438H136.655C136.244 24.0687 135.753 24.5233 135.181 24.802C134.609 25.0807 133.963 25.22 133.245 25.22C131.822 25.22 130.707 24.6773 129.901 23.592C129.109 22.492 128.713 20.9667 128.713 19.016C128.713 17.0507 129.123 15.518 129.945 14.418C130.766 13.318 131.895 12.768 133.333 12.768ZM134.367 15.43C132.827 15.43 132.057 16.64 132.057 19.06C132.057 21.4507 132.841 22.646 134.411 22.646C135.247 22.646 135.863 22.4113 136.259 21.942C136.669 21.458 136.875 20.622 136.875 19.434V19.038C136.875 17.7473 136.677 16.8233 136.281 16.266C135.885 15.7087 135.247 15.43 134.367 15.43ZM154.355 9.292C156.379 9.292 157.853 9.732 158.777 10.612C159.716 11.4773 160.185 12.6727 160.185 14.198C160.185 15.1073 159.995 15.9653 159.613 16.772C159.232 17.564 158.594 18.202 157.699 18.686C156.819 19.17 155.617 19.412 154.091 19.412H152.661V25H149.339V9.292H154.355ZM154.179 12.02H152.661V16.684H153.761C154.7 16.684 155.441 16.5007 155.983 16.134C156.541 15.7527 156.819 15.144 156.819 14.308C156.819 12.7827 155.939 12.02 154.179 12.02ZM167.818 12.746C169.431 12.746 170.663 13.098 171.514 13.802C172.379 14.4913 172.812 15.5547 172.812 16.992V25H170.524L169.886 23.372H169.798C169.284 24.0173 168.742 24.4867 168.17 24.78C167.598 25.0733 166.813 25.22 165.816 25.22C164.745 25.22 163.858 24.912 163.154 24.296C162.45 23.6653 162.098 22.7047 162.098 21.414C162.098 20.138 162.545 19.1993 163.44 18.598C164.334 17.982 165.676 17.6447 167.466 17.586L169.556 17.52V16.992C169.556 16.3613 169.387 15.8993 169.05 15.606C168.727 15.3127 168.272 15.166 167.686 15.166C167.099 15.166 166.527 15.254 165.97 15.43C165.412 15.5913 164.855 15.7967 164.298 16.046L163.22 13.824C163.865 13.4867 164.576 13.2227 165.354 13.032C166.146 12.8413 166.967 12.746 167.818 12.746ZM168.28 19.478C167.224 19.5073 166.49 19.698 166.08 20.05C165.669 20.402 165.464 20.864 165.464 21.436C165.464 21.9347 165.61 22.294 165.904 22.514C166.197 22.7193 166.578 22.822 167.048 22.822C167.752 22.822 168.346 22.6167 168.83 22.206C169.314 21.7807 169.556 21.1867 169.556 20.424V19.434L168.28 19.478ZM180.061 12.768C181.543 12.768 182.701 13.3547 183.537 14.528H183.625L183.889 12.988H186.661V25.022C186.661 26.738 186.155 28.0433 185.143 28.938C184.131 29.8327 182.635 30.28 180.655 30.28C179.805 30.28 179.013 30.2287 178.279 30.126C177.561 30.0233 176.857 29.84 176.167 29.576V26.958C177.649 27.574 179.211 27.882 180.853 27.882C182.54 27.882 183.383 26.9727 183.383 25.154V24.912C183.383 24.6627 183.391 24.406 183.405 24.142C183.435 23.878 183.457 23.6433 183.471 23.438H183.383C182.973 24.0687 182.481 24.5233 181.909 24.802C181.337 25.0807 180.692 25.22 179.973 25.22C178.551 25.22 177.436 24.6773 176.629 23.592C175.837 22.492 175.441 20.9667 175.441 19.016C175.441 17.0507 175.852 15.518 176.673 14.418C177.495 13.318 178.624 12.768 180.061 12.768ZM181.095 15.43C179.555 15.43 178.785 16.64 178.785 19.06C178.785 21.4507 179.57 22.646 181.139 22.646C181.975 22.646 182.591 22.4113 182.987 21.942C183.398 21.458 183.603 20.622 183.603 19.434V19.038C183.603 17.7473 183.405 16.8233 183.009 16.266C182.613 15.7087 181.975 15.43 181.095 15.43ZM195.039 12.768C196.696 12.768 198.009 13.2447 198.977 14.198C199.945 15.1367 200.429 16.4787 200.429 18.224V19.808H192.685C192.714 20.732 192.986 21.458 193.499 21.986C194.027 22.514 194.753 22.778 195.677 22.778C196.454 22.778 197.158 22.7047 197.789 22.558C198.42 22.3967 199.072 22.1547 199.747 21.832V24.362C199.16 24.6553 198.537 24.868 197.877 25C197.232 25.1467 196.447 25.22 195.523 25.22C194.32 25.22 193.257 25 192.333 24.56C191.409 24.1053 190.683 23.4233 190.155 22.514C189.627 21.6047 189.363 20.4607 189.363 19.082C189.363 17.674 189.598 16.508 190.067 15.584C190.551 14.6453 191.218 13.9413 192.069 13.472C192.92 13.0027 193.91 12.768 195.039 12.768ZM195.061 15.1C194.43 15.1 193.902 15.3053 193.477 15.716C193.066 16.1267 192.824 16.7647 192.751 17.63H197.349C197.334 16.8967 197.144 16.2953 196.777 15.826C196.41 15.342 195.838 15.1 195.061 15.1ZM218.944 25H207.966V22.69L211.904 18.708C212.696 17.8867 213.334 17.2047 213.818 16.662C214.302 16.1047 214.654 15.606 214.874 15.166C215.094 14.7113 215.204 14.2273 215.204 13.714C215.204 13.0833 215.028 12.614 214.676 12.306C214.339 11.998 213.877 11.844 213.29 11.844C212.689 11.844 212.102 11.9833 211.53 12.262C210.958 12.5407 210.357 12.9367 209.726 13.45L207.922 11.316C208.377 10.92 208.853 10.5533 209.352 10.216C209.865 9.87867 210.452 9.60733 211.112 9.402C211.787 9.182 212.593 9.072 213.532 9.072C214.559 9.072 215.439 9.26267 216.172 9.644C216.92 10.0107 217.492 10.5167 217.888 11.162C218.299 11.7927 218.504 12.5113 218.504 13.318C218.504 14.1833 218.328 14.9753 217.976 15.694C217.639 16.4127 217.14 17.124 216.48 17.828C215.835 18.532 215.05 19.3093 214.126 20.16L212.102 22.052V22.206H218.944V25ZM228.652 9.292L222.8 25H219.83L225.682 9.292H228.652ZM237.85 25H234.528V15.914C234.528 15.5327 234.535 15.034 234.55 14.418C234.579 13.802 234.601 13.2593 234.616 12.79C234.542 12.878 234.381 13.0393 234.132 13.274C233.897 13.494 233.677 13.692 233.472 13.868L231.668 15.32L230.062 13.318L235.122 9.292H237.85V25ZM253.212 25H242.234V22.69L246.172 18.708C246.964 17.8867 247.602 17.2047 248.086 16.662C248.57 16.1047 248.922 15.606 249.142 15.166C249.362 14.7113 249.472 14.2273 249.472 13.714C249.472 13.0833 249.296 12.614 248.944 12.306C248.606 11.998 248.144 11.844 247.558 11.844C246.956 11.844 246.37 11.9833 245.798 12.262C245.226 12.5407 244.624 12.9367 243.994 13.45L242.19 11.316C242.644 10.92 243.121 10.5533 243.62 10.216C244.133 9.87867 244.72 9.60733 245.38 9.402C246.054 9.182 246.861 9.072 247.8 9.072C248.826 9.072 249.706 9.26267 250.44 9.644C251.188 10.0107 251.76 10.5167 252.156 11.162C252.566 11.7927 252.772 12.5113 252.772 13.318C252.772 14.1833 252.596 14.9753 252.244 15.694C251.906 16.4127 251.408 17.124 250.748 17.828C250.102 18.532 249.318 19.3093 248.394 20.16L246.37 22.052V22.206H253.212V25ZM255.197 23.46C255.197 22.7853 255.381 22.316 255.747 22.052C256.114 21.7733 256.561 21.634 257.089 21.634C257.603 21.634 258.043 21.7733 258.409 22.052C258.776 22.316 258.959 22.7853 258.959 23.46C258.959 24.1053 258.776 24.5747 258.409 24.868C258.043 25.1467 257.603 25.286 257.089 25.286C256.561 25.286 256.114 25.1467 255.747 24.868C255.381 24.5747 255.197 24.1053 255.197 23.46ZM261.471 23.46C261.471 22.7853 261.654 22.316 262.021 22.052C262.387 21.7733 262.835 21.634 263.363 21.634C263.876 21.634 264.316 21.7733 264.683 22.052C265.049 22.316 265.233 22.7853 265.233 23.46C265.233 24.1053 265.049 24.5747 264.683 24.868C264.316 25.1467 263.876 25.286 263.363 25.286C262.835 25.286 262.387 25.1467 262.021 24.868C261.654 24.5747 261.471 24.1053 261.471 23.46ZM267.744 23.46C267.744 22.7853 267.928 22.316 268.294 22.052C268.661 21.7733 269.108 21.634 269.636 21.634C270.15 21.634 270.59 21.7733 270.956 22.052C271.323 22.316 271.506 22.7853 271.506 23.46C271.506 24.1053 271.323 24.5747 270.956 24.868C270.59 25.1467 270.15 25.286 269.636 25.286C269.108 25.286 268.661 25.1467 268.294 24.868C267.928 24.5747 267.744 24.1053 267.744 23.46Z" fill="#4D4D4D"/>
<g clip-path="url(#clip0_9469_6212)">
<path d="M0 16.3127C0.215 16.9257 0.5775 17.3884 1.25063 17.5268C1.38188 17.5537 1.51875 17.5612 1.65313 17.5612C3.67125 17.5631 5.68937 17.5637 7.70813 17.5619C8.67438 17.5612 9.37375 16.9025 9.37438 16.0008C9.37438 15.0985 8.67562 14.4392 7.70875 14.4386C5.79437 14.4361 3.88 14.4642 1.96625 14.4267C0.993125 14.4079 0.318125 14.7397 0.000625 15.6878V16.3127H0Z" fill="#274C77"/>
<path d="M31.9994 15.6879C31.7812 15.0787 31.4256 14.609 30.7487 14.4744C30.6175 14.4481 30.4806 14.4393 30.3462 14.4393C28.3281 14.4375 26.3094 14.4362 24.2913 14.4387C23.325 14.44 22.625 15.0999 22.625 16.001C22.625 16.9027 23.3256 17.5614 24.2919 17.562C26.2062 17.5639 28.1212 17.5357 30.0344 17.5739C31.0081 17.5933 31.6825 17.2608 31.9987 16.3128V15.6879H31.9994Z" fill="#274C77"/>
<path d="M15.6883 0.000243187C15.0789 0.218774 14.6102 0.575686 14.4739 1.25069C14.4477 1.38218 14.4395 1.51869 14.4395 1.65331C14.4377 3.67143 14.4364 5.69017 14.4389 7.70829C14.4401 8.67446 15.0995 9.37451 16.0008 9.37451C16.9027 9.37451 17.5614 8.67571 17.562 7.70829C17.5645 5.79412 17.5364 3.87931 17.5739 1.96514C17.5927 0.992082 17.2608 0.31708 16.3133 -0.000383377H15.6883V0.000243187Z" fill="#274C77"/>
<path d="M11.7671 21.7756C11.7377 21.1125 11.4346 20.6178 10.8184 20.3611C10.1934 20.1006 9.60461 20.2077 9.11586 20.6817C8.38398 21.3924 7.66898 22.1218 6.94773 22.8438C6.18211 23.6096 5.41023 24.3704 4.65398 25.1449C4.21836 25.5908 4.08148 26.1336 4.28148 26.7291C4.48023 27.3215 4.90836 27.6765 5.52461 27.7817C6.03086 27.8681 6.48211 27.7191 6.84211 27.3622C8.33586 25.8807 9.82211 24.3917 11.3065 22.9014C11.6127 22.594 11.7752 22.2183 11.7671 21.7749V21.7756Z" fill="#274C77"/>
<path d="M21.6276 20.2375C21.1345 20.257 20.6358 20.5531 20.3708 21.1668C20.1014 21.7892 20.2058 22.3784 20.6726 22.8712C21.2026 23.4297 21.7576 23.9657 22.302 24.5105C23.2439 25.4535 24.1808 26.4009 25.1301 27.3363C25.5826 27.7822 26.132 27.9249 26.7395 27.7164C27.3314 27.5129 27.682 27.0821 27.7826 26.466C27.8651 25.9594 27.7108 25.5105 27.3539 25.151C25.872 23.6583 24.3833 22.173 22.8939 20.6884C22.5939 20.3897 22.2276 20.2319 21.6276 20.2388V20.2375Z" fill="#274C77"/>
<path d="M11.7688 10.1972C11.7688 9.767 11.612 9.40007 11.3126 9.10077C9.84196 7.62678 8.37384 6.14967 6.89134 4.68758C6.26384 4.06893 5.30384 4.08333 4.69884 4.68257C4.09009 5.28494 4.05634 6.24171 4.67634 6.87288C6.14946 8.37317 7.63946 9.8578 9.13759 11.3343C9.62196 11.8114 10.2226 11.8978 10.8426 11.6273C11.4551 11.36 11.7488 10.8603 11.7682 10.1972H11.7688Z" fill="#274C77"/>
<path d="M17.562 27.2806C17.562 26.2819 17.5645 25.2825 17.5614 24.2838C17.5583 23.3208 16.8933 22.622 15.9902 22.6263C15.1014 22.6307 14.4389 23.3276 14.4377 24.2713C14.4352 26.3 14.4345 28.3294 14.4377 30.3582C14.4395 31.3006 15.1039 31.9969 15.9933 32C16.8845 32.0031 17.557 31.3087 17.5608 30.3707C17.5652 29.3407 17.562 28.3106 17.562 27.2806Z" fill="#274C77"/>
<path d="M26.4187 4.24086C25.7749 4.23021 25.408 4.388 25.1087 4.68606C23.6412 6.14815 22.1712 7.60835 20.7174 9.08359C20.1205 9.68909 20.1493 10.6584 20.7405 11.2532C21.3324 11.8487 22.3036 11.8869 22.9099 11.2902C24.3943 9.82998 25.8649 8.35662 27.3262 6.87324C27.8018 6.39047 27.8993 5.79186 27.6312 5.16945C27.3674 4.55644 26.8693 4.25839 26.4187 4.24023V4.24086Z" fill="#274C77"/>
</g>
<defs>
<clipPath id="clip0_9469_6212">
<rect width="32" height="32" fill="white" transform="matrix(1 0 0 -1 0 32)"/>
</clipPath>
</defs>
</svg>
