<svg width="348" height="309" viewBox="0 0 348 309" fill="none" xmlns="http://www.w3.org/2000/svg">
<g clip-path="url(#clip0_4507_2413)">
<path d="M217.156 205.126C230.971 203.261 240.658 190.552 238.793 176.74C236.927 162.928 224.215 153.243 210.4 155.108C196.585 156.973 186.898 169.682 188.763 183.494C190.629 197.306 203.34 206.991 217.156 205.126Z" fill="#274C77"/>
<path d="M344.223 59.6501C311.744 24.5166 265.289 2.48059 213.771 2.48059C162.254 2.48059 115.807 24.5166 83.3284 59.6501C78.6142 64.7519 78.9367 72.7146 84.1141 77.3616C89.1426 81.868 96.8755 81.5621 101.457 76.6009C129.404 46.3128 169.417 27.3197 213.78 27.3197C258.143 27.3197 298.156 46.3128 326.102 76.6009C330.684 81.5621 338.417 81.8763 343.445 77.3616C348.623 72.7229 348.945 64.7602 344.231 59.6501H344.223Z" fill="#274C77"/>
<path d="M213.772 53.8124C177.356 53.8124 144.506 69.2996 121.431 94.023C116.725 99.0668 117.18 107.03 122.316 111.635C127.311 116.117 135.019 115.869 139.593 110.957C158.127 91.0958 184.519 78.6432 213.772 78.6432C243.024 78.6432 269.416 91.0876 287.95 110.957C292.532 115.86 300.232 116.117 305.227 111.635C310.363 107.03 310.818 99.0668 306.112 94.023C283.037 69.2996 250.178 53.8124 213.772 53.8124Z" fill="#274C77"/>
<path d="M213.772 103.672C192.136 103.672 172.576 112.71 158.648 127.197C153.827 132.216 154.24 140.278 159.417 144.925C164.388 149.382 171.997 149.109 176.628 144.305C186.024 134.564 199.199 128.503 213.763 128.503C228.328 128.503 241.503 134.572 250.898 144.305C255.538 149.109 263.138 149.382 268.109 144.925C273.286 140.278 273.7 132.216 268.878 127.197C254.959 112.702 235.391 103.672 213.755 103.672H213.772Z" fill="#274C77"/>
<path d="M217.154 202.651C230.97 200.786 240.657 188.077 238.791 174.265C236.926 160.453 224.214 150.768 210.399 152.633C196.584 154.498 186.897 167.207 188.762 181.019C190.627 194.831 203.339 204.516 217.154 202.651Z" fill="#2279C5"/>
<path d="M344.223 57.1695C311.744 22.036 265.289 0 213.771 0C162.254 0 115.807 22.036 83.3284 57.1695C78.6142 62.2713 78.9367 70.234 84.1141 74.881C89.1426 79.3874 96.8755 79.0815 101.457 74.1203C129.395 43.8239 169.408 24.8308 213.771 24.8308C258.135 24.8308 298.148 43.8239 326.094 74.112C330.676 79.0732 338.409 79.3875 343.437 74.8728C348.615 70.234 348.937 62.2713 344.223 57.1613V57.1695Z" fill="#2279C5"/>
<path d="M213.772 51.3318C177.356 51.3318 144.506 66.8191 121.431 91.5424C116.725 96.5862 117.18 104.549 122.316 109.155C127.311 113.636 135.019 113.388 139.593 108.477C158.127 88.6153 184.519 76.1626 213.772 76.1626C243.024 76.1626 269.416 88.607 287.95 108.477C292.532 113.38 300.232 113.636 305.227 109.155C310.363 104.549 310.818 96.5862 306.112 91.5424C283.037 66.8191 250.178 51.3318 213.772 51.3318Z" fill="#2279C5"/>
<path d="M213.772 101.192C192.136 101.192 172.576 110.23 158.648 124.716C153.827 129.735 154.24 137.797 159.417 142.444C164.388 146.901 171.997 146.628 176.628 141.824C186.024 132.084 199.199 126.023 213.763 126.023C228.328 126.023 241.503 132.092 250.898 141.824C255.538 146.628 263.138 146.901 268.109 142.444C273.286 137.797 273.7 129.735 268.878 124.716C254.959 110.221 235.391 101.192 213.755 101.192H213.772Z" fill="#2279C5"/>
<g style="mix-blend-mode:hard-light" opacity="0.08">
<path d="M283.352 41.5997L301.654 23.3011C275.726 8.48365 245.721 0 213.772 0C199.902 0 186.404 1.61239 173.436 4.63045L124.069 53.9861C149.278 35.6545 180.284 24.8225 213.772 24.8225C238.815 24.8225 262.469 30.8752 283.352 41.5914V41.5997Z" fill="white"/>
<path d="M244.133 80.8096L263.436 61.5106C248.185 54.9618 231.396 51.3318 213.78 51.3318C177.365 51.3318 144.514 66.8191 121.439 91.5424C116.733 96.5862 117.188 104.549 122.324 109.155C127.319 113.636 135.028 113.388 139.601 108.477C158.136 88.6153 184.527 76.1626 213.78 76.1626C224.35 76.1626 234.547 77.7998 244.141 80.8096H244.133Z" fill="white"/>
<path d="M223.167 101.771C220.09 101.39 216.956 101.192 213.772 101.192C192.136 101.192 172.576 110.23 158.648 124.716C153.827 129.735 154.24 137.797 159.417 142.444C164.388 146.901 171.997 146.628 176.628 141.824C181.897 136.359 188.364 132.051 195.593 129.322L223.15 101.771H223.167Z" fill="white"/>
<path d="M213.772 152.408C199.827 152.408 188.53 163.703 188.53 177.644C188.53 184.854 191.557 191.353 196.412 195.959L232.083 160.296C227.484 155.443 220.983 152.416 213.763 152.416L213.772 152.408Z" fill="white"/>
<path d="M319.759 35.1749L301.993 52.936C309.247 58.0791 316.029 63.8341 322.265 70.1266L339.806 52.5887C333.57 46.3045 326.863 40.4834 319.75 35.1749H319.759Z" fill="white"/>
<path d="M264.9 90.021C272.633 94.5522 279.721 100.076 285.973 106.418L303.532 88.8633C297.288 82.5544 290.382 76.8986 282.922 72.0035L264.892 90.0292L264.9 90.021Z" fill="white"/>
<path d="M227.128 127.784C236.226 130.223 244.339 135.093 250.724 141.65L268.283 124.096C261.997 117.696 254.595 112.396 246.399 108.51L227.128 127.776V127.784Z" fill="white"/>
</g>
<path d="M344.022 301.037H9.5194C7.31943 301.037 5.54126 302.823 5.54126 305.014C5.54126 307.214 7.3277 308.992 9.5194 308.992H344.022C346.222 308.992 348 307.206 348 305.014C348 302.815 346.214 301.037 344.022 301.037Z" fill="#40514E"/>
<path d="M24.6181 244.537C24.6181 244.537 28.8439 212.576 51.9805 210.398L52.7941 225.067C52.7941 225.067 41.5736 226.707 35.0906 243.96L24.6181 244.537Z" fill="#FFADAE"/>
<path d="M94.9983 244.537C94.9983 244.537 90.7726 212.576 67.636 210.398L66.8223 225.067C66.8223 225.067 78.0429 226.707 84.5258 243.96L94.9983 244.537Z" fill="#FFADAE"/>
<path d="M55.4845 209.939H64.146C74.041 209.939 82.0726 217.968 82.0726 227.861V269.295H37.571V227.861C37.571 217.968 45.6026 209.939 55.4976 209.939H55.4845Z" fill="#F3475C"/>
<path d="M60.0909 211.998H59.5134C49.6709 211.998 41.81 203.785 42.243 193.945L42.7942 178.738C43.0567 172.742 48.0042 168.006 54.0147 168.006H65.8258C71.692 168.006 76.5214 172.624 76.7839 178.489L77.3482 193.932C77.7944 203.772 69.9334 211.985 60.0777 211.985L60.0909 211.998Z" fill="#F8CA4D"/>
<path d="M42.5717 185.115H40.4063C39.8682 185.115 39.4352 185.548 39.4352 186.086V190.993C39.4352 191.531 39.8682 191.964 40.4063 191.964H42.3223L42.5717 185.115Z" fill="#F8CA4D"/>
<path d="M79.1979 185.115H77.0325L77.2818 191.964H79.1979C79.7359 191.964 80.169 191.531 80.169 190.993V186.086C80.169 185.548 79.7359 185.115 79.1979 185.115Z" fill="#F8CA4D"/>
<path d="M61.7175 193.879H57.8592C54.6339 193.879 52.0193 196.493 52.0193 199.718V210.831C52.0193 214.055 54.6339 216.669 57.8592 216.669H61.7175C64.9428 216.669 67.5574 214.055 67.5574 210.831V199.718C67.5574 196.493 64.9428 193.879 61.7175 193.879Z" fill="#F8CA4D"/>
<path d="M78.3197 174.409C78.3197 169.79 76.5218 165.592 73.5952 162.456C74.3302 161.695 75.7343 159.963 74.5664 158.73C73.0309 157.116 67.7028 158.284 67.7028 158.284C67.7028 158.284 71.6923 154.426 67.7028 154.492C63.7133 154.557 57.7815 156.893 57.7815 156.893C57.7815 156.893 64.4745 148.522 53.0702 153.678C41.6791 158.848 41.2854 173.7 41.2854 173.7H41.3247C41.3247 173.936 41.2854 174.172 41.2854 174.409V185.115H42.5452L42.7683 178.751C43.0308 172.755 47.9783 168.019 53.9889 168.019H65.7999C71.6661 168.019 76.4955 172.637 76.758 178.502L76.9942 185.115H78.2803V174.409H78.3197Z" fill="#40514E"/>
<path d="M59.8018 293.726L23.7256 265.74H95.8781L59.8018 293.726Z" fill="#1679D3"/>
<path d="M81.1537 278.204H39.1194C37.5708 278.204 36.2584 277.036 36.101 275.488L32.8595 244.799C32.6757 243.002 34.08 241.441 35.8779 241.441H84.4083C86.2062 241.441 87.6104 243.002 87.4266 244.799L84.1852 275.488C84.0277 277.036 82.7153 278.204 81.1668 278.204H81.1537Z" fill="#40514E"/>
<path d="M79.3692 307.331C78.4374 309.483 75.7865 310.284 73.7917 309.037C67.8337 305.298 64.5528 300.05 66.2064 296.258C67.873 292.44 74.0017 291.272 80.8521 293.122C83.07 293.726 84.1986 296.205 83.2799 298.318L79.356 307.331H79.3692Z" fill="#40514E"/>
<path d="M82.6109 294.211L76.0098 309.614C77.414 309.562 78.7526 308.735 79.3694 307.331L83.2933 298.318C83.9232 296.888 83.582 295.287 82.6109 294.211Z" fill="#F7DF4F"/>
<path d="M71.0751 295.681L68.9228 300.325C68.0698 302.175 65.9307 303.041 64.0278 302.32L12.8202 283.033C7.08525 280.881 4.40808 274.307 6.98027 268.758C9.55246 263.208 16.311 261.017 21.6523 263.995L69.4346 290.656C71.2063 291.653 71.915 293.844 71.0619 295.681H71.0751Z" fill="#23312E"/>
<path d="M39.6974 304.603C40.5373 306.794 43.1489 307.712 45.1961 306.544C51.3116 303.067 54.8156 297.977 53.3326 294.106C51.8366 290.209 45.7604 288.792 38.8313 290.341C36.5871 290.839 35.3535 293.28 36.1803 295.431L39.6974 304.603Z" fill="#40514E"/>
<path d="M48.1619 293.28L50.1173 298.016C50.8915 299.892 52.9913 300.863 54.9204 300.22L106.915 283.177C112.729 281.275 115.708 274.819 113.372 269.164C111.036 263.509 104.383 261.03 98.9101 263.772L50.0123 288.32C48.2012 289.239 47.3876 291.39 48.1619 293.267V293.28Z" fill="#23312E"/>
<path d="M25.8516 244.472C25.8516 244.472 26.6652 260.387 35.4448 269.296L32.5052 244.104L25.8516 244.472Z" fill="#F8CA4D"/>
<path d="M94.1598 244.472C94.1598 244.472 93.3461 260.387 84.5665 269.296L87.5062 244.104L94.1598 244.472Z" fill="#F8CA4D"/>
<path d="M37.0327 291.364C36.0222 292.388 35.6153 293.975 36.1796 295.431L39.6967 304.603C40.2479 306.046 41.5602 306.912 42.9644 307.03L37.0195 291.364H37.0327Z" fill="#F7DF4F"/>
</g>
<defs>
<clipPath id="clip0_4507_2413">
<rect width="348" height="309" fill="white"/>
</clipPath>
</defs>
</svg>
