<?xml version="1.0" encoding="utf-8"?>
<!-- Generator: Adobe Illustrator 26.4.1, SVG Export Plug-In . SVG Version: 6.00 Build 0)  -->
<svg version="1.1" id="Layer_1" xmlns="http://www.w3.org/2000/svg" xmlns:xlink="http://www.w3.org/1999/xlink" x="0px" y="0px"
	 viewBox="0 0 960 560" style="enable-background:new 0 0 960 560;" xml:space="preserve">
<style type="text/css">
	.st0{fill:#93A5BA;}
</style>
<g id="WteTIT.tif">
	<g>
		<path class="st0" d="M466.5,182.3c24,0,48,0,71.9,0c2.2,0,4.4,0,6.5-0.4c10.2-2.1,17.1-11.3,16-21.5c-1-10.3-9.5-17.9-20.5-18
			c-49-0.1-97.9,0-146.9,0c-1.5,0-3,0.1-4.5,0.4c-10.2,2.1-17,11.3-16,21.5c1,10.1,9.4,17.9,20,17.9
			C417.5,182.4,442,182.3,466.5,182.3z M447.1,259.1c17.1,0,34.3,0,51.4,0c13.4,0,22.5-8.2,22.4-20.1c-0.1-11.7-9.1-19.8-22.2-19.8
			c-34.5,0-68.9,0-103.4,0c-13.4,0-22.5,8.1-22.4,20.1c0.1,11.9,9.1,19.8,22.7,19.8C412.8,259.1,430,259.1,447.1,259.1z M447.2,335
			c17.3,0,34.6,0,51.9,0c12.9,0,22-8.4,21.8-20.2c-0.1-11.6-9-19.7-21.7-19.8c-34.8,0-69.6,0-104.4,0c-12.9,0-21.9,8.4-21.8,20.1
			c0.1,11.6,9.1,19.7,21.7,19.8C412.2,335,429.7,335,447.2,335z M447.5,371.9c-17.6,0-35.3,0-52.9,0c-12.6,0-21.5,8.3-21.6,19.9
			c0,11.6,8.9,20,21.5,20c35,0,69.9,0,104.9,0c12.6,0,21.6-8.4,21.6-19.9c0-11.6-8.9-19.9-21.5-20
			C482.2,371.9,464.8,371.9,447.5,371.9z M647.9,192.3c-47.2-0.3-85.7,37.5-85.9,84.3c-0.2,46.8,37.7,85.1,84.3,85.3
			c46.9,0.2,85.3-37.5,85.6-84C732.3,231,694.5,192.6,647.9,192.3z M647.2,322c-24.9,0.1-45.2-20.2-45.1-45
			c0-24.6,20.2-44.7,44.8-44.8c24.9-0.1,45.2,20.2,45.1,45C691.9,301.8,671.8,321.9,647.2,322z"/>
		<path class="st0" d="M256,121.4c1.7-7.8,2.9-15.7,5.1-23.3c14.3-49.5,61-85.1,112.6-85.4c63-0.3,126-0.4,189,0
			c63.7,0.5,116.7,54.1,117.3,117.7c0.1,12.6-8.1,21.7-19.6,21.9c-11.6,0.2-20.1-8.7-20.3-21.2c-0.9-43.8-36.1-78.4-80-78.5
			c-61.3-0.1-122.7-0.1-184,0c-44.5,0.1-79.9,35.5-80,80c-0.1,90.3-0.1,180.6,0,271c0.1,44.7,35.5,79.9,80.4,80.1
			c30.3,0.1,60.7,0,91,0c10.6,0,18.8,7,20.3,17c1.5,9.4-4.1,18.3-13.6,21.9c-0.8,0.3-1.5,0.7-2.2,1c-35.7,0-71.3,0-107,0
			c-1.1-0.3-2.2-0.8-3.3-0.9c-50.2-5.8-92-43.6-102.8-92.8c-1.1-5-2-10.1-2.9-15.1C256,317,256,219.2,256,121.4z"/>
		<path class="st0" d="M544,523.6c-13.2-5.7-16.6-11.1-15.9-25.9c2.6-57.9,51.4-105,109.5-105.9c18.7-0.3,37.4-0.7,55.2,6.1
			c42.3,16.2,67.2,46.7,74.3,91.4c0.2,1.4,0.6,2.8,1,4.3c0,4.7,0,9.3,0,14c-2.6,8.1-7.9,13.4-16,16c-2.7,0-5.3,0-8,0
			c-11.4-3.9-15.9-11.9-16.2-23.9c-0.8-29.8-22.2-56.4-51.1-65.1c-12.7-3.8-25.7-3-38.7-2.8c-37,0.4-68.7,31-69.8,67.9
			c-0.4,12-4.8,20-16.2,23.9C549.3,523.6,546.7,523.6,544,523.6z"/>
		<path class="st0" d="M647.9,192.3c-47.2-0.3-85.7,37.5-85.9,84.3c-0.2,46.8,37.7,85.1,84.3,85.3c46.9,0.2,85.3-37.5,85.6-84
			C732.3,231,694.5,192.6,647.9,192.3z M647.2,322c-24.9,0.1-45.2-20.2-45.1-45c0-24.6,20.2-44.7,44.8-44.8
			c24.9-0.1,45.2,20.2,45.1,45C691.9,301.8,671.8,321.9,647.2,322z"/>
		<path class="st0" d="M466.5,182.3c-24.5,0-49,0.1-73.4,0c-10.6-0.1-19-7.8-20-17.9c-1-10.2,5.8-19.4,16-21.5
			c1.5-0.3,3-0.4,4.5-0.4c49,0,97.9,0,146.9,0c10.9,0,19.4,7.6,20.5,18c1,10.2-5.8,19.4-16,21.5c-2.1,0.4-4.3,0.4-6.5,0.4
			C514.4,182.3,490.5,182.3,466.5,182.3z"/>
		<path class="st0" d="M447.1,259.1c-17.1,0-34.3,0-51.4,0c-13.5,0-22.6-7.9-22.7-19.8c-0.1-11.9,9-20.1,22.4-20.1
			c34.5,0,68.9,0,103.4,0c13.1,0,22.1,8.1,22.2,19.8c0.1,11.9-9,20.1-22.4,20.1C481.4,259.1,464.3,259.1,447.1,259.1z"/>
		<path class="st0" d="M447.2,335c-17.5,0-35,0-52.4,0c-12.7,0-21.6-8.2-21.7-19.8c-0.1-11.8,8.9-20.1,21.8-20.1
			c34.8,0,69.6,0,104.4,0c12.7,0,21.6,8.2,21.7,19.8c0.1,11.8-8.9,20.1-21.8,20.2C481.8,335,464.5,335,447.2,335z"/>
		<path class="st0" d="M447.5,371.9c17.3,0,34.6,0,51.9,0c12.6,0,21.5,8.4,21.5,20c0,11.6-9,19.9-21.6,19.9c-35,0-69.9,0-104.9,0
			c-12.6,0-21.5-8.4-21.5-20c0-11.6,9-19.9,21.6-19.9C412.2,371.9,429.9,371.9,447.5,371.9z"/>
	</g>
</g>
</svg>
