<svg width="24" height="24" viewBox="0 0 24 24" fill="none" xmlns="http://www.w3.org/2000/svg">
<path d="M12.7551 23.9888H11.2558C11.2042 23.9756 11.153 23.954 11.1009 23.9503C9.9095 23.8663 8.76224 23.5916 7.64737 23.1664C2.54103 21.2211 -0.661821 15.7993 0.116006 10.3925C0.527687 7.53093 1.76602 5.0815 3.91877 3.14562C6.77894 0.57367 10.147 -0.417274 13.947 0.158703C16.2321 0.504665 18.2431 1.4881 19.9649 3.03155C22.0341 4.88623 23.3274 7.1845 23.8156 9.92591C23.893 10.362 23.9395 10.8033 24.0005 11.2422V12.695C23.9869 12.7701 23.971 12.8448 23.9606 12.9203C23.8954 13.3912 23.8541 13.8667 23.7639 14.3328C22.8331 19.1599 18.9228 22.9791 14.0709 23.8048C13.6348 23.8789 13.194 23.9282 12.7556 23.9888H12.7551ZM2.01528 11.981C2.01997 17.5098 6.46162 21.9707 11.9764 21.9848C17.5141 21.9989 22.0078 17.5056 21.9966 11.9651C21.9853 6.45127 17.5146 1.9946 11.9979 1.99883C6.48321 2.00305 2.01105 6.47474 2.01528 11.981Z" fill="#FE0000"/>
<path d="M11.9971 13.4084C11.247 14.1608 10.5213 14.9021 9.77773 15.6254C9.62235 15.7766 9.4158 15.9085 9.20973 15.9681C8.78537 16.0906 8.34553 15.8794 8.13006 15.5053C7.9038 15.1133 7.95826 14.6368 8.29155 14.2984C8.98676 13.5919 9.69041 12.8934 10.3936 12.1944C10.4537 12.1348 10.5335 12.0954 10.6189 12.0363C10.5171 11.9264 10.4621 11.864 10.403 11.8048C9.71342 11.1143 9.01774 10.4299 8.3352 9.73281C7.76063 9.14651 8.0113 8.22457 8.79101 8.03586C9.17358 7.94339 9.49608 8.06731 9.76975 8.34145C10.4481 9.02117 11.1278 9.69901 11.8056 10.3792C11.8652 10.4393 11.9126 10.5116 11.9765 10.5923C12.0722 10.5031 12.1352 10.4482 12.1943 10.3895C12.89 9.69432 13.5796 8.99301 14.2827 8.30484C14.8451 7.75421 15.7379 7.97155 15.9562 8.70713C16.0759 9.11083 15.9576 9.45773 15.6614 9.75253C14.9808 10.4294 14.3039 11.1106 13.6232 11.7879C13.5627 11.848 13.4871 11.8926 13.3993 11.9588C13.4913 12.0564 13.5467 12.1179 13.6049 12.1766C14.2945 12.8671 14.9859 13.5558 15.6736 14.2477C15.9534 14.5293 16.0604 14.8659 15.9473 15.2551C15.8375 15.6329 15.5807 15.8681 15.2009 15.9536C14.8273 16.0376 14.5109 15.9146 14.2438 15.6466C13.5603 14.9612 12.8754 14.2773 12.191 13.5928C12.1366 13.5384 12.0793 13.4863 11.9971 13.4084Z" fill="#FE0000"/>
</svg>
