<svg width="10" height="10" viewBox="0 0 10 10" fill="none" xmlns="http://www.w3.org/2000/svg">
<path d="M4.99812 6.40837C4.24799 7.16085 3.52226 7.90206 2.7787 8.62543C2.62333 8.77659 2.41678 8.90849 2.21071 8.96811C1.78635 9.09063 1.3465 8.87939 1.13104 8.50526C0.904781 8.1133 0.959234 7.63684 1.29252 7.29838C1.98773 6.59191 2.69139 5.89341 3.39458 5.19445C3.45467 5.13483 3.53447 5.0954 3.6199 5.03625C3.51804 4.92641 3.46312 4.86398 3.40397 4.80483C2.71439 4.11431 2.01871 3.4299 1.33618 2.73281C0.761609 2.14651 1.01228 1.22457 1.79198 1.03586C2.17456 0.943387 2.49705 1.06731 2.77072 1.34145C3.44903 2.02117 4.12875 2.69901 4.80659 3.3792C4.86621 3.43929 4.91362 3.51158 4.97746 3.59232C5.07322 3.50313 5.13613 3.44821 5.19527 3.38953C5.89095 2.69432 6.58053 1.99301 7.28372 1.30484C7.84608 0.754211 8.73892 0.971552 8.9572 1.70713C9.0769 2.11083 8.95861 2.45773 8.66241 2.75253C7.98175 3.42943 7.30484 4.11056 6.62419 4.78793C6.56363 4.84802 6.48805 4.89261 6.40027 4.9588C6.49228 5.05644 6.54767 5.11793 6.60588 5.17661C7.29545 5.86713 7.98691 6.55576 8.67461 7.24769C8.95438 7.52934 9.06141 7.86591 8.94828 8.25506C8.83844 8.63294 8.58166 8.86812 8.2019 8.95356C7.82825 9.03758 7.51186 8.9146 7.24476 8.64656C6.56128 7.96121 5.8764 7.27726 5.19199 6.59285C5.13753 6.5384 5.08027 6.48629 4.99812 6.40837Z" fill="#FE0000"/>
</svg>
