<svg width="24" height="23" viewBox="0 0 24 23" fill="none" xmlns="http://www.w3.org/2000/svg">
<path d="M23.6563 21.5056L17.0483 15.1668C18.6362 13.3381 19.4281 10.9926 19.2591 8.61813C19.0902 6.24368 17.9734 4.02312 16.1411 2.41839C14.3089 0.813664 11.9022 -0.0516748 9.42175 0.00238893C6.94132 0.0564526 4.5781 1.02576 2.82371 2.70866C1.06933 4.39156 0.0588506 6.65848 0.0024904 9.03785C-0.0538698 11.4172 0.848226 13.7258 2.52112 15.4834C4.19401 17.241 6.50889 18.3123 8.98421 18.4744C11.4595 18.6365 13.9047 17.8769 15.811 16.3536L22.419 22.6924L23.6563 21.5056ZM1.78129 9.26283C1.78129 7.76877 2.24315 6.30826 3.10847 5.06599C3.97378 3.82372 5.20369 2.85549 6.64266 2.28373C8.08163 1.71198 9.66503 1.56238 11.1926 1.85386C12.7202 2.14534 14.1234 2.8648 15.2248 3.92126C16.3261 4.97772 17.0761 6.32374 17.38 7.7891C17.6838 9.25445 17.5279 10.7733 16.9318 12.1537C16.3358 13.534 15.3264 14.7138 14.0314 15.5439C12.7364 16.3739 11.2138 16.817 9.65629 16.817C7.56842 16.8147 5.56673 16.0181 4.09038 14.602C2.61404 13.1858 1.78361 11.2656 1.78129 9.26283Z" fill="#274C77"/>
</svg>
