<svg width="7" height="6" viewBox="0 0 7 6" fill="none" xmlns="http://www.w3.org/2000/svg">
<path d="M2.67767 3.24992C3.57629 2.37405 4.43754 1.53621 5.29609 0.695727C5.52088 0.475966 5.77979 0.353935 6.09992 0.420497C6.72771 0.551509 6.95846 1.26785 6.51809 1.74012C6.23913 2.03912 5.93525 2.31541 5.64167 2.60121C4.88279 3.34079 4.12392 4.0809 3.36342 4.81889C2.90409 5.26423 2.46642 5.26 2.00329 4.80991C1.50496 4.32601 1.00121 3.84687 0.512085 3.35452C0.0419182 2.88172 0.244502 2.15693 0.881502 2.0069C1.18971 1.93453 1.45188 2.03384 1.66963 2.24726C1.9995 2.57057 2.32504 2.89809 2.67821 3.2494L2.67767 3.24992Z" fill="#274C77"/>
</svg>
