<?xml version="1.0" encoding="utf-8"?>
<!-- Generator: Adobe Illustrator 26.4.1, SVG Export Plug-In . SVG Version: 6.00 Build 0)  -->
<svg version="1.1" id="Layer_1" xmlns="http://www.w3.org/2000/svg" xmlns:xlink="http://www.w3.org/1999/xlink" x="0px" y="0px"
	 viewBox="0 0 960 560" style="enable-background:new 0 0 960 560;" xml:space="preserve">
<style type="text/css">
	.st0{fill:#1C4C7B;}
</style>
<g id="B7j6jo.tif">
	<g>
		<path class="st0" d="M726.4,535.5c-112.7,0-225.3,0-338,0c-8.6-4-11.2-10.8-11.1-20.1c0.4-35.7,0.2-71.4,0-107.1
			c0-2-0.9-4.7-2.3-5.7c-4.9-3.4-10.2-6.2-16.7-10c-0.7,1.1-1.4,2.9-2.7,4.2c-15.4,15.4-30.8,30.8-46.2,46.2
			c-8.4,8.3-16.7,16.7-25.1,25c-9.2,9-20.3,7.2-26-4.3c-0.2-0.4-0.6-0.7-0.9-1c0-2.7,0-5.3,0-8c3.2-3.9,6.1-8.2,9.7-11.8
			c22.4-22.6,45-45,67.5-67.4c1.3-1.3,2.5-2.6,3.7-3.9c-0.8-1.2-1.3-2-1.9-2.8c-36-52.6-18.8-122.7,37.7-152.6
			c2.9-1.5,3.5-3.3,3.5-6.2c-0.1-25.9-0.1-51.9-0.1-77.8c0-10,3.5-14.8,13.2-17.9c23.3-7.5,46.5-15.1,69.8-22.6
			c66-21.3,131.9-42.7,197.9-64c25.8-8.3,53,0.2,67.9,22.5c5.2,7.8,7.6,17.4,11.2,26.2c0,149.4,0,298.8,0,448.2
			C735,529.5,731.3,533.2,726.4,535.5z M707.4,505.4c0-2.1,0-3.8,0-5.4c0-137.6,0-275.1,0-412.7c0-1.5,0.1-3-0.1-4.5
			c-1-11.9-6.8-20.8-17.8-25.7c-11.2-5-22-3.4-31.3,4.4c-9.2,7.7-12.6,17.8-10,29.6c3.1,13.7,14,22.3,29.3,23.3
			c8.2,0.5,14.3,6.3,14.8,14.1c0.4,7.3-4.7,14-12.1,15.5c-2.1,0.4-4.3,0.3-6.5,0.3c-86.8,0-173.6,0-260.5,0c-1.9,0-3.8,0-5.7,0
			c0,20.7,0,40.6,0,60.9c20.4-2.7,39.7,0,58.2,8.4c18.3,8.3,33.1,21,44.2,37.8c11.2,16.9,17.1,35.6,17.3,55.9
			c0.3,28.2-9.1,53-28.5,73.4c-24.7,26-55.4,36.1-91.1,32.3c0,30.9,0,61.6,0,92.5C507.5,505.4,607.1,505.4,707.4,505.4z
			 M422.1,383.8c41.4,0.1,75.2-33.4,75.3-74.6c0.1-41.3-33.5-75-74.7-75.1c-41.4-0.1-75.2,33.4-75.3,74.6
			C347.3,350,380.8,383.7,422.1,383.8z M624.1,114.2c-2.1-7.2-4.8-13.8-5.8-20.8c-1-6.8-0.2-13.9-0.2-21.3
			c-43,13.9-85.4,27.6-127.8,41.3c0.1,0.3,0.2,0.5,0.2,0.8C535.2,114.2,579.8,114.2,624.1,114.2z"/>
		<path class="st0" d="M602.5,228.3c5.3-5.6,10-10.5,14.8-15.3c11.3-11.3,22.5-22.7,33.9-33.9c6.5-6.4,15.4-6.6,21.5-0.8
			c6.1,5.8,6.4,15.1,0.1,21.5c-19.8,20-39.7,39.9-59.7,59.6c-6.4,6.3-15.1,6.2-21.5,0c-10-9.7-19.9-19.6-29.7-29.6
			c-6.1-6.2-6-15.2-0.3-21.1c5.9-6,15.1-6.1,21.5,0.1C589.5,214.8,595.5,221.3,602.5,228.3z"/>
		<path class="st0" d="M602.7,317.1c1.2-1.1,2.5-2.3,3.8-3.6c14.6-14.6,29.2-29.2,43.8-43.7c7.2-7.2,16.3-7.6,22.6-1.3
			c6.3,6.3,5.8,15.4-1.4,22.6c-19,19.1-38.1,38.2-57.3,57.2c-7.8,7.8-16.2,7.6-24-0.2c-9.1-9-18.2-18.1-27.2-27.2
			c-7.1-7.2-7.6-16.3-1.2-22.6c6.2-6.1,15.2-5.7,22.2,1.2c5.8,5.7,11.6,11.5,17.4,17.2C601.7,316.9,602.1,316.9,602.7,317.1z"/>
		<path class="st0" d="M602.2,407.8c16.6-16.6,32.5-32.4,48.3-48.3c4.1-4.2,8.9-6.5,14.8-5.2c11.6,2.5,15.9,16,7.7,25
			c-5.1,5.7-10.8,10.9-16.2,16.3c-14,14-28,28-42.1,42c-8.5,8.4-16.6,8.3-25.1-0.2c-9.2-9.2-18.5-18.2-27.5-27.6
			c-8.7-9-4.9-22.7,6.8-25.5c5.7-1.4,10.5,0.5,14.5,4.5C589.7,394.9,595.7,401.1,602.2,407.8z"/>
	</g>
</g>
</svg>
