<svg width="495" height="201" viewBox="0 0 495 201" fill="none" xmlns="http://www.w3.org/2000/svg">
<g clip-path="url(#clip0_4507_2369)">
<path d="M401.36 141.43C416.59 145.44 431.6 149.99 446.01 156.56C457.8 161.94 469.49 167.43 480.07 174.91C485.5 178.75 489.65 184.1 493.73 189.35C495.27 191.33 494.3 192.9 492.02 193.33C490.41 193.63 488.7 193.48 487.04 193.48C365.8 193.48 244.56 193.49 123.31 193.45C119.39 193.45 115.91 193.76 112.68 196.6C109.76 199.17 94.06 197.67 91.32 194.93C89.8 193.42 89.06 194 87.67 195.14C83.76 198.36 78.62 198.73 74.04 200.37C72.07 201.07 70.37 199.97 70.64 197.46C71.08 193.35 68.46 193.45 65.59 193.45C45.61 193.5 25.62 193.49 5.64001 193.45C3.74001 193.45 1.18001 194.29 0.230007 192.04C-0.649993 189.96 1.27001 188.39 2.65001 186.97C12.65 176.73 24.11 168.67 37.02 162.36C46.71 157.63 56.43 153.11 66.57 149.5C68.56 149.5 70.31 148.87 71.76 147.48C76.34 146.16 80.88 144.62 85.52 143.56C94.47 141.52 103.54 139.63 112.23 137.02C123.73 133.56 135.6 133.36 147.1 130.65C147.72 130.5 148.42 130.69 149.08 130.72C145.56 134.55 145.08 139.16 144.96 144.16C144.83 149.28 146.65 150.61 151.62 150.6C204.56 150.46 257.51 150.55 310.45 150.57C317.26 150.57 317.8 150.49 317.18 143.54C316.6 137.01 316.75 131.09 321.83 126.28C329.75 127.67 337.61 129.6 345.59 130.34C359.57 131.65 373.21 134.52 386.81 137.79C388.78 138.26 390.69 138.51 392.67 138.52C395.07 140.98 398.38 140.74 401.38 141.44L401.36 141.43Z" fill="#F5F4F4"/>
<path d="M231.81 59.33C251.23 65.39 264.52 77.54 269.91 97.58C271.79 104.56 271.87 111.68 271.68 118.81C271.62 121.06 271.9 122.52 274.74 122.71C277.7 122.91 279.41 124.97 279.87 127.93C279.59 132.84 276.5 134.37 272.12 134.36C260.64 134.35 249.15 134.46 237.67 134.27C234.11 134.21 231.41 135.1 228.78 137.63C224.59 141.67 219.77 144.93 213.72 145.68C211.83 143.72 211.22 145.43 210.5 146.81C210.09 146.84 209.68 146.87 209.26 146.91C208.71 147.02 208.16 147.13 207.61 147.24C203.57 147.69 199.54 147.89 195.53 146.94C194.74 144.54 193.45 143.72 191.3 145.58C190.35 145.39 189.39 145.2 188.44 145.01C188.88 144.34 189.2 143.5 189.8 143.02C191.04 142.03 192.45 140.66 191.08 139.46C189.34 137.94 188.94 140.42 188.02 141.3C187.2 142.08 186.27 142.75 185.38 143.47C184.65 143.56 184.02 143.41 183.59 142.76C183.36 141.64 182.55 141.37 181.55 141.39C181.21 141.46 180.95 141.35 180.77 141.05C180.48 140.29 181.11 138.52 179.16 139.59C178.44 139.59 177.87 139.34 177.62 138.6C177.26 138.23 176.9 137.85 176.54 137.48L176.56 137.51C178.22 133.75 179.65 136.66 181.28 137.59C182.92 138.52 184.43 141.31 185.42 136.28C186.31 131.78 189.22 126.91 195.24 126.3C197.48 126.92 199.68 127.75 201.96 128.13C208.85 129.26 215.63 126.11 219.03 120.33C222.72 114.05 222.09 107.88 218.11 102.04C216.39 99.51 213.89 97.12 210.61 99.23C207.31 101.35 208.29 104.08 210.35 106.9C213.45 111.14 212.71 115.74 208.91 118.19C204.76 120.87 198.48 119.09 195.99 114.52C191.83 106.9 196.48 95.27 204.73 92.66C215.55 89.23 225.67 95.53 227.37 107.02C227.83 110.17 228.98 113.2 232 112.93C235.59 112.61 236.86 109.21 236.26 105.67C235.62 101.91 234.53 98.31 232.52 94.95C227.73 86.93 220.36 83.56 211.48 82.66C207.46 80.43 206.2 76.68 208.49 73.75C212.17 69.05 211.31 66.51 205.7 65.51C202.54 64.95 200.42 61.9 201.57 59.58C201.86 59.41 202.18 59.36 202.51 59.41C205.31 60.94 207.77 60.8 209.67 57.94C210.32 57.87 210.97 57.79 211.61 57.72C211.74 58.02 212 58.33 211.96 58.61C211.68 61 212.83 61.77 215.04 61.41C216.21 61.22 218.04 61.89 218.14 60.04C218.26 57.95 215.7 59.03 214.87 57.86C214.78 57.73 214.66 57.61 214.55 57.49C216.56 57.49 218.57 57.49 220.58 57.49C224.18 58.88 227.96 59.19 231.78 59.28L231.81 59.33Z" fill="#2279C5"/>
<path d="M195.55 146.95C199.56 147.9 203.59 147.7 207.63 147.25C208.18 147.14 208.73 147.03 209.28 146.92C209.69 146.89 210.1 146.86 210.52 146.82C211.81 147.06 212.87 146.66 213.74 145.69C219.79 144.93 224.6 141.68 228.8 137.64C231.43 135.11 234.13 134.22 237.69 134.28C249.17 134.47 260.66 134.35 272.14 134.37C276.52 134.37 279.61 132.85 279.89 127.94C280.84 127.99 281.8 127.96 282.74 128.1C289.96 129.16 295.61 127.36 298.45 119.91C299.86 116.21 302.04 114.69 305.69 117.83C307.09 119.04 309.01 119.64 310.69 120.53C309.04 122.87 306.67 124.85 306.35 129.26C309.4 126.06 311.07 123.36 312.48 120.45C315.66 119.55 318.86 118.67 322.03 117.72C323.42 117.3 324.84 117.27 325.66 118.49C326.47 119.7 325.02 120.55 324.53 121.53C323.71 123.16 322.74 124.7 321.83 126.28C316.75 131.1 316.6 137.01 317.18 143.54C317.8 150.48 317.26 150.57 310.45 150.57C257.51 150.55 204.56 150.46 151.62 150.6C146.65 150.61 144.83 149.28 144.96 144.16C145.09 139.16 145.56 134.55 149.08 130.72C155.13 126.83 161.87 128.35 168.4 128.22C171.02 131.42 172.67 135.47 176.59 137.54L176.57 137.51C176.93 137.88 177.29 138.26 177.65 138.63C177.9 139.37 178.47 139.62 179.19 139.62C179.41 140.46 179.8 141.1 180.79 141.08C180.97 141.37 181.23 141.48 181.57 141.42C182.02 142.22 182.65 142.74 183.61 142.79C184.04 143.44 184.67 143.59 185.4 143.5C186.2 144.46 187.15 145.1 188.46 145.04C189.41 145.23 190.37 145.42 191.33 145.61C192.51 146.79 193.96 147.11 195.56 146.97L195.55 146.95Z" fill="#F1404D"/>
<path d="M176.58 137.52C172.66 135.46 171.01 131.4 168.39 128.2C156.66 98.7501 169.52 69.4101 198.21 60.1801C199.28 59.8301 200.46 59.7901 201.58 59.6101C200.43 61.9301 205.84 63.4401 209 64.0001C214.61 65.0001 212.18 69.0801 208.5 73.7801C206.21 76.7001 207.48 80.4601 211.5 82.6901C198.53 83.3001 190.95 88.6301 187.37 99.7801C184.37 109.12 185.5 119.97 195.24 126.32C189.22 126.92 186.31 131.79 185.42 136.3C184.43 141.32 182.92 138.54 181.28 137.61C179.65 136.68 178.22 133.77 176.56 137.53L176.58 137.52Z" fill="#2279C5"/>
<path d="M346.2 107.88C345.14 107.88 344.07 107.87 343.01 107.86C341.45 107.48 339.79 107.33 338.36 106.68C335.12 105.21 333.61 106.64 332.78 109.58C330.53 109.42 328.29 109.26 326.04 109.09C322.35 107.33 318.31 107.39 314.37 106.89C308.84 105 303.06 104.25 297.34 103.34C292.85 102.63 292.02 100.54 293.23 96.4401C296.15 86.5801 305.38 80.1101 315.63 81.4201C318.21 81.7501 320.44 81.4401 322.87 80.7301C337.31 76.4801 351.62 88.4601 349.69 103.15C349.4 105.33 349.56 108.15 345.99 107.88H346.2V107.88Z" fill="#F1404D"/>
<path d="M401.36 141.43C398.36 140.73 395.05 140.98 392.65 138.51C392.65 136.85 392.53 135.17 392.69 133.52C392.99 130.49 392.25 128.7 388.84 127.85C385.3 126.97 383.23 123.89 381.67 120.64C378.64 114.31 379.5 107.61 379.87 100.99C380 98.7301 381.75 97.5001 384.07 97.5901C386.67 97.6901 387.36 99.5801 387.42 101.73C387.51 104.72 387.32 107.73 387.44 110.72C387.51 112.53 387.85 114.34 388.24 116.11C388.64 117.92 389.39 120.29 391.38 120.03C393.53 119.75 392.5 117.24 392.47 115.77C392.27 105.63 391.95 95.5001 391.61 85.3601C391.48 81.6501 392.1 78.6201 396.71 78.4501C401.6 78.2701 402.46 81.4701 402.48 85.3301C402.5 90.7901 402.48 96.2501 402.48 102.24C407.6 99.6701 406.55 94.9701 407.43 91.2601C407.96 89.0401 407.41 86.6601 406.91 84.3501C406.37 81.8101 407.75 80.0401 410.23 79.6901C412.54 79.3601 414.17 80.8001 414.41 83.0501C415.08 89.3201 415.44 95.6001 413.24 101.73C411.8 105.73 409.43 108.85 405.24 109.98C402.19 110.8 401.52 112.58 401.55 115.46C401.62 124.12 401.44 132.77 401.36 141.43V141.43Z" fill="#BFBFBF"/>
<path d="M221.85 0C235.25 0.73 246.99 5.67 256.05 16.33C257.87 18.47 259.58 20.84 256.79 23.23C254.19 25.46 252.21 23.52 250.52 21.5C234.9 2.9 206.05 3.28 191.11 21.8C189.39 23.93 187.32 25.57 184.8 23.43C182 21.05 183.73 18.69 185.56 16.56C195 5.51 207.11 0.3 221.85 0Z" fill="#274C77"/>
<path d="M218.67 17.6699C230.82 17.6199 239.48 21.5299 246.38 29.3599C248.22 31.4499 249.31 33.6899 246.93 35.8999C244.64 38.0099 242.79 36.4899 240.96 34.6999C227.77 21.7999 214.09 21.8799 200.77 34.9199C198.93 36.7199 197.06 38.1199 194.73 36.2099C192.12 34.0799 193.28 31.8099 195.06 29.7199C201.7 21.9199 210.17 17.9599 218.67 17.6699V17.6699Z" fill="#274C77"/>
<path d="M71.76 147.48C70.31 148.87 68.57 149.5 66.57 149.5C66.84 146.62 66.17 144.73 63.05 143.34C58.33 141.24 55.66 130.6 58.18 125.91C58.82 124.71 59.74 123.53 61.33 124.26C62.82 124.95 63.65 126.23 63.11 127.94C61.99 131.51 62.99 134.67 65.64 137.74C65.64 132.44 65.64 127.14 65.64 121.84C65.64 119.84 65.63 117.84 65.62 115.85C65.62 113.65 66.11 111.65 68.81 111.78C71.1 111.89 72.43 113.39 72.48 115.73C72.55 119.04 72.5 122.35 72.5 126.77C75.8 123.45 75.87 120.32 75.38 117.18C75.04 115.03 74.55 112.91 77.54 112.77C80.35 112.64 80.47 114.93 80.51 117C80.62 123.25 80.87 129.52 73.7 132.68C71.73 133.55 71.91 135.78 71.81 137.51C71.63 140.83 71.76 144.17 71.77 147.5L71.76 147.48Z" fill="#BFBFBF"/>
<path d="M234.89 44.1599C234.9 45.9799 234.23 47.0799 232.99 47.7699C231.32 48.6999 229.82 48.1599 228.36 47.1599C223.353 43.7132 218.343 43.7266 213.33 47.1999C211.53 48.4499 209.65 48.9699 207.89 47.3499C206.37 45.9499 206.13 44.1699 207.39 42.4199C210.76 37.7099 215.56 35.7299 221.15 35.7999C226.58 35.8799 231.12 38.0799 234.3 42.6399C234.66 43.1599 234.78 43.8399 234.9 44.1499L234.89 44.1599Z" fill="#274C77"/>
<path d="M314.37 106.89C318.3 107.39 322.34 107.33 326.04 109.09C321.32 114.2 316.79 113.35 314.37 106.89Z" fill="#1A2D76"/>
<path d="M332.77 109.58C333.6 106.64 335.11 105.22 338.35 106.68C339.78 107.33 341.45 107.48 343 107.86C339.5 112.39 337.53 112.73 332.77 109.58V109.58Z" fill="#1A2D76"/>
<path d="M214.59 57.5401C214.7 57.6601 215.9 57.87 216 58C216.83 59.17 218.3 58.0001 218.18 60.0901C218.07 61.9401 216.25 61.2601 215.08 61.4601C212.87 61.8201 211.22 61.4 211.5 59C211.53 58.72 211.77 58.0701 211.65 57.7701C212.59 57.0801 213.58 57.0701 214.6 57.5501L214.59 57.5401Z" fill="#2279C5"/>
<path d="M312.46 120.44C311.06 123.34 309.38 126.05 306.33 129.25C306.65 124.84 309.02 122.87 310.67 120.52C311.27 120.49 311.86 120.47 312.46 120.44Z" fill="#DBDBDB"/>
<path d="M231.81 59.33C228 59.24 224.22 58.93 220.61 57.54C224.53 56.99 228.25 57.62 231.81 59.33Z" fill="#2279C5"/>
<path d="M209.69 57.98C207.79 60.83 205.33 60.97 202.53 59.45C204.78 58.32 207.12 57.56 209.69 57.98Z" fill="#2279C5"/>
<path d="M195.25 126.32C185.5 119.96 184.38 109.12 187.38 99.7799C190.96 88.6199 198.53 83.2999 211.51 82.6899C220.39 83.5799 227.76 86.9499 232.55 94.9799C234.56 98.3399 235.65 101.94 236.29 105.7C236.89 109.24 235.62 112.64 232.03 112.96C229 113.23 227.86 110.2 227.4 107.05C225.7 95.5599 215.58 89.2599 204.76 92.6899C196.51 95.2999 191.87 106.93 196.02 114.55C198.51 119.12 204.79 120.9 208.94 118.22C212.74 115.77 213.48 111.17 210.38 106.93C208.32 104.11 207.35 101.37 210.64 99.2599C213.92 97.1499 216.41 99.5399 218.14 102.07C222.12 107.91 222.75 114.07 219.06 120.36C215.67 126.13 208.88 129.29 201.99 128.16C199.71 127.79 197.51 126.96 195.27 126.33L195.25 126.32Z" fill="#274C77"/>
<path d="M188.46 145.02C187.15 145.08 186.2 144.44 185.4 143.48C186.28 142.76 187.21 142.09 188.03 141.31C188.95 140.43 189.36 137.95 191.09 139.47C192.47 140.68 191.06 142.04 189.81 143.03C189.21 143.51 188.9 144.34 188.45 145.02H188.46Z" fill="#2279C5"/>
<path d="M195.55 146.95C193.95 147.1 192.18 146.69 191 145.5C193.179 142.41 194.76 144.54 195.55 146.95Z" fill="#2279C5"/>
<path d="M213.73 145.69C212.87 146.66 211.8 147.05 210.51 146.82C211.23 145.44 211.84 143.74 213.73 145.69Z" fill="#2279C5"/>
<path d="M180.78 141.07C179.79 141.09 179.4 140.45 179.18 139.61C181.12 138.54 180.49 140.31 180.78 141.07Z" fill="#2279C5"/>
<path d="M183.6 142.77C182.65 142.72 182.02 142.2 181.56 141.4C182.56 141.38 183.36 141.65 183.6 142.77Z" fill="#2279C5"/>
<path d="M209.28 146.91C208.73 147.02 208.18 147.13 207.63 147.24C208.18 147.13 208.73 147.02 209.28 146.91Z" fill="#3995FA"/>
<path d="M177.64 138.62C177.28 138.25 176.92 137.87 176.56 137.5C176.92 137.87 177.28 138.25 177.64 138.62Z" fill="#3995FA"/>
</g>
<defs>
<clipPath id="clip0_4507_2369">
<rect width="494.48" height="200.58" fill="white"/>
</clipPath>
</defs>
</svg>
