<svg width="122" height="15" viewBox="0 0 122 15" fill="none" xmlns="http://www.w3.org/2000/svg">
<path d="M4.35938 8.5625L6.61719 0.625H7.71094L7.07812 3.71094L4.64844 12H3.5625L4.35938 8.5625ZM2.02344 0.625L3.82031 8.40625L4.35938 12H3.28125L0.523438 0.625H2.02344ZM10.6328 8.39844L12.3906 0.625H13.8984L11.1484 12H10.0703L10.6328 8.39844ZM7.875 0.625L10.0703 8.5625L10.8672 12H9.78125L7.4375 3.71094L6.79688 0.625H7.875ZM18.6094 12.1562C18.0208 12.1562 17.487 12.0573 17.0078 11.8594C16.5339 11.6562 16.125 11.3724 15.7812 11.0078C15.4427 10.6432 15.1823 10.2109 15 9.71094C14.8177 9.21094 14.7266 8.66406 14.7266 8.07031V7.74219C14.7266 7.05469 14.8281 6.44271 15.0312 5.90625C15.2344 5.36458 15.5104 4.90625 15.8594 4.53125C16.2083 4.15625 16.6042 3.8724 17.0469 3.67969C17.4896 3.48698 17.9479 3.39062 18.4219 3.39062C19.026 3.39062 19.5469 3.49479 19.9844 3.70312C20.4271 3.91146 20.7891 4.20312 21.0703 4.57812C21.3516 4.94792 21.5599 5.38542 21.6953 5.89062C21.8307 6.39062 21.8984 6.9375 21.8984 7.53125V8.17969H15.5859V7H20.4531V6.89062C20.4323 6.51562 20.3542 6.15104 20.2188 5.79688C20.0885 5.44271 19.8802 5.15104 19.5938 4.92188C19.3073 4.69271 18.9167 4.57812 18.4219 4.57812C18.0938 4.57812 17.7917 4.64844 17.5156 4.78906C17.2396 4.92448 17.0026 5.1276 16.8047 5.39844C16.6068 5.66927 16.4531 6 16.3438 6.39062C16.2344 6.78125 16.1797 7.23177 16.1797 7.74219V8.07031C16.1797 8.47135 16.2344 8.84896 16.3438 9.20312C16.4583 9.55208 16.6224 9.85938 16.8359 10.125C17.0547 10.3906 17.3177 10.599 17.625 10.75C17.9375 10.901 18.2917 10.9766 18.6875 10.9766C19.1979 10.9766 19.6302 10.8724 19.9844 10.6641C20.3385 10.4557 20.6484 10.1771 20.9141 9.82812L21.7891 10.5234C21.6068 10.7995 21.375 11.0625 21.0938 11.3125C20.8125 11.5625 20.4661 11.7656 20.0547 11.9219C19.6484 12.0781 19.1667 12.1562 18.6094 12.1562ZM25.1562 0V12H23.7031V0H25.1562ZM30.8594 10.9688C31.2031 10.9688 31.5208 10.8984 31.8125 10.7578C32.1042 10.6172 32.3438 10.4245 32.5312 10.1797C32.7188 9.92969 32.8255 9.64583 32.8516 9.32812H34.2266C34.2005 9.82812 34.0312 10.2943 33.7188 10.7266C33.4115 11.1536 33.0078 11.5 32.5078 11.7656C32.0078 12.026 31.4583 12.1562 30.8594 12.1562C30.224 12.1562 29.6693 12.0443 29.1953 11.8203C28.7266 11.5964 28.3359 11.2891 28.0234 10.8984C27.7161 10.5078 27.4844 10.0599 27.3281 9.55469C27.1771 9.04427 27.1016 8.50521 27.1016 7.9375V7.60938C27.1016 7.04167 27.1771 6.50521 27.3281 6C27.4844 5.48958 27.7161 5.03906 28.0234 4.64844C28.3359 4.25781 28.7266 3.95052 29.1953 3.72656C29.6693 3.5026 30.224 3.39062 30.8594 3.39062C31.5208 3.39062 32.099 3.52604 32.5938 3.79688C33.0885 4.0625 33.4766 4.42708 33.7578 4.89062C34.0443 5.34896 34.2005 5.86979 34.2266 6.45312H32.8516C32.8255 6.10417 32.7266 5.78906 32.5547 5.50781C32.388 5.22656 32.1589 5.0026 31.8672 4.83594C31.5807 4.66406 31.2448 4.57812 30.8594 4.57812C30.4167 4.57812 30.0443 4.66667 29.7422 4.84375C29.4453 5.01562 29.2083 5.25 29.0312 5.54688C28.8594 5.83854 28.7344 6.16406 28.6562 6.52344C28.5833 6.8776 28.5469 7.23958 28.5469 7.60938V7.9375C28.5469 8.30729 28.5833 8.67188 28.6562 9.03125C28.7292 9.39062 28.8516 9.71615 29.0234 10.0078C29.2005 10.2995 29.4375 10.5339 29.7344 10.7109C30.0365 10.8828 30.4115 10.9688 30.8594 10.9688ZM35.4688 7.86719V7.6875C35.4688 7.07812 35.5573 6.51302 35.7344 5.99219C35.9115 5.46615 36.1667 5.01042 36.5 4.625C36.8333 4.23438 37.237 3.93229 37.7109 3.71875C38.1849 3.5 38.7161 3.39062 39.3047 3.39062C39.8984 3.39062 40.4323 3.5 40.9062 3.71875C41.3854 3.93229 41.7917 4.23438 42.125 4.625C42.4635 5.01042 42.7214 5.46615 42.8984 5.99219C43.0755 6.51302 43.1641 7.07812 43.1641 7.6875V7.86719C43.1641 8.47656 43.0755 9.04167 42.8984 9.5625C42.7214 10.0833 42.4635 10.5391 42.125 10.9297C41.7917 11.3151 41.388 11.6172 40.9141 11.8359C40.4453 12.0495 39.9141 12.1562 39.3203 12.1562C38.7266 12.1562 38.1927 12.0495 37.7188 11.8359C37.2448 11.6172 36.8385 11.3151 36.5 10.9297C36.1667 10.5391 35.9115 10.0833 35.7344 9.5625C35.5573 9.04167 35.4688 8.47656 35.4688 7.86719ZM36.9141 7.6875V7.86719C36.9141 8.28906 36.9635 8.6875 37.0625 9.0625C37.1615 9.43229 37.3099 9.76042 37.5078 10.0469C37.7109 10.3333 37.9635 10.5599 38.2656 10.7266C38.5677 10.888 38.9193 10.9688 39.3203 10.9688C39.7161 10.9688 40.0625 10.888 40.3594 10.7266C40.6615 10.5599 40.9115 10.3333 41.1094 10.0469C41.3073 9.76042 41.4557 9.43229 41.5547 9.0625C41.6589 8.6875 41.7109 8.28906 41.7109 7.86719V7.6875C41.7109 7.27083 41.6589 6.8776 41.5547 6.50781C41.4557 6.13281 41.3047 5.80208 41.1016 5.51562C40.9036 5.22396 40.6536 4.99479 40.3516 4.82812C40.0547 4.66146 39.7057 4.57812 39.3047 4.57812C38.9089 4.57812 38.5599 4.66146 38.2578 4.82812C37.9609 4.99479 37.7109 5.22396 37.5078 5.51562C37.3099 5.80208 37.1615 6.13281 37.0625 6.50781C36.9635 6.8776 36.9141 7.27083 36.9141 7.6875ZM46.4141 5.22656V12H44.9609V3.54688H46.3359L46.4141 5.22656ZM46.1172 7.45312L45.4453 7.42969C45.4505 6.85156 45.526 6.31771 45.6719 5.82812C45.8177 5.33333 46.0339 4.90365 46.3203 4.53906C46.6068 4.17448 46.9635 3.89323 47.3906 3.69531C47.8177 3.49219 48.3125 3.39062 48.875 3.39062C49.2708 3.39062 49.6354 3.44792 49.9688 3.5625C50.3021 3.67188 50.5911 3.84635 50.8359 4.08594C51.0807 4.32552 51.2708 4.63281 51.4062 5.00781C51.5417 5.38281 51.6094 5.83594 51.6094 6.36719V12H50.1641V6.4375C50.1641 5.99479 50.0885 5.64062 49.9375 5.375C49.7917 5.10938 49.5833 4.91667 49.3125 4.79688C49.0417 4.67188 48.724 4.60938 48.3594 4.60938C47.9323 4.60938 47.5755 4.6849 47.2891 4.83594C47.0026 4.98698 46.7734 5.19531 46.6016 5.46094C46.4297 5.72656 46.3047 6.03125 46.2266 6.375C46.1536 6.71354 46.1172 7.07292 46.1172 7.45312ZM51.5938 6.65625L50.625 6.95312C50.6302 6.48958 50.7057 6.04427 50.8516 5.61719C51.0026 5.1901 51.2188 4.8099 51.5 4.47656C51.7865 4.14323 52.138 3.88021 52.5547 3.6875C52.9714 3.48958 53.4479 3.39062 53.9844 3.39062C54.4375 3.39062 54.8385 3.45052 55.1875 3.57031C55.5417 3.6901 55.8385 3.875 56.0781 4.125C56.3229 4.36979 56.5078 4.6849 56.6328 5.07031C56.7578 5.45573 56.8203 5.91406 56.8203 6.44531V12H55.3672V6.42969C55.3672 5.95573 55.2917 5.58854 55.1406 5.32812C54.9948 5.0625 54.7865 4.8776 54.5156 4.77344C54.25 4.66406 53.9323 4.60938 53.5625 4.60938C53.2448 4.60938 52.9635 4.66406 52.7188 4.77344C52.474 4.88281 52.2682 5.03385 52.1016 5.22656C51.9349 5.41406 51.8073 5.63021 51.7188 5.875C51.6354 6.11979 51.5938 6.38021 51.5938 6.65625ZM62.5156 12.1562C61.9271 12.1562 61.3932 12.0573 60.9141 11.8594C60.4401 11.6562 60.0312 11.3724 59.6875 11.0078C59.349 10.6432 59.0885 10.2109 58.9062 9.71094C58.724 9.21094 58.6328 8.66406 58.6328 8.07031V7.74219C58.6328 7.05469 58.7344 6.44271 58.9375 5.90625C59.1406 5.36458 59.4167 4.90625 59.7656 4.53125C60.1146 4.15625 60.5104 3.8724 60.9531 3.67969C61.3958 3.48698 61.8542 3.39062 62.3281 3.39062C62.9323 3.39062 63.4531 3.49479 63.8906 3.70312C64.3333 3.91146 64.6953 4.20312 64.9766 4.57812C65.2578 4.94792 65.4661 5.38542 65.6016 5.89062C65.737 6.39062 65.8047 6.9375 65.8047 7.53125V8.17969H59.4922V7H64.3594V6.89062C64.3385 6.51562 64.2604 6.15104 64.125 5.79688C63.9948 5.44271 63.7865 5.15104 63.5 4.92188C63.2135 4.69271 62.8229 4.57812 62.3281 4.57812C62 4.57812 61.6979 4.64844 61.4219 4.78906C61.1458 4.92448 60.9089 5.1276 60.7109 5.39844C60.513 5.66927 60.3594 6 60.25 6.39062C60.1406 6.78125 60.0859 7.23177 60.0859 7.74219V8.07031C60.0859 8.47135 60.1406 8.84896 60.25 9.20312C60.3646 9.55208 60.5286 9.85938 60.7422 10.125C60.9609 10.3906 61.224 10.599 61.5312 10.75C61.8438 10.901 62.1979 10.9766 62.5938 10.9766C63.1042 10.9766 63.5365 10.8724 63.8906 10.6641C64.2448 10.4557 64.5547 10.1771 64.8203 9.82812L65.6953 10.5234C65.513 10.7995 65.2812 11.0625 65 11.3125C64.7188 11.5625 64.3724 11.7656 63.9609 11.9219C63.5547 12.0781 63.0729 12.1562 62.5156 12.1562ZM68.8047 10.2812V11.4453C68.8047 11.9193 68.6849 12.4193 68.4453 12.9453C68.2057 13.4766 67.8698 13.9193 67.4375 14.2734L66.6172 13.7031C66.7839 13.474 66.9245 13.2396 67.0391 13C67.1536 12.7656 67.2396 12.5208 67.2969 12.2656C67.3594 12.0156 67.3906 11.75 67.3906 11.4688V10.2812H68.8047ZM80.8984 9.125C80.8984 8.85938 80.8568 8.625 80.7734 8.42188C80.6953 8.21354 80.5547 8.02604 80.3516 7.85938C80.1536 7.69271 79.8776 7.53385 79.5234 7.38281C79.1745 7.23177 78.7318 7.07812 78.1953 6.92188C77.6328 6.75521 77.125 6.57031 76.6719 6.36719C76.2188 6.15885 75.8307 5.92188 75.5078 5.65625C75.1849 5.39062 74.9375 5.08594 74.7656 4.74219C74.5938 4.39844 74.5078 4.00521 74.5078 3.5625C74.5078 3.11979 74.599 2.71094 74.7812 2.33594C74.9635 1.96094 75.224 1.63542 75.5625 1.35938C75.9062 1.07812 76.3151 0.859375 76.7891 0.703125C77.263 0.546875 77.7917 0.46875 78.375 0.46875C79.2292 0.46875 79.9531 0.632812 80.5469 0.960938C81.1458 1.28385 81.6016 1.70833 81.9141 2.23438C82.2266 2.75521 82.3828 3.3125 82.3828 3.90625H80.8828C80.8828 3.47917 80.7917 3.10156 80.6094 2.77344C80.4271 2.4401 80.151 2.17969 79.7812 1.99219C79.4115 1.79948 78.9427 1.70312 78.375 1.70312C77.8385 1.70312 77.3958 1.78385 77.0469 1.94531C76.6979 2.10677 76.4375 2.32552 76.2656 2.60156C76.099 2.8776 76.0156 3.19271 76.0156 3.54688C76.0156 3.78646 76.0651 4.00521 76.1641 4.20312C76.2682 4.39583 76.4271 4.57552 76.6406 4.74219C76.8594 4.90885 77.1354 5.0625 77.4688 5.20312C77.8073 5.34375 78.2109 5.47917 78.6797 5.60938C79.3255 5.79167 79.8828 5.99479 80.3516 6.21875C80.8203 6.44271 81.2057 6.69531 81.5078 6.97656C81.8151 7.2526 82.0417 7.56771 82.1875 7.92188C82.3385 8.27083 82.4141 8.66667 82.4141 9.10938C82.4141 9.57292 82.3203 9.99219 82.1328 10.3672C81.9453 10.7422 81.6771 11.0625 81.3281 11.3281C80.9792 11.5938 80.5599 11.7995 80.0703 11.9453C79.5859 12.0859 79.0443 12.1562 78.4453 12.1562C77.9193 12.1562 77.401 12.0833 76.8906 11.9375C76.3854 11.7917 75.9245 11.5729 75.5078 11.2812C75.0964 10.9896 74.7656 10.6302 74.5156 10.2031C74.2708 9.77083 74.1484 9.27083 74.1484 8.70312H75.6484C75.6484 9.09375 75.724 9.42969 75.875 9.71094C76.026 9.98698 76.2318 10.2161 76.4922 10.3984C76.7578 10.5807 77.0573 10.7161 77.3906 10.8047C77.7292 10.888 78.0807 10.9297 78.4453 10.9297C78.9714 10.9297 79.4167 10.8568 79.7812 10.7109C80.1458 10.5651 80.4219 10.3568 80.6094 10.0859C80.8021 9.8151 80.8984 9.49479 80.8984 9.125ZM89.2891 10.0469V3.54688H90.7422V12H89.3594L89.2891 10.0469ZM89.5625 8.26562L90.1641 8.25C90.1641 8.8125 90.1042 9.33333 89.9844 9.8125C89.8698 10.2865 89.6823 10.6979 89.4219 11.0469C89.1615 11.3958 88.8203 11.6693 88.3984 11.8672C87.9766 12.0599 87.4635 12.1562 86.8594 12.1562C86.4479 12.1562 86.0703 12.0964 85.7266 11.9766C85.388 11.8568 85.0964 11.6719 84.8516 11.4219C84.6068 11.1719 84.4167 10.8464 84.2812 10.4453C84.151 10.0443 84.0859 9.5625 84.0859 9V3.54688H85.5312V9.01562C85.5312 9.39583 85.5729 9.71094 85.6562 9.96094C85.7448 10.2057 85.862 10.401 86.0078 10.5469C86.1589 10.6875 86.3255 10.7865 86.5078 10.8438C86.6953 10.901 86.888 10.9297 87.0859 10.9297C87.7005 10.9297 88.1875 10.8125 88.5469 10.5781C88.9062 10.3385 89.1641 10.0182 89.3203 9.61719C89.4818 9.21094 89.5625 8.76042 89.5625 8.26562ZM94.3906 4.875V12H92.9453V3.54688H94.3516L94.3906 4.875ZM97.0312 3.5L97.0234 4.84375C96.9036 4.81771 96.7891 4.80208 96.6797 4.79688C96.5755 4.78646 96.4557 4.78125 96.3203 4.78125C95.987 4.78125 95.6927 4.83333 95.4375 4.9375C95.1823 5.04167 94.9661 5.1875 94.7891 5.375C94.612 5.5625 94.4714 5.78646 94.3672 6.04688C94.2682 6.30208 94.2031 6.58333 94.1719 6.89062L93.7656 7.125C93.7656 6.61458 93.8151 6.13542 93.9141 5.6875C94.0182 5.23958 94.1771 4.84375 94.3906 4.5C94.6042 4.15104 94.875 3.88021 95.2031 3.6875C95.5365 3.48958 95.9323 3.39062 96.3906 3.39062C96.4948 3.39062 96.6146 3.40365 96.75 3.42969C96.8854 3.45052 96.9792 3.47396 97.0312 3.5ZM101.719 12.1562C101.13 12.1562 100.596 12.0573 100.117 11.8594C99.6432 11.6562 99.2344 11.3724 98.8906 11.0078C98.5521 10.6432 98.2917 10.2109 98.1094 9.71094C97.9271 9.21094 97.8359 8.66406 97.8359 8.07031V7.74219C97.8359 7.05469 97.9375 6.44271 98.1406 5.90625C98.3438 5.36458 98.6198 4.90625 98.9688 4.53125C99.3177 4.15625 99.7135 3.8724 100.156 3.67969C100.599 3.48698 101.057 3.39062 101.531 3.39062C102.135 3.39062 102.656 3.49479 103.094 3.70312C103.536 3.91146 103.898 4.20312 104.18 4.57812C104.461 4.94792 104.669 5.38542 104.805 5.89062C104.94 6.39062 105.008 6.9375 105.008 7.53125V8.17969H98.6953V7H103.562V6.89062C103.542 6.51562 103.464 6.15104 103.328 5.79688C103.198 5.44271 102.99 5.15104 102.703 4.92188C102.417 4.69271 102.026 4.57812 101.531 4.57812C101.203 4.57812 100.901 4.64844 100.625 4.78906C100.349 4.92448 100.112 5.1276 99.9141 5.39844C99.7161 5.66927 99.5625 6 99.4531 6.39062C99.3438 6.78125 99.2891 7.23177 99.2891 7.74219V8.07031C99.2891 8.47135 99.3438 8.84896 99.4531 9.20312C99.5677 9.55208 99.7318 9.85938 99.9453 10.125C100.164 10.3906 100.427 10.599 100.734 10.75C101.047 10.901 101.401 10.9766 101.797 10.9766C102.307 10.9766 102.74 10.8724 103.094 10.6641C103.448 10.4557 103.758 10.1771 104.023 9.82812L104.898 10.5234C104.716 10.7995 104.484 11.0625 104.203 11.3125C103.922 11.5625 103.576 11.7656 103.164 11.9219C102.758 12.0781 102.276 12.1562 101.719 12.1562ZM111.617 9.75781C111.617 9.54948 111.57 9.35677 111.477 9.17969C111.388 8.9974 111.203 8.83333 110.922 8.6875C110.646 8.53646 110.229 8.40625 109.672 8.29688C109.203 8.19792 108.779 8.08073 108.398 7.94531C108.023 7.8099 107.703 7.64583 107.438 7.45312C107.177 7.26042 106.977 7.03385 106.836 6.77344C106.695 6.51302 106.625 6.20833 106.625 5.85938C106.625 5.52604 106.698 5.21094 106.844 4.91406C106.995 4.61719 107.206 4.35417 107.477 4.125C107.753 3.89583 108.083 3.71615 108.469 3.58594C108.854 3.45573 109.284 3.39062 109.758 3.39062C110.435 3.39062 111.013 3.51042 111.492 3.75C111.971 3.98958 112.339 4.3099 112.594 4.71094C112.849 5.10677 112.977 5.54688 112.977 6.03125H111.531C111.531 5.79688 111.461 5.57031 111.32 5.35156C111.185 5.1276 110.984 4.94271 110.719 4.79688C110.458 4.65104 110.138 4.57812 109.758 4.57812C109.357 4.57812 109.031 4.64062 108.781 4.76562C108.536 4.88542 108.357 5.03906 108.242 5.22656C108.133 5.41406 108.078 5.61198 108.078 5.82031C108.078 5.97656 108.104 6.11719 108.156 6.24219C108.214 6.36198 108.312 6.47396 108.453 6.57812C108.594 6.67708 108.792 6.77083 109.047 6.85938C109.302 6.94792 109.628 7.03646 110.023 7.125C110.716 7.28125 111.286 7.46875 111.734 7.6875C112.182 7.90625 112.516 8.17448 112.734 8.49219C112.953 8.8099 113.062 9.19531 113.062 9.64844C113.062 10.0182 112.984 10.3568 112.828 10.6641C112.677 10.9714 112.456 11.237 112.164 11.4609C111.878 11.6797 111.534 11.8516 111.133 11.9766C110.737 12.0964 110.292 12.1562 109.797 12.1562C109.052 12.1562 108.422 12.0234 107.906 11.7578C107.391 11.4922 107 11.1484 106.734 10.7266C106.469 10.3047 106.336 9.85938 106.336 9.39062H107.789C107.81 9.78646 107.924 10.1016 108.133 10.3359C108.341 10.5651 108.596 10.7292 108.898 10.8281C109.201 10.9219 109.5 10.9688 109.797 10.9688C110.193 10.9688 110.523 10.9167 110.789 10.8125C111.06 10.7083 111.266 10.5651 111.406 10.3828C111.547 10.2005 111.617 9.99219 111.617 9.75781ZM116.406 0V12H114.961V0H116.406ZM116.062 7.45312L115.461 7.42969C115.466 6.85156 115.552 6.31771 115.719 5.82812C115.885 5.33333 116.12 4.90365 116.422 4.53906C116.724 4.17448 117.083 3.89323 117.5 3.69531C117.922 3.49219 118.388 3.39062 118.898 3.39062C119.315 3.39062 119.69 3.44792 120.023 3.5625C120.357 3.67188 120.641 3.84896 120.875 4.09375C121.115 4.33854 121.297 4.65625 121.422 5.04688C121.547 5.43229 121.609 5.90365 121.609 6.46094V12H120.156V6.44531C120.156 6.0026 120.091 5.64844 119.961 5.38281C119.831 5.11198 119.641 4.91667 119.391 4.79688C119.141 4.67188 118.833 4.60938 118.469 4.60938C118.109 4.60938 117.781 4.6849 117.484 4.83594C117.193 4.98698 116.94 5.19531 116.727 5.46094C116.518 5.72656 116.354 6.03125 116.234 6.375C116.12 6.71354 116.062 7.07292 116.062 7.45312Z" fill="white"/>
</svg>
